G04 #@! TF.GenerationSoftware,KiCad,Pcbnew,(6.0.6)*
G04 #@! TF.CreationDate,2022-07-11T22:08:04-07:00*
G04 #@! TF.ProjectId,mysterium-bottom,6d797374-6572-4697-956d-2d626f74746f,rev?*
G04 #@! TF.SameCoordinates,Original*
G04 #@! TF.FileFunction,Soldermask,Top*
G04 #@! TF.FilePolarity,Negative*
%FSLAX46Y46*%
G04 Gerber Fmt 4.6, Leading zero omitted, Abs format (unit mm)*
G04 Created by KiCad (PCBNEW (6.0.6)) date 2022-07-11 22:08:04*
%MOMM*%
%LPD*%
G01*
G04 APERTURE LIST*
G04 #@! TA.AperFunction,Profile*
%ADD10C,0.150000*%
G04 #@! TD*
%ADD11C,4.502000*%
%ADD12C,8.702000*%
G04 APERTURE END LIST*
D10*
X39854660Y-60863401D02*
G75*
G03*
X36550601Y-64173459I3000J-3307059D01*
G01*
X384213099Y-64167460D02*
G75*
G03*
X380903041Y-60863401I-3307099J-3040D01*
G01*
X380909040Y-207479899D02*
G75*
G03*
X384213099Y-204169841I-3040J3307099D01*
G01*
X384213100Y-64167460D02*
X384213099Y-204169841D01*
X36550600Y-204175840D02*
X36550601Y-64173459D01*
X36550601Y-204175840D02*
G75*
G03*
X39860659Y-207479899I3307059J3000D01*
G01*
X380909040Y-207479900D02*
X39860659Y-207479899D01*
X39854660Y-60863400D02*
X380903041Y-60863400D01*
X39854660Y-60863401D02*
G75*
G03*
X36550601Y-64173459I3000J-3307059D01*
G01*
X384213099Y-64167460D02*
G75*
G03*
X380903041Y-60863401I-3307099J-3040D01*
G01*
X380909040Y-207479899D02*
G75*
G03*
X384213099Y-204169841I-3040J3307099D01*
G01*
X384213100Y-64167460D02*
X384213099Y-204169841D01*
X36550600Y-204175840D02*
X36550601Y-64173459D01*
X36550601Y-204175840D02*
G75*
G03*
X39860659Y-207479899I3307059J3000D01*
G01*
X380909040Y-207479900D02*
X39860659Y-207479899D01*
X39854660Y-60863400D02*
X380903041Y-60863400D01*
D11*
X40550600Y-64863400D03*
X40550600Y-83613400D03*
X380213100Y-83613400D03*
X380213100Y-64863400D03*
X134137400Y-64863400D03*
X210419351Y-109702600D03*
X210419351Y-197713600D03*
X335000600Y-109702600D03*
X85763100Y-109702600D03*
X77901800Y-178587400D03*
X327986788Y-155219400D03*
X379523512Y-155219400D03*
X327986788Y-183454800D03*
X379523512Y-183454800D03*
X286626300Y-64863400D03*
X134137400Y-83613400D03*
X286626300Y-83613400D03*
D12*
X64550600Y-97053400D03*
X356213100Y-97053400D03*
M02*
