M48
; DRILL file {KiCad (6.0.1)} date Wed Jul  6 22:25:19 2022
; FORMAT={-:-/ absolute / inch / decimal}
; #@! TF.CreationDate,2022-07-06T22:25:19-07:00
; #@! TF.GenerationSoftware,Kicad,Pcbnew,(6.0.1)
; #@! TF.FileFunction,Plated,1,2,PTH
FMAT,2
INCH
; #@! TA.AperFunction,Plated,PTH,ViaDrill
T1C0.0157
; #@! TA.AperFunction,Plated,PTH,ComponentDrill
T2C0.0157
; #@! TA.AperFunction,Plated,PTH,ComponentDrill
T3C0.0236
; #@! TA.AperFunction,Plated,PTH,ComponentDrill
T4C0.0276
; #@! TA.AperFunction,Plated,PTH,ComponentDrill
T5C0.0315
; #@! TA.AperFunction,Plated,PTH,ComponentDrill
T6C0.0354
; #@! TA.AperFunction,Plated,PTH,ComponentDrill
T7C0.0400
; #@! TA.AperFunction,Plated,PTH,ComponentDrill
T8C0.0433
; #@! TA.AperFunction,Plated,PTH,ComponentDrill
T9C0.0591
; #@! TA.AperFunction,Plated,PTH,ComponentDrill
T10C0.0866
%
G90
G05
T1
X1.72Y-2.56
X2.8852Y-2.278
X2.9573Y-3.3073
X3.6Y-3.21
X4.3356Y-3.246
X5.3175Y-7.4725
X5.438Y-3.04
X6.0585Y-3.098
X6.38Y-7.125
X6.8487Y-3.3205
X7.355Y-4.21
X7.49Y-4.075
X7.66Y-7.035
X7.7343Y-3.4277
X7.76Y-3.0433
X7.885Y-4.17
X8.3698Y-3.2932
X8.3698Y-3.3326
X8.3698Y-3.372
X8.734Y-3.2932
X8.734Y-3.3327
X9.005Y-4.375
X9.016Y-3.226
X9.175Y-7.015
X9.21Y-3.025
X9.685Y-3.0649
X9.7183Y-3.175
X10.055Y-3.025
X10.055Y-3.0649
X10.055Y-3.1763
X10.055Y-3.2156
X10.055Y-3.255
X10.055Y-3.295
X10.425Y-3.1769
X10.425Y-3.2163
X10.425Y-3.2556
X10.425Y-3.295
X10.9Y-4.143
X11.105Y-3.025
X11.1418Y-3.1832
X11.18Y-3.36
X11.3925Y-2.8075
X12.01Y-4.215
X12.0226Y-3.2037
X12.0663Y-3.2037
X12.11Y-3.2037
X12.125Y-2.3969
X12.125Y-2.4363
X12.125Y-2.4756
X12.125Y-2.515
X12.125Y-2.5556
X12.125Y-2.595
X12.39Y-5.0206
X12.39Y-5.06
X13.325Y-2.91
T2
X1.9067Y-2.3618
X1.9069Y-2.414
X1.9401Y-2.3618
X1.9403Y-2.414
X1.9736Y-2.3618
X1.9738Y-2.414
X2.0071Y-2.3618
X2.0073Y-2.414
X2.0405Y-2.3618
X2.0407Y-2.414
X2.074Y-2.3618
X2.0742Y-2.414
X2.1075Y-2.3618
X2.1077Y-2.414
X2.1411Y-2.3618
X2.1411Y-2.414
T3
X14.7142Y-2.8238
X14.7142Y-2.8829
T4
X9.8479Y-2.965
X10.0487Y-2.965
X11.5997Y-2.4078
X11.5997Y-2.5078
X11.5997Y-2.6077
X11.5997Y-2.7076
X11.5997Y-2.8075
X11.5997Y-2.9075
X11.5997Y-3.0074
X11.8997Y-2.4078
X11.8997Y-2.5078
X11.8997Y-2.6077
X11.8997Y-2.7076
X11.8997Y-2.8075
X11.8997Y-2.9075
X11.8997Y-3.0074
T5
X3.0207Y-2.956
X3.0981Y-2.856
X3.1712Y-2.756
X3.2207Y-2.956
X3.2481Y-2.656
X3.2981Y-2.856
X3.3231Y-2.556
X3.3712Y-2.756
X3.3962Y-2.456
X3.4481Y-2.656
X3.4762Y-2.956
X3.5231Y-2.556
X3.5537Y-2.856
X3.5962Y-2.456
X3.6269Y-2.756
X3.6762Y-2.956
X3.7037Y-2.656
X3.7537Y-2.856
X3.7787Y-2.556
X3.8269Y-2.756
X3.8519Y-2.456
X3.9037Y-2.656
X3.9318Y-2.956
X3.9787Y-2.556
X4.0094Y-2.856
X4.0519Y-2.456
X4.0825Y-2.756
X4.1318Y-2.956
X4.1594Y-2.656
X4.2094Y-2.856
X4.2344Y-2.556
X4.2825Y-2.756
X4.3075Y-2.456
X4.3594Y-2.656
X4.3874Y-2.956
X4.4344Y-2.556
X4.465Y-2.856
X4.5075Y-2.456
X4.5381Y-2.756
X4.5874Y-2.956
X4.615Y-2.656
X4.665Y-2.856
X4.69Y-2.556
X4.7381Y-2.756
X4.7631Y-2.456
X4.815Y-2.656
X4.89Y-2.556
X4.9631Y-2.456
X5.7387Y-2.956
X5.8087Y-2.856
X5.8862Y-2.756
X5.9387Y-2.956
X5.9637Y-2.656
X6.0087Y-2.856
X6.0362Y-2.556
X6.0862Y-2.756
X6.1112Y-2.456
X6.1637Y-2.656
X6.1943Y-2.956
X6.2362Y-2.556
X6.2644Y-2.856
X6.3112Y-2.456
X6.3419Y-2.756
X6.3943Y-2.956
X6.4194Y-2.656
X6.4644Y-2.856
X6.4919Y-2.556
X6.5419Y-2.756
X6.5669Y-2.456
X6.6194Y-2.656
X6.6499Y-2.956
X6.6919Y-2.556
X6.72Y-2.856
X6.7669Y-2.456
X6.7975Y-2.756
X6.8499Y-2.956
X6.875Y-2.656
X6.92Y-2.856
X6.9475Y-2.556
X6.9975Y-2.756
X7.0225Y-2.456
X7.075Y-2.656
X7.1055Y-2.956
X7.1475Y-2.556
X7.1756Y-2.856
X7.2225Y-2.456
X7.2531Y-2.756
X7.3055Y-2.956
X7.3306Y-2.656
X7.3756Y-2.856
X7.4031Y-2.556
X7.4531Y-2.756
X7.4781Y-2.456
X7.5306Y-2.656
X7.5611Y-2.956
X7.6031Y-2.556
X7.6312Y-2.856
X7.6781Y-2.456
X7.7087Y-2.756
X7.7611Y-2.956
X7.7862Y-2.656
X7.8312Y-2.856
X7.8587Y-2.556
X7.9087Y-2.756
X7.9337Y-2.456
X7.9862Y-2.656
X8.0167Y-2.956
X8.0587Y-2.556
X8.0869Y-2.856
X8.1337Y-2.456
X8.1644Y-2.756
X8.2167Y-2.956
X8.2419Y-2.656
X8.2869Y-2.856
X8.3144Y-2.556
X8.3644Y-2.756
X8.3894Y-2.456
X8.4419Y-2.656
X8.4723Y-2.956
X8.5144Y-2.556
X8.5425Y-2.856
X8.5894Y-2.456
X8.62Y-2.756
X8.6723Y-2.956
X8.6975Y-2.656
X8.7425Y-2.856
X8.77Y-2.556
X8.82Y-2.756
X8.845Y-2.456
X8.8975Y-2.656
X8.9278Y-2.956
X8.97Y-2.556
X8.9981Y-2.856
X9.045Y-2.456
X9.0756Y-2.756
X9.1278Y-2.956
X9.1531Y-2.656
X9.1981Y-2.856
X9.2256Y-2.556
X9.2756Y-2.756
X9.3006Y-2.456
X9.3531Y-2.656
X9.3834Y-2.956
X9.4256Y-2.556
X9.4537Y-2.856
X9.5006Y-2.456
X9.5312Y-2.756
X9.5834Y-2.956
X9.6087Y-2.656
X9.6537Y-2.856
X9.6812Y-2.556
X9.7312Y-2.756
X9.7562Y-2.456
X9.8087Y-2.656
X9.8812Y-2.556
X9.9094Y-2.856
X9.9562Y-2.456
X9.9869Y-2.756
X10.0644Y-2.656
X10.1094Y-2.856
X10.1369Y-2.556
X10.1869Y-2.756
X10.2119Y-2.456
X10.2644Y-2.656
X10.2951Y-2.955
X10.3369Y-2.556
X10.365Y-2.856
X10.4119Y-2.456
X10.4425Y-2.756
X10.4951Y-2.955
X10.52Y-2.656
X10.565Y-2.856
X10.5925Y-2.556
X10.6425Y-2.756
X10.6675Y-2.456
X10.72Y-2.656
X10.7925Y-2.556
X10.8675Y-2.456
X11.6496Y-3.114
X11.6501Y-2.302
X11.8464Y-3.114
X11.847Y-2.302
X12.2102Y-2.4102
X12.2102Y-3.0102
X12.3102Y-2.4102
X12.3102Y-3.0102
X12.4102Y-2.4102
X12.4102Y-3.0102
X12.5102Y-2.4102
X12.5102Y-3.0102
X12.6102Y-2.4102
X12.6102Y-3.0102
X12.7102Y-2.4102
X12.7102Y-3.0102
X12.8102Y-2.4102
X12.8102Y-3.0102
X12.9102Y-2.4102
X12.9102Y-3.0102
X13.0102Y-2.4102
X13.0102Y-3.0102
X13.1102Y-2.4102
X13.1102Y-3.0102
X13.2102Y-2.4102
X13.2102Y-3.0102
X13.3102Y-2.4102
X13.3102Y-3.0102
X13.4102Y-2.4102
X13.4102Y-3.0102
X13.5102Y-2.4102
X13.5102Y-3.0102
X13.6102Y-2.4102
X13.6102Y-3.0102
X13.7102Y-2.4102
X13.7102Y-3.0102
X13.8102Y-2.4102
X13.8102Y-3.0102
X13.9102Y-2.4102
X13.9102Y-3.0102
X14.0102Y-2.4102
X14.0102Y-3.0102
X14.1102Y-2.4102
X14.1102Y-3.0102
X14.365Y-2.4244
X14.365Y-2.9874
X14.4142Y-2.6094
X14.4142Y-2.8016
X14.4635Y-2.4244
X14.4635Y-2.9874
T6
X14.6641Y-2.5563
X14.7641Y-2.5563
T7
X2.425Y-2.285
X2.425Y-2.385
X2.525Y-2.285
X2.525Y-2.385
X2.625Y-2.285
X2.625Y-2.385
T8
X1.896Y-2.6132
X1.896Y-2.7904
X2.152Y-2.6132
X2.152Y-2.7904
X2.397Y-2.6132
X2.397Y-2.7904
X2.653Y-2.6132
X2.653Y-2.7904
T9
X1.6875Y-3.5375
X1.6875Y-4.475
X1.7812Y-5.975
X1.7812Y-7.475
X1.875Y-5.225
X1.875Y-7.475
X1.9375Y-3.4375
X1.9375Y-4.375
X1.9688Y-5.975
X2.0312Y-5.875
X2.0312Y-7.375
X2.125Y-5.125
X2.125Y-7.375
X2.1562Y-6.725
X2.2188Y-5.875
X2.4062Y-6.625
X2.4375Y-4.475
X2.6875Y-4.375
X2.7188Y-7.475
X2.8125Y-5.225
X2.8125Y-7.475
X2.9688Y-7.375
X3.0Y-5.975
X3.0625Y-5.125
X3.0625Y-7.375
X3.1875Y-3.5375
X3.1875Y-4.475
X3.25Y-5.875
X3.375Y-6.725
X3.4375Y-3.4375
X3.4375Y-4.375
X3.5625Y-5.225
X3.625Y-6.625
X3.6562Y-7.475
X3.75Y-5.975
X3.75Y-7.475
X3.8125Y-5.125
X3.9062Y-7.375
X3.9375Y-3.5375
X3.9375Y-4.475
X4.0Y-5.875
X4.0Y-7.375
X4.125Y-6.725
X4.1875Y-3.4375
X4.1875Y-4.375
X4.3125Y-5.225
X4.375Y-6.625
X4.5Y-5.975
X4.5625Y-5.125
X4.6875Y-3.5375
X4.6875Y-4.475
X4.75Y-5.875
X4.875Y-6.725
X4.9375Y-3.4375
X4.9375Y-4.375
X5.0625Y-5.225
X5.125Y-6.625
X5.25Y-5.975
X5.3125Y-5.125
X5.4375Y-3.5375
X5.4375Y-4.475
X5.5Y-5.875
X5.625Y-6.725
X5.6875Y-3.4375
X5.6875Y-4.375
X5.8125Y-5.225
X5.875Y-6.625
X6.0Y-5.975
X6.0625Y-5.125
X6.1875Y-4.475
X6.25Y-5.875
X6.375Y-6.725
X6.4375Y-4.375
X6.4688Y-7.475
X6.5625Y-3.5375
X6.5625Y-5.225
X6.625Y-6.625
X6.7188Y-7.375
X6.75Y-5.975
X6.8125Y-3.4375
X6.8125Y-5.125
X6.9375Y-4.475
X6.9375Y-7.475
X7.0Y-5.875
X7.125Y-6.725
X7.1875Y-4.375
X7.1875Y-7.375
X7.3125Y-3.5375
X7.3125Y-5.225
X7.375Y-6.625
X7.5Y-5.975
X7.5625Y-3.4375
X7.5625Y-5.125
X7.6875Y-4.475
X7.75Y-5.875
X7.875Y-6.725
X7.9375Y-4.375
X8.0625Y-3.5375
X8.0625Y-5.225
X8.125Y-6.625
X8.25Y-5.975
X8.3125Y-3.4375
X8.3125Y-5.125
X8.4375Y-4.475
X8.5Y-5.875
X8.625Y-6.725
X8.6875Y-4.375
X8.8125Y-3.5375
X8.8125Y-5.225
X8.875Y-6.625
X9.0Y-5.975
X9.0625Y-3.4375
X9.0625Y-5.125
X9.1875Y-4.475
X9.25Y-5.875
X9.2812Y-7.475
X9.375Y-6.725
X9.4375Y-4.375
X9.5312Y-7.375
X9.5625Y-5.225
X9.625Y-6.625
X9.75Y-5.975
X9.8125Y-5.125
X9.9375Y-3.5375
X9.9375Y-4.475
X10.0Y-5.875
X10.125Y-6.725
X10.125Y-7.475
X10.1875Y-3.4375
X10.1875Y-4.375
X10.2188Y-7.475
X10.3125Y-5.225
X10.375Y-6.625
X10.375Y-7.375
X10.4688Y-7.375
X10.5Y-5.975
X10.5625Y-5.125
X10.6875Y-3.5375
X10.6875Y-4.475
X10.75Y-5.875
X10.9375Y-3.4375
X10.9375Y-4.375
X11.0625Y-5.225
X11.0625Y-7.475
X11.1562Y-7.475
X11.3125Y-5.125
X11.3125Y-7.375
X11.4062Y-7.375
X11.4375Y-3.5375
X11.5312Y-6.7252
X11.6875Y-3.4375
X11.7188Y-5.975
X11.7812Y-6.6252
X11.8125Y-4.475
X11.9688Y-5.875
X12.0Y-5.225
X12.0Y-7.475
X12.0625Y-4.375
X12.0938Y-7.475
X12.1875Y-3.5375
X12.25Y-5.125
X12.25Y-7.375
X12.3438Y-7.375
X12.4375Y-3.4375
X13.125Y-3.5375
X13.125Y-4.475
X13.125Y-5.225
X13.125Y-7.475
X13.375Y-3.4375
X13.375Y-4.375
X13.375Y-5.125
X13.375Y-7.375
X13.875Y-3.5375
X13.875Y-4.475
X13.875Y-5.225
X13.875Y-6.725
X13.875Y-7.475
X14.125Y-3.4375
X14.125Y-4.375
X14.125Y-5.125
X14.125Y-6.625
X14.125Y-7.375
X14.625Y-3.5375
X14.625Y-4.475
X14.625Y-5.225
X14.625Y-7.475
X14.875Y-3.4375
X14.875Y-4.375
X14.875Y-5.125
X14.875Y-7.375
T10
X1.62Y-2.3352
X1.62Y-3.0734
X3.0905Y-6.8125
X3.4Y-4.1005
X5.3045Y-2.3352
X5.3045Y-3.0734
X8.3077Y-4.1005
X8.3077Y-7.5655
X11.308Y-2.3352
X11.308Y-3.0734
X12.9364Y-5.8925
X12.9364Y-7.0041
X13.2125Y-4.1005
X14.9654Y-5.8925
X14.9654Y-7.0041
X14.9925Y-2.3352
X14.9925Y-3.0734
T3
G00X1.8537Y-2.2581
M15
G01X1.8537Y-2.2266
M16
G05
G00X1.8537Y-2.4049
M15
G01X1.8537Y-2.3459
M16
G05
G00X2.1943Y-2.2581
M15
G01X2.1943Y-2.2266
M16
G05
G00X2.1943Y-2.4049
M15
G01X2.1943Y-2.3459
M16
G05
T0
M30
