G04 #@! TF.GenerationSoftware,KiCad,Pcbnew,(6.0.6)*
G04 #@! TF.CreationDate,2022-07-11T21:59:51-07:00*
G04 #@! TF.ProjectId,mysterium-pcb,6d797374-6572-4697-956d-2d7063622e6b,rev?*
G04 #@! TF.SameCoordinates,Original*
G04 #@! TF.FileFunction,Soldermask,Top*
G04 #@! TF.FilePolarity,Negative*
%FSLAX46Y46*%
G04 Gerber Fmt 4.6, Leading zero omitted, Abs format (unit mm)*
G04 Created by KiCad (PCBNEW (6.0.6)) date 2022-07-11 21:59:51*
%MOMM*%
%LPD*%
G01*
G04 APERTURE LIST*
G04 Aperture macros list*
%AMRoundRect*
0 Rectangle with rounded corners*
0 $1 Rounding radius*
0 $2 $3 $4 $5 $6 $7 $8 $9 X,Y pos of 4 corners*
0 Add a 4 corners polygon primitive as box body*
4,1,4,$2,$3,$4,$5,$6,$7,$8,$9,$2,$3,0*
0 Add four circle primitives for the rounded corners*
1,1,$1+$1,$2,$3*
1,1,$1+$1,$4,$5*
1,1,$1+$1,$6,$7*
1,1,$1+$1,$8,$9*
0 Add four rect primitives between the rounded corners*
20,1,$1+$1,$2,$3,$4,$5,0*
20,1,$1+$1,$4,$5,$6,$7,0*
20,1,$1+$1,$6,$7,$8,$9,0*
20,1,$1+$1,$8,$9,$2,$3,0*%
G04 Aperture macros list end*
%ADD10C,1.500000*%
G04 #@! TA.AperFunction,Profile*
%ADD11C,0.150000*%
G04 #@! TD*
%ADD12C,4.089800*%
%ADD13C,3.150000*%
%ADD14C,4.102000*%
%ADD15C,1.802000*%
%ADD16C,2.302000*%
%ADD17RoundRect,0.051000X0.600000X-0.600000X0.600000X0.600000X-0.600000X0.600000X-0.600000X-0.600000X0*%
%ADD18C,1.302000*%
%ADD19RoundRect,0.051000X-0.900000X-0.900000X0.900000X-0.900000X0.900000X0.900000X-0.900000X0.900000X0*%
%ADD20C,1.902000*%
%ADD21RoundRect,0.051000X0.800000X0.800000X-0.800000X0.800000X-0.800000X-0.800000X0.800000X-0.800000X0*%
%ADD22O,1.702000X1.702000*%
%ADD23RoundRect,0.051000X0.800000X-0.800000X0.800000X0.800000X-0.800000X0.800000X-0.800000X-0.800000X0*%
%ADD24C,4.502000*%
%ADD25C,2.102000*%
%ADD26C,1.702000*%
%ADD27C,1.502000*%
%ADD28RoundRect,0.051000X0.850000X0.850000X-0.850000X0.850000X-0.850000X-0.850000X0.850000X-0.850000X0*%
%ADD29O,1.502000X1.502000*%
%ADD30C,3.152000*%
%ADD31O,0.752000X1.102000*%
%ADD32O,1.002000X1.802000*%
%ADD33O,1.002000X2.502000*%
%ADD34C,1.602000*%
G04 APERTURE END LIST*
D10*
X317456500Y-58330000D02*
X351063500Y-58330000D01*
X317456500Y-79340000D02*
X351063500Y-79340000D01*
D11*
X40451560Y-55313501D02*
G75*
G03*
X37147501Y-58623559I3000J-3307059D01*
G01*
X384809999Y-58617560D02*
G75*
G03*
X381499941Y-55313501I-3307099J-3040D01*
G01*
X381505940Y-201929999D02*
G75*
G03*
X384809999Y-198619941I-3040J3307099D01*
G01*
X384810000Y-58617560D02*
X384809999Y-198619941D01*
X37147500Y-198625940D02*
X37147501Y-58623559D01*
X37147501Y-198625940D02*
G75*
G03*
X40457559Y-201929999I3307059J3000D01*
G01*
X40451560Y-55313500D02*
X381499941Y-55313500D01*
X381505940Y-201930000D02*
X40457559Y-201929999D01*
D10*
X317456500Y-58330000D02*
X351063500Y-58330000D01*
X317456500Y-79340000D02*
X351063500Y-79340000D01*
D11*
X40451560Y-55313501D02*
G75*
G03*
X37147501Y-58623559I3000J-3307059D01*
G01*
X384809999Y-58617560D02*
G75*
G03*
X381499941Y-55313501I-3307099J-3040D01*
G01*
X381505940Y-201929999D02*
G75*
G03*
X384809999Y-198619941I-3040J3307099D01*
G01*
X384810000Y-58617560D02*
X384809999Y-198619941D01*
X37147500Y-198625940D02*
X37147501Y-58623559D01*
X37147501Y-198625940D02*
G75*
G03*
X40457559Y-201929999I3307059J3000D01*
G01*
X40451560Y-55313500D02*
X381499941Y-55313500D01*
X381505940Y-201930000D02*
X40457559Y-201929999D01*
D12*
X118110000Y-184162700D03*
D13*
X118110000Y-199402700D03*
X218109800Y-199402700D03*
D12*
X218109800Y-184162700D03*
D14*
X65722500Y-116205000D03*
D15*
X70802500Y-116205000D03*
X60642500Y-116205000D03*
D16*
X68262500Y-111125000D03*
X61912500Y-113665000D03*
D14*
X208597500Y-135255000D03*
D15*
X203517500Y-135255000D03*
X213677500Y-135255000D03*
D16*
X211137500Y-130175000D03*
X204787500Y-132715000D03*
D12*
X237172500Y-184150000D03*
D13*
X122872500Y-199390000D03*
D12*
X122872500Y-184150000D03*
D13*
X237172500Y-199390000D03*
D17*
X373741883Y-73225132D03*
D18*
X373741883Y-71725132D03*
D19*
X372466883Y-64929933D03*
D20*
X375006883Y-64929933D03*
D21*
X250983564Y-64922400D03*
D22*
X245903564Y-64922400D03*
D21*
X122301000Y-67462400D03*
D22*
X117221000Y-67462400D03*
D21*
X241315681Y-62382400D03*
D22*
X236235681Y-62382400D03*
D21*
X276034330Y-62382400D03*
D22*
X270954330Y-62382400D03*
D21*
X185559593Y-75082400D03*
D22*
X180479593Y-75082400D03*
D21*
X197131514Y-75082400D03*
D22*
X192051514Y-75082400D03*
D23*
X310139000Y-76459000D03*
D22*
X312679000Y-76459000D03*
X315219000Y-76459000D03*
X317759000Y-76459000D03*
X320299000Y-76459000D03*
X322839000Y-76459000D03*
X325379000Y-76459000D03*
X327919000Y-76459000D03*
X330459000Y-76459000D03*
X332999000Y-76459000D03*
X335539000Y-76459000D03*
X338079000Y-76459000D03*
X340619000Y-76459000D03*
X343159000Y-76459000D03*
X345699000Y-76459000D03*
X348239000Y-76459000D03*
X350779000Y-76459000D03*
X353319000Y-76459000D03*
X355859000Y-76459000D03*
X358399000Y-76459000D03*
X358399000Y-61219000D03*
X355859000Y-61219000D03*
X353319000Y-61219000D03*
X350779000Y-61219000D03*
X348239000Y-61219000D03*
X345699000Y-61219000D03*
X343159000Y-61219000D03*
X340619000Y-61219000D03*
X338079000Y-61219000D03*
X335539000Y-61219000D03*
X332999000Y-61219000D03*
X330459000Y-61219000D03*
X327919000Y-61219000D03*
X325379000Y-61219000D03*
X322839000Y-61219000D03*
X320299000Y-61219000D03*
X317759000Y-61219000D03*
X315219000Y-61219000D03*
X312679000Y-61219000D03*
X310139000Y-61219000D03*
D24*
X41147500Y-59313500D03*
X41147500Y-78063500D03*
X380810000Y-78063500D03*
X380810000Y-59313500D03*
X134734300Y-59313500D03*
X211016251Y-104152700D03*
X211016251Y-192163700D03*
X335597500Y-104152700D03*
X86360000Y-104152700D03*
X78498700Y-173037500D03*
X328583688Y-149669500D03*
X380120412Y-149669500D03*
X328583688Y-177904900D03*
X380120412Y-177904900D03*
D25*
X67385000Y-68915899D03*
X60885000Y-68915899D03*
X60885000Y-73415899D03*
X67385000Y-73415899D03*
D26*
X367371883Y-61579833D03*
X364871883Y-61579833D03*
X367371883Y-75880033D03*
X364871883Y-75880033D03*
X300913800Y-58470800D03*
X295913800Y-58470800D03*
X295899200Y-79095600D03*
X300899200Y-79095600D03*
D21*
X91344500Y-62382400D03*
D22*
X86264500Y-62382400D03*
D24*
X287223200Y-59313500D03*
D21*
X102917383Y-62382400D03*
D22*
X97837383Y-62382400D03*
D21*
X114490266Y-62382400D03*
D22*
X109410266Y-62382400D03*
D21*
X126063149Y-62382400D03*
D22*
X120983149Y-62382400D03*
D21*
X160305500Y-62382400D03*
D22*
X155225500Y-62382400D03*
D21*
X171878383Y-62382400D03*
D22*
X166798383Y-62382400D03*
D21*
X183451266Y-62382400D03*
D22*
X178371266Y-62382400D03*
D21*
X195024149Y-62382400D03*
D22*
X189944149Y-62382400D03*
D21*
X206597032Y-62382400D03*
D22*
X201517032Y-62382400D03*
D21*
X218169915Y-62382400D03*
D22*
X213089915Y-62382400D03*
D21*
X229742798Y-62382400D03*
D22*
X224662798Y-62382400D03*
D21*
X252888564Y-62382400D03*
D22*
X247808564Y-62382400D03*
D21*
X264461447Y-62382400D03*
D22*
X259381447Y-62382400D03*
D21*
X270319330Y-70002400D03*
D22*
X265239330Y-70002400D03*
D21*
X89487351Y-64922400D03*
D22*
X84407351Y-64922400D03*
D21*
X101060234Y-64922400D03*
D22*
X95980234Y-64922400D03*
D21*
X112633117Y-64922400D03*
D22*
X107553117Y-64922400D03*
D21*
X124206000Y-64922400D03*
D22*
X119126000Y-64922400D03*
D21*
X158400500Y-64922400D03*
D22*
X153320500Y-64922400D03*
D21*
X169973383Y-64922400D03*
D22*
X164893383Y-64922400D03*
D21*
X181546266Y-64922400D03*
D22*
X176466266Y-64922400D03*
D21*
X193119149Y-64922400D03*
D22*
X188039149Y-64922400D03*
D21*
X204692032Y-64922400D03*
D22*
X199612032Y-64922400D03*
D21*
X216264915Y-64922400D03*
D22*
X211184915Y-64922400D03*
D21*
X227837798Y-64922400D03*
D22*
X222757798Y-64922400D03*
D21*
X239410681Y-64922400D03*
D22*
X234330681Y-64922400D03*
D21*
X262556447Y-64922400D03*
D22*
X257476447Y-64922400D03*
D21*
X274129330Y-64922400D03*
D22*
X269049330Y-64922400D03*
D21*
X268350660Y-72542400D03*
D22*
X263270660Y-72542400D03*
D21*
X258746447Y-70002400D03*
D22*
X253666447Y-70002400D03*
D21*
X87582351Y-67462400D03*
D22*
X82502351Y-67462400D03*
D21*
X99155234Y-67462400D03*
D22*
X94075234Y-67462400D03*
D21*
X110728117Y-67462400D03*
D22*
X105648117Y-67462400D03*
D21*
X156558830Y-67462400D03*
D22*
X151478830Y-67462400D03*
D21*
X168131713Y-67462400D03*
D22*
X163051713Y-67462400D03*
D21*
X179704596Y-67462400D03*
D22*
X174624596Y-67462400D03*
D21*
X191277479Y-67462400D03*
D22*
X186197479Y-67462400D03*
D21*
X202850362Y-67462400D03*
D22*
X197770362Y-67462400D03*
D21*
X214423245Y-67462400D03*
D22*
X209343245Y-67462400D03*
D21*
X225996128Y-67462400D03*
D22*
X220916128Y-67462400D03*
D21*
X237569011Y-67462400D03*
D22*
X232489011Y-67462400D03*
D21*
X249141894Y-67462400D03*
D22*
X244061894Y-67462400D03*
D21*
X260714777Y-67462400D03*
D22*
X255634777Y-67462400D03*
D21*
X272287660Y-67462400D03*
D22*
X267207660Y-67462400D03*
D21*
X266576508Y-75057000D03*
D22*
X261496508Y-75057000D03*
D21*
X256777777Y-72542400D03*
D22*
X251697777Y-72542400D03*
D21*
X85629500Y-70002400D03*
D22*
X80549500Y-70002400D03*
D21*
X97202383Y-70002400D03*
D22*
X92122383Y-70002400D03*
D21*
X108775266Y-70002400D03*
D22*
X103695266Y-70002400D03*
D21*
X120348149Y-70002400D03*
D22*
X115268149Y-70002400D03*
D21*
X154590500Y-70002400D03*
D22*
X149510500Y-70002400D03*
D21*
X166163383Y-70002400D03*
D22*
X161083383Y-70002400D03*
D21*
X177736266Y-70002400D03*
D22*
X172656266Y-70002400D03*
D21*
X189309149Y-70002400D03*
D22*
X184229149Y-70002400D03*
D21*
X200882032Y-70002400D03*
D22*
X195802032Y-70002400D03*
D21*
X212454915Y-70002400D03*
D22*
X207374915Y-70002400D03*
D21*
X224027798Y-70002400D03*
D22*
X218947798Y-70002400D03*
D21*
X235600681Y-70002400D03*
D22*
X230520681Y-70002400D03*
D21*
X247173564Y-70002400D03*
D22*
X242093564Y-70002400D03*
D21*
X83772351Y-72542400D03*
D22*
X78692351Y-72542400D03*
D21*
X95345234Y-72542400D03*
D22*
X90265234Y-72542400D03*
D21*
X106918117Y-72542400D03*
D22*
X101838117Y-72542400D03*
D21*
X118491000Y-72542400D03*
D22*
X113411000Y-72542400D03*
D21*
X152621830Y-72542400D03*
D22*
X147541830Y-72542400D03*
D21*
X164194713Y-72542400D03*
D22*
X159114713Y-72542400D03*
D21*
X175767596Y-72542400D03*
D22*
X170687596Y-72542400D03*
D21*
X187340479Y-72542400D03*
D22*
X182260479Y-72542400D03*
D21*
X198913362Y-72542400D03*
D22*
X193833362Y-72542400D03*
D21*
X210486245Y-72542400D03*
D22*
X205406245Y-72542400D03*
D21*
X222059128Y-72542400D03*
D22*
X216979128Y-72542400D03*
D21*
X233632011Y-72542400D03*
D22*
X228552011Y-72542400D03*
D21*
X245204894Y-72542400D03*
D22*
X240124894Y-72542400D03*
D21*
X81804579Y-75082400D03*
D22*
X76724579Y-75082400D03*
D21*
X93376500Y-75082400D03*
D22*
X88296500Y-75082400D03*
D21*
X104948421Y-75082400D03*
D22*
X99868421Y-75082400D03*
D21*
X116520342Y-75082400D03*
D22*
X111440342Y-75082400D03*
D21*
X150843830Y-75082400D03*
D22*
X145763830Y-75082400D03*
D21*
X162415751Y-75082400D03*
D22*
X157335751Y-75082400D03*
D21*
X173987672Y-75082400D03*
D22*
X168907672Y-75082400D03*
D21*
X208703435Y-75082400D03*
D22*
X203623435Y-75082400D03*
D21*
X220275356Y-75082400D03*
D22*
X215195356Y-75082400D03*
D21*
X231847277Y-75082400D03*
D22*
X226767277Y-75082400D03*
D21*
X243419198Y-75082400D03*
D22*
X238339198Y-75082400D03*
D27*
X255236125Y-75311000D03*
X250136125Y-75311000D03*
D28*
X66675000Y-58039000D03*
D15*
X66675000Y-60579000D03*
X64135000Y-58039000D03*
X64135000Y-60579000D03*
X61595000Y-58039000D03*
X61595000Y-60579000D03*
D27*
X302251491Y-61158976D03*
D29*
X294631491Y-61158976D03*
D27*
X294631491Y-63697152D03*
D29*
X302251491Y-63697152D03*
D27*
X302251491Y-68773504D03*
D29*
X294631491Y-68773504D03*
D27*
X302251491Y-71311680D03*
D29*
X294631491Y-71311680D03*
D27*
X302251491Y-76388033D03*
D29*
X294631491Y-76388033D03*
D27*
X302251491Y-66235328D03*
D29*
X294631491Y-66235328D03*
D27*
X294631491Y-73849856D03*
D29*
X302251491Y-73849856D03*
D25*
X48159600Y-68915899D03*
X54659600Y-68915899D03*
X54659600Y-73415899D03*
X48159600Y-73415899D03*
D15*
X41592500Y-92392500D03*
X51752500Y-92392500D03*
D14*
X46672500Y-92392500D03*
D16*
X49212500Y-87312500D03*
X42862500Y-89852500D03*
D14*
X84772500Y-92392500D03*
D15*
X79692500Y-92392500D03*
X89852500Y-92392500D03*
D16*
X87312500Y-87312500D03*
X80962500Y-89852500D03*
D14*
X103822500Y-92392500D03*
D15*
X108902500Y-92392500D03*
X98742500Y-92392500D03*
D16*
X106362500Y-87312500D03*
X100012500Y-89852500D03*
D14*
X122872500Y-92392500D03*
D15*
X127952500Y-92392500D03*
X117792500Y-92392500D03*
D16*
X125412500Y-87312500D03*
X119062500Y-89852500D03*
D14*
X141922500Y-92392500D03*
D15*
X147002500Y-92392500D03*
X136842500Y-92392500D03*
D16*
X144462500Y-87312500D03*
X138112500Y-89852500D03*
D15*
X165417500Y-92392500D03*
X175577500Y-92392500D03*
D14*
X170497500Y-92392500D03*
D16*
X173037500Y-87312500D03*
X166687500Y-89852500D03*
D15*
X184467500Y-92392500D03*
X194627500Y-92392500D03*
D14*
X189547500Y-92392500D03*
D16*
X192087500Y-87312500D03*
X185737500Y-89852500D03*
D15*
X213677500Y-92392500D03*
X203517500Y-92392500D03*
D14*
X208597500Y-92392500D03*
D16*
X211137500Y-87312500D03*
X204787500Y-89852500D03*
D14*
X227647500Y-92392500D03*
D15*
X222567500Y-92392500D03*
X232727500Y-92392500D03*
D16*
X230187500Y-87312500D03*
X223837500Y-89852500D03*
D15*
X261302500Y-92392500D03*
X251142500Y-92392500D03*
D14*
X256222500Y-92392500D03*
D16*
X258762500Y-87312500D03*
X252412500Y-89852500D03*
D15*
X280352500Y-92392500D03*
X270192500Y-92392500D03*
D14*
X275272500Y-92392500D03*
D16*
X277812500Y-87312500D03*
X271462500Y-89852500D03*
D14*
X294322500Y-92392500D03*
D15*
X289242500Y-92392500D03*
X299402500Y-92392500D03*
D16*
X296862500Y-87312500D03*
X290512500Y-89852500D03*
D14*
X313372500Y-92392500D03*
D15*
X308292500Y-92392500D03*
X318452500Y-92392500D03*
D16*
X315912500Y-87312500D03*
X309562500Y-89852500D03*
D15*
X332105000Y-92392500D03*
D14*
X337185000Y-92392500D03*
D15*
X342265000Y-92392500D03*
D16*
X339725000Y-87312500D03*
X333375000Y-89852500D03*
D15*
X351155000Y-92392500D03*
X361315000Y-92392500D03*
D14*
X356235000Y-92392500D03*
D16*
X358775000Y-87312500D03*
X352425000Y-89852500D03*
D15*
X380365000Y-92392500D03*
X370205000Y-92392500D03*
D14*
X375285000Y-92392500D03*
D16*
X377825000Y-87312500D03*
X371475000Y-89852500D03*
D15*
X51752500Y-116205000D03*
D14*
X46672500Y-116205000D03*
D15*
X41592500Y-116205000D03*
D16*
X49212500Y-111125000D03*
X42862500Y-113665000D03*
D15*
X89852500Y-116205000D03*
X79692500Y-116205000D03*
D14*
X84772500Y-116205000D03*
D16*
X87312500Y-111125000D03*
X80962500Y-113665000D03*
D14*
X103822500Y-116205000D03*
D15*
X108902500Y-116205000D03*
X98742500Y-116205000D03*
D16*
X106362500Y-111125000D03*
X100012500Y-113665000D03*
D14*
X122872500Y-116205000D03*
D15*
X117792500Y-116205000D03*
X127952500Y-116205000D03*
D16*
X125412500Y-111125000D03*
X119062500Y-113665000D03*
D14*
X141922500Y-116205000D03*
D15*
X147002500Y-116205000D03*
X136842500Y-116205000D03*
D16*
X144462500Y-111125000D03*
X138112500Y-113665000D03*
D15*
X155892500Y-116205000D03*
D14*
X160972500Y-116205000D03*
D15*
X166052500Y-116205000D03*
D16*
X163512500Y-111125000D03*
X157162500Y-113665000D03*
D15*
X185102500Y-116205000D03*
D14*
X180022500Y-116205000D03*
D15*
X174942500Y-116205000D03*
D16*
X182562500Y-111125000D03*
X176212500Y-113665000D03*
D15*
X193992500Y-116205000D03*
D14*
X199072500Y-116205000D03*
D15*
X204152500Y-116205000D03*
D16*
X201612500Y-111125000D03*
X195262500Y-113665000D03*
D15*
X223202500Y-116205000D03*
D14*
X218122500Y-116205000D03*
D15*
X213042500Y-116205000D03*
D16*
X220662500Y-111125000D03*
X214312500Y-113665000D03*
D15*
X232092500Y-116205000D03*
D14*
X237172500Y-116205000D03*
D15*
X242252500Y-116205000D03*
D16*
X239712500Y-111125000D03*
X233362500Y-113665000D03*
D15*
X261302500Y-116205000D03*
D14*
X256222500Y-116205000D03*
D15*
X251142500Y-116205000D03*
D16*
X258762500Y-111125000D03*
X252412500Y-113665000D03*
D15*
X270192500Y-116205000D03*
D14*
X275272500Y-116205000D03*
D15*
X280352500Y-116205000D03*
D16*
X277812500Y-111125000D03*
X271462500Y-113665000D03*
D14*
X315747500Y-124445000D03*
D15*
X308927500Y-116205000D03*
D14*
X303847500Y-116205000D03*
D30*
X291947500Y-109205000D03*
D15*
X298767500Y-116205000D03*
D30*
X315747500Y-109205000D03*
D14*
X291947500Y-124445000D03*
D16*
X306387500Y-111125000D03*
X300037500Y-113665000D03*
D15*
X332105000Y-116205000D03*
D14*
X337185000Y-116205000D03*
D15*
X342265000Y-116205000D03*
D16*
X339725000Y-111125000D03*
X333375000Y-113665000D03*
D15*
X361315000Y-116205000D03*
X351155000Y-116205000D03*
D14*
X356235000Y-116205000D03*
D16*
X358775000Y-111125000D03*
X352425000Y-113665000D03*
D14*
X375285000Y-116205000D03*
D15*
X370205000Y-116205000D03*
X380365000Y-116205000D03*
D16*
X377825000Y-111125000D03*
X371475000Y-113665000D03*
D15*
X56515000Y-135255000D03*
X46355000Y-135255000D03*
D14*
X51435000Y-135255000D03*
D16*
X53975000Y-130175000D03*
X47625000Y-132715000D03*
D15*
X80327500Y-135255000D03*
X70167500Y-135255000D03*
D14*
X75247500Y-135255000D03*
D16*
X77787500Y-130175000D03*
X71437500Y-132715000D03*
D14*
X113347500Y-135255000D03*
D15*
X108267500Y-135255000D03*
X118427500Y-135255000D03*
D16*
X115887500Y-130175000D03*
X109537500Y-132715000D03*
D15*
X127317500Y-135255000D03*
D14*
X132397500Y-135255000D03*
D15*
X137477500Y-135255000D03*
D16*
X134937500Y-130175000D03*
X128587500Y-132715000D03*
D15*
X146367500Y-135255000D03*
D14*
X151447500Y-135255000D03*
D15*
X156527500Y-135255000D03*
D16*
X153987500Y-130175000D03*
X147637500Y-132715000D03*
D14*
X170497500Y-135255000D03*
D15*
X175577500Y-135255000D03*
X165417500Y-135255000D03*
D16*
X173037500Y-130175000D03*
X166687500Y-132715000D03*
D15*
X194627500Y-135255000D03*
D14*
X189547500Y-135255000D03*
D15*
X184467500Y-135255000D03*
D16*
X192087500Y-130175000D03*
X185737500Y-132715000D03*
D15*
X222567500Y-135255000D03*
X232727500Y-135255000D03*
D14*
X227647500Y-135255000D03*
D16*
X230187500Y-130175000D03*
X223837500Y-132715000D03*
D14*
X246697500Y-135255000D03*
D15*
X251777500Y-135255000D03*
X241617500Y-135255000D03*
D16*
X249237500Y-130175000D03*
X242887500Y-132715000D03*
D14*
X265747500Y-135255000D03*
D15*
X270827500Y-135255000D03*
X260667500Y-135255000D03*
D16*
X268287500Y-130175000D03*
X261937500Y-132715000D03*
D14*
X284797500Y-135255000D03*
D15*
X279717500Y-135255000D03*
X289877500Y-135255000D03*
D16*
X287337500Y-130175000D03*
X280987500Y-132715000D03*
D15*
X313690000Y-135255000D03*
D14*
X308610000Y-135255000D03*
D15*
X303530000Y-135255000D03*
D16*
X311150000Y-130175000D03*
X304800000Y-132715000D03*
D15*
X332105000Y-135255000D03*
X342265000Y-135255000D03*
D14*
X337185000Y-135255000D03*
D16*
X339725000Y-130175000D03*
X333375000Y-132715000D03*
D15*
X361315000Y-135255000D03*
X351155000Y-135255000D03*
D14*
X356235000Y-135255000D03*
D16*
X358775000Y-130175000D03*
X352425000Y-132715000D03*
D15*
X380365000Y-135255000D03*
D14*
X375285000Y-135255000D03*
D15*
X370205000Y-135255000D03*
D16*
X377825000Y-130175000D03*
X371475000Y-132715000D03*
D14*
X53816250Y-154305000D03*
D15*
X58896250Y-154305000D03*
X48736250Y-154305000D03*
D16*
X56356250Y-149225000D03*
X50006250Y-151765000D03*
D15*
X43973750Y-154305000D03*
X54133750Y-154305000D03*
D14*
X49053750Y-154305000D03*
D16*
X51593750Y-149225000D03*
X45243750Y-151765000D03*
D14*
X80010000Y-154305000D03*
D15*
X74930000Y-154305000D03*
X85090000Y-154305000D03*
D16*
X82550000Y-149225000D03*
X76200000Y-151765000D03*
D15*
X93980000Y-154305000D03*
X104140000Y-154305000D03*
D14*
X99060000Y-154305000D03*
D16*
X101600000Y-149225000D03*
X95250000Y-151765000D03*
D15*
X113030000Y-154305000D03*
D14*
X118110000Y-154305000D03*
D15*
X123190000Y-154305000D03*
D16*
X120650000Y-149225000D03*
X114300000Y-151765000D03*
D15*
X142240000Y-154305000D03*
X132080000Y-154305000D03*
D14*
X137160000Y-154305000D03*
D16*
X139700000Y-149225000D03*
X133350000Y-151765000D03*
D15*
X151130000Y-154305000D03*
X161290000Y-154305000D03*
D14*
X156210000Y-154305000D03*
D16*
X158750000Y-149225000D03*
X152400000Y-151765000D03*
D14*
X175260000Y-154305000D03*
D15*
X180340000Y-154305000D03*
X170180000Y-154305000D03*
D16*
X177800000Y-149225000D03*
X171450000Y-151765000D03*
D14*
X194310000Y-154305000D03*
D15*
X199390000Y-154305000D03*
X189230000Y-154305000D03*
D16*
X196850000Y-149225000D03*
X190500000Y-151765000D03*
D15*
X218440000Y-154305000D03*
X208280000Y-154305000D03*
D14*
X213360000Y-154305000D03*
D16*
X215900000Y-149225000D03*
X209550000Y-151765000D03*
D14*
X232410000Y-154305000D03*
D15*
X227330000Y-154305000D03*
X237490000Y-154305000D03*
D16*
X234950000Y-149225000D03*
X228600000Y-151765000D03*
D14*
X251460000Y-154305000D03*
D15*
X256540000Y-154305000D03*
X246380000Y-154305000D03*
D16*
X254000000Y-149225000D03*
X247650000Y-151765000D03*
D30*
X46678750Y-166355000D03*
D15*
X63658750Y-173355000D03*
D14*
X58578750Y-173355000D03*
D30*
X70478750Y-166355000D03*
D15*
X53498750Y-173355000D03*
D14*
X46678750Y-181595000D03*
X70478750Y-181595000D03*
D16*
X61118750Y-168275000D03*
X54768750Y-170815000D03*
D15*
X94615000Y-173355000D03*
X84455000Y-173355000D03*
D14*
X89535000Y-173355000D03*
D16*
X92075000Y-168275000D03*
X85725000Y-170815000D03*
D14*
X108585000Y-173355000D03*
D15*
X113665000Y-173355000D03*
X103505000Y-173355000D03*
D16*
X111125000Y-168275000D03*
X104775000Y-170815000D03*
D15*
X132715000Y-173355000D03*
X122555000Y-173355000D03*
D14*
X127635000Y-173355000D03*
D16*
X130175000Y-168275000D03*
X123825000Y-170815000D03*
D14*
X146685000Y-173355000D03*
D15*
X141605000Y-173355000D03*
X151765000Y-173355000D03*
D16*
X149225000Y-168275000D03*
X142875000Y-170815000D03*
D14*
X165735000Y-173355000D03*
D15*
X160655000Y-173355000D03*
X170815000Y-173355000D03*
D16*
X168275000Y-168275000D03*
X161925000Y-170815000D03*
D14*
X184785000Y-173355000D03*
D15*
X179705000Y-173355000D03*
X189865000Y-173355000D03*
D16*
X187325000Y-168275000D03*
X180975000Y-170815000D03*
D15*
X208915000Y-173355000D03*
D14*
X203835000Y-173355000D03*
D15*
X198755000Y-173355000D03*
D16*
X206375000Y-168275000D03*
X200025000Y-170815000D03*
D14*
X222885000Y-173355000D03*
D15*
X227965000Y-173355000D03*
X217805000Y-173355000D03*
D16*
X225425000Y-168275000D03*
X219075000Y-170815000D03*
D15*
X247015000Y-173355000D03*
D14*
X241935000Y-173355000D03*
D15*
X236855000Y-173355000D03*
D16*
X244475000Y-168275000D03*
X238125000Y-170815000D03*
D15*
X361315000Y-173355000D03*
X351155000Y-173355000D03*
D14*
X356235000Y-173355000D03*
D16*
X358775000Y-168275000D03*
X352425000Y-170815000D03*
D14*
X51435000Y-192405000D03*
D15*
X46355000Y-192405000D03*
X56515000Y-192405000D03*
D16*
X53975000Y-187325000D03*
X47625000Y-189865000D03*
D15*
X54133750Y-192405000D03*
X43973750Y-192405000D03*
D14*
X49053750Y-192405000D03*
D16*
X51593750Y-187325000D03*
X45243750Y-189865000D03*
D15*
X67786250Y-192405000D03*
D14*
X72866250Y-192405000D03*
D15*
X77946250Y-192405000D03*
D16*
X75406250Y-187325000D03*
X69056250Y-189865000D03*
D14*
X75247500Y-192405000D03*
D15*
X80327500Y-192405000D03*
X70167500Y-192405000D03*
D16*
X77787500Y-187325000D03*
X71437500Y-189865000D03*
D14*
X99060000Y-192405000D03*
D15*
X104140000Y-192405000D03*
X93980000Y-192405000D03*
D16*
X101600000Y-187325000D03*
X95250000Y-189865000D03*
D14*
X96678750Y-192405000D03*
D15*
X91598750Y-192405000D03*
X101758750Y-192405000D03*
D16*
X99218750Y-187325000D03*
X92868750Y-189865000D03*
D14*
X168116250Y-192405000D03*
D15*
X173196250Y-192405000D03*
X163036250Y-192405000D03*
D16*
X170656250Y-187325000D03*
X164306250Y-189865000D03*
D15*
X185102500Y-192405000D03*
D14*
X180022500Y-192405000D03*
D15*
X174942500Y-192405000D03*
D16*
X182562500Y-187325000D03*
X176212500Y-189865000D03*
D14*
X239553750Y-192405000D03*
D15*
X234473750Y-192405000D03*
X244633750Y-192405000D03*
D16*
X242093750Y-187325000D03*
X235743750Y-189865000D03*
D15*
X332105000Y-192405000D03*
X342265000Y-192405000D03*
D14*
X337185000Y-192405000D03*
D16*
X339725000Y-187325000D03*
X333375000Y-189865000D03*
D14*
X356235000Y-192405000D03*
D15*
X361315000Y-192405000D03*
X351155000Y-192405000D03*
D16*
X358775000Y-187325000D03*
X352425000Y-189865000D03*
D15*
X380365000Y-192405000D03*
D14*
X375285000Y-192405000D03*
D15*
X370205000Y-192405000D03*
D16*
X377825000Y-187325000D03*
X371475000Y-189865000D03*
D31*
X54384600Y-63855600D03*
X53534600Y-63855600D03*
X52684600Y-63855600D03*
X51834600Y-63855600D03*
X50984600Y-63855600D03*
X50134600Y-63855600D03*
X49284600Y-63855600D03*
X48434600Y-63855600D03*
X48429600Y-62530600D03*
X49279600Y-62530600D03*
X50129600Y-62530600D03*
X50979600Y-62530600D03*
X51829600Y-62530600D03*
X52679600Y-62530600D03*
X53529600Y-62530600D03*
X54384600Y-62530600D03*
D32*
X47084600Y-59495600D03*
X55734600Y-59495600D03*
D33*
X47084600Y-62875600D03*
X55734600Y-62875600D03*
D34*
X366121883Y-66279933D03*
X366121883Y-71159933D03*
D24*
X134734300Y-78063500D03*
X287223200Y-78063500D03*
D15*
X279717500Y-192405000D03*
D14*
X284797500Y-192405000D03*
D15*
X289877500Y-192405000D03*
D16*
X287337500Y-187325000D03*
X280987500Y-189865000D03*
D14*
X284803750Y-181601350D03*
D30*
X284803750Y-166361350D03*
D14*
X308603750Y-181601350D03*
D15*
X301783750Y-173361350D03*
D30*
X308603750Y-166361350D03*
D14*
X296703750Y-173361350D03*
D15*
X291623750Y-173361350D03*
D16*
X299243750Y-168281350D03*
X292893750Y-170821350D03*
D14*
X308610000Y-192405000D03*
D15*
X303530000Y-192405000D03*
X313690000Y-192405000D03*
D16*
X311150000Y-187325000D03*
X304800000Y-189865000D03*
D15*
X275590000Y-154305000D03*
X265430000Y-154305000D03*
D14*
X270510000Y-154305000D03*
D16*
X273050000Y-149225000D03*
X266700000Y-151765000D03*
D15*
X255905000Y-173355000D03*
D14*
X260985000Y-173355000D03*
D15*
X266065000Y-173355000D03*
D16*
X263525000Y-168275000D03*
X257175000Y-170815000D03*
D15*
X89217500Y-135255000D03*
X99377500Y-135255000D03*
D14*
X94297500Y-135255000D03*
D16*
X96837500Y-130175000D03*
X90487500Y-132715000D03*
D15*
X258286250Y-192405000D03*
D14*
X263366250Y-192405000D03*
D15*
X268446250Y-192405000D03*
D16*
X265906250Y-187325000D03*
X259556250Y-189865000D03*
D14*
X301466250Y-154305000D03*
D30*
X289566250Y-147305000D03*
D14*
X289566250Y-162545000D03*
D15*
X296386250Y-154305000D03*
X306546250Y-154305000D03*
D14*
X313366250Y-162545000D03*
D30*
X313366250Y-147305000D03*
D16*
X304006250Y-149225000D03*
X297656250Y-151765000D03*
D15*
X305911250Y-192405000D03*
X316071250Y-192405000D03*
D14*
X310991250Y-192405000D03*
D16*
X313531250Y-187325000D03*
X307181250Y-189865000D03*
D14*
X260985000Y-192405000D03*
D15*
X266065000Y-192405000D03*
X255905000Y-192405000D03*
D16*
X263525000Y-187325000D03*
X257175000Y-189865000D03*
D15*
X282098750Y-192405000D03*
D14*
X287178750Y-192405000D03*
D15*
X292258750Y-192405000D03*
D16*
X289718750Y-187325000D03*
X283368750Y-189865000D03*
G36*
X47077329Y-192943372D02*
G01*
X47143378Y-193136282D01*
X47142993Y-193138245D01*
X47141101Y-193138893D01*
X47139853Y-193138085D01*
X47100121Y-193081895D01*
X47035910Y-193055940D01*
X46967662Y-193068858D01*
X46962877Y-193071912D01*
X46960879Y-193072001D01*
X46959803Y-193070315D01*
X46960315Y-193068888D01*
X47073951Y-192942682D01*
X47075853Y-192942064D01*
X47077329Y-192943372D01*
G37*
G36*
X259008579Y-192943372D02*
G01*
X259074628Y-193136282D01*
X259074243Y-193138245D01*
X259072351Y-193138893D01*
X259071103Y-193138085D01*
X259031371Y-193081895D01*
X258967160Y-193055940D01*
X258898912Y-193068858D01*
X258894127Y-193071912D01*
X258892129Y-193072001D01*
X258891053Y-193070315D01*
X258891565Y-193068888D01*
X259005201Y-192942682D01*
X259007103Y-192942064D01*
X259008579Y-192943372D01*
G37*
G36*
X306633579Y-192943372D02*
G01*
X306699628Y-193136282D01*
X306699243Y-193138245D01*
X306697351Y-193138893D01*
X306696103Y-193138085D01*
X306656371Y-193081895D01*
X306592160Y-193055940D01*
X306523912Y-193068858D01*
X306519127Y-193071912D01*
X306517129Y-193072001D01*
X306516053Y-193070315D01*
X306516565Y-193068888D01*
X306630201Y-192942682D01*
X306632103Y-192942064D01*
X306633579Y-192943372D01*
G37*
G36*
X70889829Y-192943372D02*
G01*
X70955878Y-193136282D01*
X70955493Y-193138245D01*
X70953601Y-193138893D01*
X70952353Y-193138085D01*
X70912621Y-193081895D01*
X70848410Y-193055940D01*
X70780162Y-193068858D01*
X70775377Y-193071912D01*
X70773379Y-193072001D01*
X70772303Y-193070315D01*
X70772815Y-193068888D01*
X70886451Y-192942682D01*
X70888353Y-192942064D01*
X70889829Y-192943372D01*
G37*
G36*
X282821079Y-192943372D02*
G01*
X282887128Y-193136282D01*
X282886743Y-193138245D01*
X282884851Y-193138893D01*
X282883603Y-193138085D01*
X282843871Y-193081895D01*
X282779660Y-193055940D01*
X282711412Y-193068858D01*
X282706627Y-193071912D01*
X282704629Y-193072001D01*
X282703553Y-193070315D01*
X282704065Y-193068888D01*
X282817701Y-192942682D01*
X282819603Y-192942064D01*
X282821079Y-192943372D01*
G37*
G36*
X94702329Y-192943372D02*
G01*
X94768378Y-193136282D01*
X94767993Y-193138245D01*
X94766101Y-193138893D01*
X94764853Y-193138085D01*
X94725121Y-193081895D01*
X94660910Y-193055940D01*
X94592662Y-193068858D01*
X94587877Y-193071912D01*
X94585879Y-193072001D01*
X94584803Y-193070315D01*
X94585315Y-193068888D01*
X94698951Y-192942682D01*
X94700853Y-192942064D01*
X94702329Y-192943372D01*
G37*
G36*
X101037780Y-192940440D02*
G01*
X101157227Y-193073100D01*
X101157643Y-193075056D01*
X101156157Y-193076394D01*
X101154926Y-193076265D01*
X101105790Y-193054351D01*
X101037329Y-193064816D01*
X100985245Y-193110764D01*
X100975529Y-193130286D01*
X100973862Y-193131391D01*
X100972071Y-193130500D01*
X100971867Y-193128688D01*
X101021542Y-192997228D01*
X101034344Y-192941331D01*
X101035706Y-192939866D01*
X101037780Y-192940440D01*
G37*
G36*
X77225280Y-192940440D02*
G01*
X77344727Y-193073100D01*
X77345143Y-193075056D01*
X77343657Y-193076394D01*
X77342426Y-193076265D01*
X77293290Y-193054351D01*
X77224829Y-193064816D01*
X77172745Y-193110764D01*
X77163029Y-193130286D01*
X77161362Y-193131391D01*
X77159571Y-193130500D01*
X77159367Y-193128688D01*
X77209042Y-192997228D01*
X77221844Y-192941331D01*
X77223206Y-192939866D01*
X77225280Y-192940440D01*
G37*
G36*
X265344030Y-192940440D02*
G01*
X265463477Y-193073100D01*
X265463893Y-193075056D01*
X265462407Y-193076394D01*
X265461176Y-193076265D01*
X265412040Y-193054351D01*
X265343579Y-193064816D01*
X265291495Y-193110764D01*
X265281779Y-193130286D01*
X265280112Y-193131391D01*
X265278321Y-193130500D01*
X265278117Y-193128688D01*
X265327792Y-192997228D01*
X265340594Y-192941331D01*
X265341956Y-192939866D01*
X265344030Y-192940440D01*
G37*
G36*
X289156530Y-192940440D02*
G01*
X289275977Y-193073100D01*
X289276393Y-193075056D01*
X289274907Y-193076394D01*
X289273676Y-193076265D01*
X289224540Y-193054351D01*
X289156079Y-193064816D01*
X289103995Y-193110764D01*
X289094279Y-193130286D01*
X289092612Y-193131391D01*
X289090821Y-193130500D01*
X289090617Y-193128688D01*
X289140292Y-192997228D01*
X289153094Y-192941331D01*
X289154456Y-192939866D01*
X289156530Y-192940440D01*
G37*
G36*
X312969030Y-192940440D02*
G01*
X313088477Y-193073100D01*
X313088893Y-193075056D01*
X313087407Y-193076394D01*
X313086176Y-193076265D01*
X313037040Y-193054351D01*
X312968579Y-193064816D01*
X312916495Y-193110764D01*
X312906779Y-193130286D01*
X312905112Y-193131391D01*
X312903321Y-193130500D01*
X312903117Y-193128688D01*
X312952792Y-192997228D01*
X312965594Y-192941331D01*
X312966956Y-192939866D01*
X312969030Y-192940440D01*
G37*
G36*
X53412780Y-192940440D02*
G01*
X53532227Y-193073100D01*
X53532643Y-193075056D01*
X53531157Y-193076394D01*
X53529926Y-193076265D01*
X53480790Y-193054351D01*
X53412329Y-193064816D01*
X53360245Y-193110764D01*
X53350529Y-193130286D01*
X53348862Y-193131391D01*
X53347071Y-193130500D01*
X53346867Y-193128688D01*
X53396542Y-192997228D01*
X53409344Y-192941331D01*
X53410706Y-192939866D01*
X53412780Y-192940440D01*
G37*
G36*
X174070861Y-192616184D02*
G01*
X174071277Y-192616904D01*
X174121233Y-192770652D01*
X174201251Y-192909248D01*
X174201251Y-192911248D01*
X174199519Y-192912248D01*
X174197952Y-192911490D01*
X174184086Y-192893995D01*
X174183874Y-192893667D01*
X174177638Y-192881533D01*
X174129703Y-192831132D01*
X174062418Y-192814718D01*
X173996871Y-192837311D01*
X173961055Y-192876938D01*
X173933748Y-192925006D01*
X173933523Y-192925325D01*
X173931323Y-192927873D01*
X173929434Y-192928531D01*
X173927920Y-192927223D01*
X173928077Y-192925566D01*
X174017517Y-192770652D01*
X174067473Y-192616904D01*
X174068959Y-192615566D01*
X174070861Y-192616184D01*
G37*
G36*
X174207675Y-191888196D02*
G01*
X174207528Y-191889880D01*
X174121233Y-192039348D01*
X174071277Y-192193096D01*
X174069791Y-192194434D01*
X174067889Y-192193816D01*
X174067473Y-192193096D01*
X174017517Y-192039348D01*
X173934362Y-191895319D01*
X173934362Y-191893319D01*
X173936094Y-191892319D01*
X173937644Y-191893055D01*
X173947763Y-191905462D01*
X173947979Y-191905787D01*
X173961058Y-191930386D01*
X174009693Y-191980113D01*
X174077200Y-191995585D01*
X174142427Y-191972078D01*
X174177684Y-191931957D01*
X174197813Y-191895342D01*
X174198034Y-191895019D01*
X174204264Y-191887594D01*
X174206143Y-191886910D01*
X174207675Y-191888196D01*
G37*
G36*
X306698335Y-191677970D02*
G01*
X306698560Y-191679782D01*
X306642363Y-191833347D01*
X306634860Y-191867759D01*
X306633514Y-191869238D01*
X306631420Y-191868671D01*
X306512740Y-191736864D01*
X306512324Y-191734908D01*
X306513810Y-191733570D01*
X306515015Y-191733688D01*
X306565865Y-191755520D01*
X306634177Y-191744100D01*
X306685614Y-191697428D01*
X306694881Y-191678226D01*
X306696534Y-191677100D01*
X306698335Y-191677970D01*
G37*
G36*
X47142085Y-191677970D02*
G01*
X47142310Y-191679782D01*
X47086113Y-191833347D01*
X47078610Y-191867759D01*
X47077264Y-191869238D01*
X47075170Y-191868671D01*
X46956490Y-191736864D01*
X46956074Y-191734908D01*
X46957560Y-191733570D01*
X46958765Y-191733688D01*
X47009615Y-191755520D01*
X47077927Y-191744100D01*
X47129364Y-191697428D01*
X47138631Y-191678226D01*
X47140284Y-191677100D01*
X47142085Y-191677970D01*
G37*
G36*
X70954585Y-191677970D02*
G01*
X70954810Y-191679782D01*
X70898613Y-191833347D01*
X70891110Y-191867759D01*
X70889764Y-191869238D01*
X70887670Y-191868671D01*
X70768990Y-191736864D01*
X70768574Y-191734908D01*
X70770060Y-191733570D01*
X70771265Y-191733688D01*
X70822115Y-191755520D01*
X70890427Y-191744100D01*
X70941864Y-191697428D01*
X70951131Y-191678226D01*
X70952784Y-191677100D01*
X70954585Y-191677970D01*
G37*
G36*
X94767085Y-191677970D02*
G01*
X94767310Y-191679782D01*
X94711113Y-191833347D01*
X94703610Y-191867759D01*
X94702264Y-191869238D01*
X94700170Y-191868671D01*
X94581490Y-191736864D01*
X94581074Y-191734908D01*
X94582560Y-191733570D01*
X94583765Y-191733688D01*
X94634615Y-191755520D01*
X94702927Y-191744100D01*
X94754364Y-191697428D01*
X94763631Y-191678226D01*
X94765284Y-191677100D01*
X94767085Y-191677970D01*
G37*
G36*
X282885835Y-191677970D02*
G01*
X282886060Y-191679782D01*
X282829863Y-191833347D01*
X282822360Y-191867759D01*
X282821014Y-191869238D01*
X282818920Y-191868671D01*
X282700240Y-191736864D01*
X282699824Y-191734908D01*
X282701310Y-191733570D01*
X282702515Y-191733688D01*
X282753365Y-191755520D01*
X282821677Y-191744100D01*
X282873114Y-191697428D01*
X282882381Y-191678226D01*
X282884034Y-191677100D01*
X282885835Y-191677970D01*
G37*
G36*
X259073335Y-191677970D02*
G01*
X259073560Y-191679782D01*
X259017363Y-191833347D01*
X259009860Y-191867759D01*
X259008514Y-191869238D01*
X259006420Y-191868671D01*
X258887740Y-191736864D01*
X258887324Y-191734908D01*
X258888810Y-191733570D01*
X258890015Y-191733688D01*
X258940865Y-191755520D01*
X259009177Y-191744100D01*
X259060614Y-191697428D01*
X259069881Y-191678226D01*
X259071534Y-191677100D01*
X259073335Y-191677970D01*
G37*
G36*
X53348999Y-191674175D02*
G01*
X53389318Y-191729947D01*
X53453796Y-191755228D01*
X53521904Y-191741595D01*
X53523864Y-191740310D01*
X53525860Y-191740197D01*
X53526957Y-191741870D01*
X53526446Y-191743321D01*
X53414578Y-191867562D01*
X53412676Y-191868180D01*
X53411190Y-191866842D01*
X53411134Y-191866630D01*
X53408516Y-191853985D01*
X53345493Y-191676015D01*
X53345857Y-191674048D01*
X53347742Y-191673380D01*
X53348999Y-191674175D01*
G37*
G36*
X77161499Y-191674175D02*
G01*
X77201818Y-191729947D01*
X77266296Y-191755228D01*
X77334404Y-191741595D01*
X77336364Y-191740310D01*
X77338360Y-191740197D01*
X77339457Y-191741870D01*
X77338946Y-191743321D01*
X77227078Y-191867562D01*
X77225176Y-191868180D01*
X77223690Y-191866842D01*
X77223634Y-191866630D01*
X77221016Y-191853985D01*
X77157993Y-191676015D01*
X77158357Y-191674048D01*
X77160242Y-191673380D01*
X77161499Y-191674175D01*
G37*
G36*
X100973999Y-191674175D02*
G01*
X101014318Y-191729947D01*
X101078796Y-191755228D01*
X101146904Y-191741595D01*
X101148864Y-191740310D01*
X101150860Y-191740197D01*
X101151957Y-191741870D01*
X101151446Y-191743321D01*
X101039578Y-191867562D01*
X101037676Y-191868180D01*
X101036190Y-191866842D01*
X101036134Y-191866630D01*
X101033516Y-191853985D01*
X100970493Y-191676015D01*
X100970857Y-191674048D01*
X100972742Y-191673380D01*
X100973999Y-191674175D01*
G37*
G36*
X312905249Y-191674175D02*
G01*
X312945568Y-191729947D01*
X313010046Y-191755228D01*
X313078154Y-191741595D01*
X313080114Y-191740310D01*
X313082110Y-191740197D01*
X313083207Y-191741870D01*
X313082696Y-191743321D01*
X312970828Y-191867562D01*
X312968926Y-191868180D01*
X312967440Y-191866842D01*
X312967384Y-191866630D01*
X312964766Y-191853985D01*
X312901743Y-191676015D01*
X312902107Y-191674048D01*
X312903992Y-191673380D01*
X312905249Y-191674175D01*
G37*
G36*
X265280249Y-191674175D02*
G01*
X265320568Y-191729947D01*
X265385046Y-191755228D01*
X265453154Y-191741595D01*
X265455114Y-191740310D01*
X265457110Y-191740197D01*
X265458207Y-191741870D01*
X265457696Y-191743321D01*
X265345828Y-191867562D01*
X265343926Y-191868180D01*
X265342440Y-191866842D01*
X265342384Y-191866630D01*
X265339766Y-191853985D01*
X265276743Y-191676015D01*
X265277107Y-191674048D01*
X265278992Y-191673380D01*
X265280249Y-191674175D01*
G37*
G36*
X289092749Y-191674175D02*
G01*
X289133068Y-191729947D01*
X289197546Y-191755228D01*
X289265654Y-191741595D01*
X289267614Y-191740310D01*
X289269610Y-191740197D01*
X289270707Y-191741870D01*
X289270196Y-191743321D01*
X289158328Y-191867562D01*
X289156426Y-191868180D01*
X289154940Y-191866842D01*
X289154884Y-191866630D01*
X289152266Y-191853985D01*
X289089243Y-191676015D01*
X289089607Y-191674048D01*
X289091492Y-191673380D01*
X289092749Y-191674175D01*
G37*
G36*
X259406280Y-191004162D02*
G01*
X259488504Y-191007393D01*
X259490195Y-191008460D01*
X259490116Y-191010458D01*
X259489876Y-191010768D01*
X259406219Y-191098924D01*
X259353633Y-191172106D01*
X259351810Y-191172929D01*
X259350186Y-191171762D01*
X259350122Y-191170277D01*
X259372907Y-191105344D01*
X259356867Y-191037967D01*
X259306813Y-190989830D01*
X259281888Y-190980132D01*
X259281493Y-190980026D01*
X259280078Y-190978613D01*
X259280595Y-190976680D01*
X259282451Y-190976143D01*
X259406280Y-191004162D01*
G37*
G36*
X47475030Y-191004162D02*
G01*
X47557254Y-191007393D01*
X47558945Y-191008460D01*
X47558866Y-191010458D01*
X47558626Y-191010768D01*
X47474969Y-191098924D01*
X47422383Y-191172106D01*
X47420560Y-191172929D01*
X47418936Y-191171762D01*
X47418872Y-191170277D01*
X47441657Y-191105344D01*
X47425617Y-191037967D01*
X47375563Y-190989830D01*
X47350638Y-190980132D01*
X47350243Y-190980026D01*
X47348828Y-190978613D01*
X47349345Y-190976680D01*
X47351201Y-190976143D01*
X47475030Y-191004162D01*
G37*
G36*
X71287530Y-191004162D02*
G01*
X71369754Y-191007393D01*
X71371445Y-191008460D01*
X71371366Y-191010458D01*
X71371126Y-191010768D01*
X71287469Y-191098924D01*
X71234883Y-191172106D01*
X71233060Y-191172929D01*
X71231436Y-191171762D01*
X71231372Y-191170277D01*
X71254157Y-191105344D01*
X71238117Y-191037967D01*
X71188063Y-190989830D01*
X71163138Y-190980132D01*
X71162743Y-190980026D01*
X71161328Y-190978613D01*
X71161845Y-190976680D01*
X71163701Y-190976143D01*
X71287530Y-191004162D01*
G37*
G36*
X95100030Y-191004162D02*
G01*
X95182254Y-191007393D01*
X95183945Y-191008460D01*
X95183866Y-191010458D01*
X95183626Y-191010768D01*
X95099969Y-191098924D01*
X95047383Y-191172106D01*
X95045560Y-191172929D01*
X95043936Y-191171762D01*
X95043872Y-191170277D01*
X95066657Y-191105344D01*
X95050617Y-191037967D01*
X95000563Y-190989830D01*
X94975638Y-190980132D01*
X94975243Y-190980026D01*
X94973828Y-190978613D01*
X94974345Y-190976680D01*
X94976201Y-190976143D01*
X95100030Y-191004162D01*
G37*
G36*
X307031280Y-191004162D02*
G01*
X307113504Y-191007393D01*
X307115195Y-191008460D01*
X307115116Y-191010458D01*
X307114876Y-191010768D01*
X307031219Y-191098924D01*
X306978633Y-191172106D01*
X306976810Y-191172929D01*
X306975186Y-191171762D01*
X306975122Y-191170277D01*
X306997907Y-191105344D01*
X306981867Y-191037967D01*
X306931813Y-190989830D01*
X306906888Y-190980132D01*
X306906493Y-190980026D01*
X306905078Y-190978613D01*
X306905595Y-190976680D01*
X306907451Y-190976143D01*
X307031280Y-191004162D01*
G37*
G36*
X283218780Y-191004162D02*
G01*
X283301004Y-191007393D01*
X283302695Y-191008460D01*
X283302616Y-191010458D01*
X283302376Y-191010768D01*
X283218719Y-191098924D01*
X283166133Y-191172106D01*
X283164310Y-191172929D01*
X283162686Y-191171762D01*
X283162622Y-191170277D01*
X283185407Y-191105344D01*
X283169367Y-191037967D01*
X283119313Y-190989830D01*
X283094388Y-190980132D01*
X283093993Y-190980026D01*
X283092578Y-190978613D01*
X283093095Y-190976680D01*
X283094951Y-190976143D01*
X283218780Y-191004162D01*
G37*
G36*
X48723777Y-190196967D02*
G01*
X48724205Y-190198804D01*
X48720831Y-190211395D01*
X48722486Y-190280931D01*
X48761306Y-190338286D01*
X48825130Y-190365618D01*
X48853542Y-190365449D01*
X48855280Y-190366439D01*
X48855292Y-190368439D01*
X48853815Y-190369432D01*
X48648750Y-190396429D01*
X48641562Y-190398396D01*
X48639627Y-190397889D01*
X48639099Y-190395960D01*
X48639289Y-190395490D01*
X48674656Y-190332338D01*
X48720379Y-190197643D01*
X48721883Y-190196324D01*
X48723777Y-190196967D01*
G37*
G36*
X308280027Y-190196967D02*
G01*
X308280455Y-190198804D01*
X308277081Y-190211395D01*
X308278736Y-190280931D01*
X308317556Y-190338286D01*
X308381380Y-190365618D01*
X308409792Y-190365449D01*
X308411530Y-190366439D01*
X308411542Y-190368439D01*
X308410065Y-190369432D01*
X308205000Y-190396429D01*
X308197812Y-190398396D01*
X308195877Y-190397889D01*
X308195349Y-190395960D01*
X308195539Y-190395490D01*
X308230906Y-190332338D01*
X308276629Y-190197643D01*
X308278133Y-190196324D01*
X308280027Y-190196967D01*
G37*
G36*
X96348777Y-190196967D02*
G01*
X96349205Y-190198804D01*
X96345831Y-190211395D01*
X96347486Y-190280931D01*
X96386306Y-190338286D01*
X96450130Y-190365618D01*
X96478542Y-190365449D01*
X96480280Y-190366439D01*
X96480292Y-190368439D01*
X96478815Y-190369432D01*
X96273750Y-190396429D01*
X96266562Y-190398396D01*
X96264627Y-190397889D01*
X96264099Y-190395960D01*
X96264289Y-190395490D01*
X96299656Y-190332338D01*
X96345379Y-190197643D01*
X96346883Y-190196324D01*
X96348777Y-190196967D01*
G37*
G36*
X72536277Y-190196967D02*
G01*
X72536705Y-190198804D01*
X72533331Y-190211395D01*
X72534986Y-190280931D01*
X72573806Y-190338286D01*
X72637630Y-190365618D01*
X72666042Y-190365449D01*
X72667780Y-190366439D01*
X72667792Y-190368439D01*
X72666315Y-190369432D01*
X72461250Y-190396429D01*
X72454062Y-190398396D01*
X72452127Y-190397889D01*
X72451599Y-190395960D01*
X72451789Y-190395490D01*
X72487156Y-190332338D01*
X72532879Y-190197643D01*
X72534383Y-190196324D01*
X72536277Y-190196967D01*
G37*
G36*
X284467527Y-190196967D02*
G01*
X284467955Y-190198804D01*
X284464581Y-190211395D01*
X284466236Y-190280931D01*
X284505056Y-190338286D01*
X284568880Y-190365618D01*
X284597292Y-190365449D01*
X284599030Y-190366439D01*
X284599042Y-190368439D01*
X284597565Y-190369432D01*
X284392500Y-190396429D01*
X284385312Y-190398396D01*
X284383377Y-190397889D01*
X284382849Y-190395960D01*
X284383039Y-190395490D01*
X284418406Y-190332338D01*
X284464129Y-190197643D01*
X284465633Y-190196324D01*
X284467527Y-190196967D01*
G37*
G36*
X260655027Y-190196967D02*
G01*
X260655455Y-190198804D01*
X260652081Y-190211395D01*
X260653736Y-190280931D01*
X260692556Y-190338286D01*
X260756380Y-190365618D01*
X260784792Y-190365449D01*
X260786530Y-190366439D01*
X260786542Y-190368439D01*
X260785065Y-190369432D01*
X260580000Y-190396429D01*
X260572812Y-190398396D01*
X260570877Y-190397889D01*
X260570349Y-190395960D01*
X260570539Y-190395490D01*
X260605906Y-190332338D01*
X260651629Y-190197643D01*
X260653133Y-190196324D01*
X260655027Y-190196967D01*
G37*
G36*
X46554984Y-189450015D02*
G01*
X46555256Y-189451755D01*
X46501116Y-189626112D01*
X46476402Y-189834920D01*
X46490155Y-190044746D01*
X46541913Y-190248541D01*
X46584361Y-190340618D01*
X46584178Y-190342609D01*
X46582362Y-190343447D01*
X46580732Y-190342300D01*
X46545972Y-190267757D01*
X46500004Y-190215551D01*
X46433400Y-190196567D01*
X46367096Y-190216609D01*
X46322782Y-190267748D01*
X46310875Y-190293284D01*
X46309236Y-190294431D01*
X46307424Y-190293586D01*
X46307168Y-190291796D01*
X46360996Y-190133225D01*
X46391177Y-189925069D01*
X46392748Y-189865072D01*
X46373501Y-189655612D01*
X46319557Y-189464341D01*
X46320049Y-189462402D01*
X46321974Y-189461860D01*
X46322983Y-189462476D01*
X46368746Y-189514449D01*
X46435350Y-189533433D01*
X46501654Y-189513391D01*
X46545968Y-189462252D01*
X46551533Y-189450317D01*
X46553172Y-189449170D01*
X46554984Y-189450015D01*
G37*
G36*
X70367484Y-189450015D02*
G01*
X70367756Y-189451755D01*
X70313616Y-189626112D01*
X70288902Y-189834920D01*
X70302655Y-190044746D01*
X70354413Y-190248541D01*
X70396861Y-190340618D01*
X70396678Y-190342609D01*
X70394862Y-190343447D01*
X70393232Y-190342300D01*
X70358472Y-190267757D01*
X70312504Y-190215551D01*
X70245900Y-190196567D01*
X70179596Y-190216609D01*
X70135282Y-190267748D01*
X70123375Y-190293284D01*
X70121736Y-190294431D01*
X70119924Y-190293586D01*
X70119668Y-190291796D01*
X70173496Y-190133225D01*
X70203677Y-189925069D01*
X70205248Y-189865072D01*
X70186001Y-189655612D01*
X70132057Y-189464341D01*
X70132549Y-189462402D01*
X70134474Y-189461860D01*
X70135483Y-189462476D01*
X70181246Y-189514449D01*
X70247850Y-189533433D01*
X70314154Y-189513391D01*
X70358468Y-189462252D01*
X70364033Y-189450317D01*
X70365672Y-189449170D01*
X70367484Y-189450015D01*
G37*
G36*
X258486234Y-189450015D02*
G01*
X258486506Y-189451755D01*
X258432366Y-189626112D01*
X258407652Y-189834920D01*
X258421405Y-190044746D01*
X258473163Y-190248541D01*
X258515611Y-190340618D01*
X258515428Y-190342609D01*
X258513612Y-190343447D01*
X258511982Y-190342300D01*
X258477222Y-190267757D01*
X258431254Y-190215551D01*
X258364650Y-190196567D01*
X258298346Y-190216609D01*
X258254032Y-190267748D01*
X258242125Y-190293284D01*
X258240486Y-190294431D01*
X258238674Y-190293586D01*
X258238418Y-190291796D01*
X258292246Y-190133225D01*
X258322427Y-189925069D01*
X258323998Y-189865072D01*
X258304751Y-189655612D01*
X258250807Y-189464341D01*
X258251299Y-189462402D01*
X258253224Y-189461860D01*
X258254233Y-189462476D01*
X258299996Y-189514449D01*
X258366600Y-189533433D01*
X258432904Y-189513391D01*
X258477218Y-189462252D01*
X258482783Y-189450317D01*
X258484422Y-189449170D01*
X258486234Y-189450015D01*
G37*
G36*
X306111234Y-189450015D02*
G01*
X306111506Y-189451755D01*
X306057366Y-189626112D01*
X306032652Y-189834920D01*
X306046405Y-190044746D01*
X306098163Y-190248541D01*
X306140611Y-190340618D01*
X306140428Y-190342609D01*
X306138612Y-190343447D01*
X306136982Y-190342300D01*
X306102222Y-190267757D01*
X306056254Y-190215551D01*
X305989650Y-190196567D01*
X305923346Y-190216609D01*
X305879032Y-190267748D01*
X305867125Y-190293284D01*
X305865486Y-190294431D01*
X305863674Y-190293586D01*
X305863418Y-190291796D01*
X305917246Y-190133225D01*
X305947427Y-189925069D01*
X305948998Y-189865072D01*
X305929751Y-189655612D01*
X305875807Y-189464341D01*
X305876299Y-189462402D01*
X305878224Y-189461860D01*
X305879233Y-189462476D01*
X305924996Y-189514449D01*
X305991600Y-189533433D01*
X306057904Y-189513391D01*
X306102218Y-189462252D01*
X306107783Y-189450317D01*
X306109422Y-189449170D01*
X306111234Y-189450015D01*
G37*
G36*
X282298734Y-189450015D02*
G01*
X282299006Y-189451755D01*
X282244866Y-189626112D01*
X282220152Y-189834920D01*
X282233905Y-190044746D01*
X282285663Y-190248541D01*
X282328111Y-190340618D01*
X282327928Y-190342609D01*
X282326112Y-190343447D01*
X282324482Y-190342300D01*
X282289722Y-190267757D01*
X282243754Y-190215551D01*
X282177150Y-190196567D01*
X282110846Y-190216609D01*
X282066532Y-190267748D01*
X282054625Y-190293284D01*
X282052986Y-190294431D01*
X282051174Y-190293586D01*
X282050918Y-190291796D01*
X282104746Y-190133225D01*
X282134927Y-189925069D01*
X282136498Y-189865072D01*
X282117251Y-189655612D01*
X282063307Y-189464341D01*
X282063799Y-189462402D01*
X282065724Y-189461860D01*
X282066733Y-189462476D01*
X282112496Y-189514449D01*
X282179100Y-189533433D01*
X282245404Y-189513391D01*
X282289718Y-189462252D01*
X282295283Y-189450317D01*
X282296922Y-189449170D01*
X282298734Y-189450015D01*
G37*
G36*
X94179984Y-189450015D02*
G01*
X94180256Y-189451755D01*
X94126116Y-189626112D01*
X94101402Y-189834920D01*
X94115155Y-190044746D01*
X94166913Y-190248541D01*
X94209361Y-190340618D01*
X94209178Y-190342609D01*
X94207362Y-190343447D01*
X94205732Y-190342300D01*
X94170972Y-190267757D01*
X94125004Y-190215551D01*
X94058400Y-190196567D01*
X93992096Y-190216609D01*
X93947782Y-190267748D01*
X93935875Y-190293284D01*
X93934236Y-190294431D01*
X93932424Y-190293586D01*
X93932168Y-190291796D01*
X93985996Y-190133225D01*
X94016177Y-189925069D01*
X94017748Y-189865072D01*
X93998501Y-189655612D01*
X93944557Y-189464341D01*
X93945049Y-189462402D01*
X93946974Y-189461860D01*
X93947983Y-189462476D01*
X93993746Y-189514449D01*
X94060350Y-189533433D01*
X94126654Y-189513391D01*
X94170968Y-189462252D01*
X94176533Y-189450317D01*
X94178172Y-189449170D01*
X94179984Y-189450015D01*
G37*
G36*
X76717484Y-186910015D02*
G01*
X76717756Y-186911755D01*
X76663616Y-187086112D01*
X76638902Y-187294920D01*
X76652655Y-187504746D01*
X76704413Y-187708541D01*
X76746861Y-187800618D01*
X76746678Y-187802609D01*
X76744862Y-187803447D01*
X76743232Y-187802300D01*
X76708472Y-187727757D01*
X76662504Y-187675551D01*
X76595900Y-187656567D01*
X76529596Y-187676609D01*
X76485282Y-187727748D01*
X76473375Y-187753284D01*
X76471736Y-187754431D01*
X76469924Y-187753586D01*
X76469668Y-187751796D01*
X76523496Y-187593225D01*
X76553677Y-187385069D01*
X76555248Y-187325072D01*
X76536001Y-187115612D01*
X76482057Y-186924341D01*
X76482549Y-186922402D01*
X76484474Y-186921860D01*
X76485483Y-186922476D01*
X76531246Y-186974449D01*
X76597850Y-186993433D01*
X76664154Y-186973391D01*
X76708468Y-186922252D01*
X76714033Y-186910317D01*
X76715672Y-186909170D01*
X76717484Y-186910015D01*
G37*
G36*
X52904984Y-186910015D02*
G01*
X52905256Y-186911755D01*
X52851116Y-187086112D01*
X52826402Y-187294920D01*
X52840155Y-187504746D01*
X52891913Y-187708541D01*
X52934361Y-187800618D01*
X52934178Y-187802609D01*
X52932362Y-187803447D01*
X52930732Y-187802300D01*
X52895972Y-187727757D01*
X52850004Y-187675551D01*
X52783400Y-187656567D01*
X52717096Y-187676609D01*
X52672782Y-187727748D01*
X52660875Y-187753284D01*
X52659236Y-187754431D01*
X52657424Y-187753586D01*
X52657168Y-187751796D01*
X52710996Y-187593225D01*
X52741177Y-187385069D01*
X52742748Y-187325072D01*
X52723501Y-187115612D01*
X52669557Y-186924341D01*
X52670049Y-186922402D01*
X52671974Y-186921860D01*
X52672983Y-186922476D01*
X52718746Y-186974449D01*
X52785350Y-186993433D01*
X52851654Y-186973391D01*
X52895968Y-186922252D01*
X52901533Y-186910317D01*
X52903172Y-186909170D01*
X52904984Y-186910015D01*
G37*
G36*
X100529984Y-186910015D02*
G01*
X100530256Y-186911755D01*
X100476116Y-187086112D01*
X100451402Y-187294920D01*
X100465155Y-187504746D01*
X100516913Y-187708541D01*
X100559361Y-187800618D01*
X100559178Y-187802609D01*
X100557362Y-187803447D01*
X100555732Y-187802300D01*
X100520972Y-187727757D01*
X100475004Y-187675551D01*
X100408400Y-187656567D01*
X100342096Y-187676609D01*
X100297782Y-187727748D01*
X100285875Y-187753284D01*
X100284236Y-187754431D01*
X100282424Y-187753586D01*
X100282168Y-187751796D01*
X100335996Y-187593225D01*
X100366177Y-187385069D01*
X100367748Y-187325072D01*
X100348501Y-187115612D01*
X100294557Y-186924341D01*
X100295049Y-186922402D01*
X100296974Y-186921860D01*
X100297983Y-186922476D01*
X100343746Y-186974449D01*
X100410350Y-186993433D01*
X100476654Y-186973391D01*
X100520968Y-186922252D01*
X100526533Y-186910317D01*
X100528172Y-186909170D01*
X100529984Y-186910015D01*
G37*
G36*
X288648734Y-186910015D02*
G01*
X288649006Y-186911755D01*
X288594866Y-187086112D01*
X288570152Y-187294920D01*
X288583905Y-187504746D01*
X288635663Y-187708541D01*
X288678111Y-187800618D01*
X288677928Y-187802609D01*
X288676112Y-187803447D01*
X288674482Y-187802300D01*
X288639722Y-187727757D01*
X288593754Y-187675551D01*
X288527150Y-187656567D01*
X288460846Y-187676609D01*
X288416532Y-187727748D01*
X288404625Y-187753284D01*
X288402986Y-187754431D01*
X288401174Y-187753586D01*
X288400918Y-187751796D01*
X288454746Y-187593225D01*
X288484927Y-187385069D01*
X288486498Y-187325072D01*
X288467251Y-187115612D01*
X288413307Y-186924341D01*
X288413799Y-186922402D01*
X288415724Y-186921860D01*
X288416733Y-186922476D01*
X288462496Y-186974449D01*
X288529100Y-186993433D01*
X288595404Y-186973391D01*
X288639718Y-186922252D01*
X288645283Y-186910317D01*
X288646922Y-186909170D01*
X288648734Y-186910015D01*
G37*
G36*
X264836234Y-186910015D02*
G01*
X264836506Y-186911755D01*
X264782366Y-187086112D01*
X264757652Y-187294920D01*
X264771405Y-187504746D01*
X264823163Y-187708541D01*
X264865611Y-187800618D01*
X264865428Y-187802609D01*
X264863612Y-187803447D01*
X264861982Y-187802300D01*
X264827222Y-187727757D01*
X264781254Y-187675551D01*
X264714650Y-187656567D01*
X264648346Y-187676609D01*
X264604032Y-187727748D01*
X264592125Y-187753284D01*
X264590486Y-187754431D01*
X264588674Y-187753586D01*
X264588418Y-187751796D01*
X264642246Y-187593225D01*
X264672427Y-187385069D01*
X264673998Y-187325072D01*
X264654751Y-187115612D01*
X264600807Y-186924341D01*
X264601299Y-186922402D01*
X264603224Y-186921860D01*
X264604233Y-186922476D01*
X264649996Y-186974449D01*
X264716600Y-186993433D01*
X264782904Y-186973391D01*
X264827218Y-186922252D01*
X264832783Y-186910317D01*
X264834422Y-186909170D01*
X264836234Y-186910015D01*
G37*
G36*
X312461234Y-186910015D02*
G01*
X312461506Y-186911755D01*
X312407366Y-187086112D01*
X312382652Y-187294920D01*
X312396405Y-187504746D01*
X312448163Y-187708541D01*
X312490611Y-187800618D01*
X312490428Y-187802609D01*
X312488612Y-187803447D01*
X312486982Y-187802300D01*
X312452222Y-187727757D01*
X312406254Y-187675551D01*
X312339650Y-187656567D01*
X312273346Y-187676609D01*
X312229032Y-187727748D01*
X312217125Y-187753284D01*
X312215486Y-187754431D01*
X312213674Y-187753586D01*
X312213418Y-187751796D01*
X312267246Y-187593225D01*
X312297427Y-187385069D01*
X312298998Y-187325072D01*
X312279751Y-187115612D01*
X312225807Y-186924341D01*
X312226299Y-186922402D01*
X312228224Y-186921860D01*
X312229233Y-186922476D01*
X312274996Y-186974449D01*
X312341600Y-186993433D01*
X312407904Y-186973391D01*
X312452218Y-186922252D01*
X312457783Y-186910317D01*
X312459422Y-186909170D01*
X312461234Y-186910015D01*
G37*
G36*
X373653807Y-72368113D02*
G01*
X373809719Y-72370562D01*
X373957943Y-72336614D01*
X373959855Y-72337203D01*
X373960302Y-72339152D01*
X373959519Y-72340215D01*
X373914019Y-72371326D01*
X373887059Y-72435120D01*
X373898868Y-72503366D01*
X373945708Y-72554401D01*
X374009708Y-72572205D01*
X374011109Y-72573633D01*
X374010573Y-72575560D01*
X374009172Y-72576132D01*
X373476318Y-72576132D01*
X373474586Y-72575132D01*
X373474586Y-72573132D01*
X373475755Y-72572213D01*
X373542767Y-72552537D01*
X373588122Y-72500194D01*
X373597979Y-72431641D01*
X373569192Y-72368607D01*
X373525870Y-72338559D01*
X373525017Y-72336751D01*
X373526157Y-72335107D01*
X373527518Y-72334981D01*
X373653807Y-72368113D01*
G37*
G36*
X54102108Y-63441612D02*
G01*
X54101783Y-63443486D01*
X54056886Y-63500438D01*
X54016170Y-63616378D01*
X54010600Y-63680692D01*
X54010600Y-64030434D01*
X54030790Y-64151736D01*
X54079174Y-64241407D01*
X54079117Y-64243406D01*
X54077356Y-64244356D01*
X54075899Y-64243663D01*
X54057017Y-64221749D01*
X54056416Y-64222267D01*
X54054451Y-64222640D01*
X54053597Y-64222059D01*
X54025825Y-64189898D01*
X53959406Y-64170271D01*
X53892915Y-64189672D01*
X53861964Y-64224951D01*
X53860070Y-64225593D01*
X53859987Y-64225552D01*
X53820487Y-64270276D01*
X53818591Y-64270912D01*
X53817092Y-64269588D01*
X53817417Y-64267714D01*
X53862314Y-64210762D01*
X53903030Y-64094822D01*
X53908600Y-64030508D01*
X53908600Y-63680766D01*
X53888410Y-63559464D01*
X53840026Y-63469793D01*
X53840083Y-63467794D01*
X53841844Y-63466844D01*
X53843301Y-63467537D01*
X53862183Y-63489451D01*
X53862784Y-63488933D01*
X53864749Y-63488560D01*
X53865603Y-63489141D01*
X53893375Y-63521302D01*
X53959794Y-63540929D01*
X54026285Y-63521528D01*
X54057236Y-63486249D01*
X54059130Y-63485607D01*
X54059213Y-63485648D01*
X54098713Y-63440924D01*
X54100609Y-63440288D01*
X54102108Y-63441612D01*
G37*
G36*
X53252108Y-63441612D02*
G01*
X53251783Y-63443486D01*
X53206886Y-63500438D01*
X53166170Y-63616378D01*
X53160600Y-63680692D01*
X53160600Y-64030434D01*
X53180790Y-64151736D01*
X53229174Y-64241407D01*
X53229117Y-64243406D01*
X53227356Y-64244356D01*
X53225899Y-64243663D01*
X53207017Y-64221749D01*
X53206416Y-64222267D01*
X53204451Y-64222640D01*
X53203597Y-64222059D01*
X53175825Y-64189898D01*
X53109406Y-64170271D01*
X53042915Y-64189672D01*
X53011964Y-64224951D01*
X53010070Y-64225593D01*
X53009987Y-64225552D01*
X52970487Y-64270276D01*
X52968591Y-64270912D01*
X52967092Y-64269588D01*
X52967417Y-64267714D01*
X53012314Y-64210762D01*
X53053030Y-64094822D01*
X53058600Y-64030508D01*
X53058600Y-63680766D01*
X53038410Y-63559464D01*
X52990026Y-63469793D01*
X52990083Y-63467794D01*
X52991844Y-63466844D01*
X52993301Y-63467537D01*
X53012183Y-63489451D01*
X53012784Y-63488933D01*
X53014749Y-63488560D01*
X53015603Y-63489141D01*
X53043375Y-63521302D01*
X53109794Y-63540929D01*
X53176285Y-63521528D01*
X53207236Y-63486249D01*
X53209130Y-63485607D01*
X53209213Y-63485648D01*
X53248713Y-63440924D01*
X53250609Y-63440288D01*
X53252108Y-63441612D01*
G37*
G36*
X49002108Y-63441612D02*
G01*
X49001783Y-63443486D01*
X48956886Y-63500438D01*
X48916170Y-63616378D01*
X48910600Y-63680692D01*
X48910600Y-64030434D01*
X48930790Y-64151736D01*
X48979174Y-64241407D01*
X48979117Y-64243406D01*
X48977356Y-64244356D01*
X48975899Y-64243663D01*
X48957017Y-64221749D01*
X48956416Y-64222267D01*
X48954451Y-64222640D01*
X48953597Y-64222059D01*
X48925825Y-64189898D01*
X48859406Y-64170271D01*
X48792915Y-64189672D01*
X48761964Y-64224951D01*
X48760070Y-64225593D01*
X48759987Y-64225552D01*
X48720487Y-64270276D01*
X48718591Y-64270912D01*
X48717092Y-64269588D01*
X48717417Y-64267714D01*
X48762314Y-64210762D01*
X48803030Y-64094822D01*
X48808600Y-64030508D01*
X48808600Y-63680766D01*
X48788410Y-63559464D01*
X48740026Y-63469793D01*
X48740083Y-63467794D01*
X48741844Y-63466844D01*
X48743301Y-63467537D01*
X48762183Y-63489451D01*
X48762784Y-63488933D01*
X48764749Y-63488560D01*
X48765603Y-63489141D01*
X48793375Y-63521302D01*
X48859794Y-63540929D01*
X48926285Y-63521528D01*
X48957236Y-63486249D01*
X48959130Y-63485607D01*
X48959213Y-63485648D01*
X48998713Y-63440924D01*
X49000609Y-63440288D01*
X49002108Y-63441612D01*
G37*
G36*
X51552108Y-63441612D02*
G01*
X51551783Y-63443486D01*
X51506886Y-63500438D01*
X51466170Y-63616378D01*
X51460600Y-63680692D01*
X51460600Y-64030434D01*
X51480790Y-64151736D01*
X51529174Y-64241407D01*
X51529117Y-64243406D01*
X51527356Y-64244356D01*
X51525899Y-64243663D01*
X51507017Y-64221749D01*
X51506416Y-64222267D01*
X51504451Y-64222640D01*
X51503597Y-64222059D01*
X51475825Y-64189898D01*
X51409406Y-64170271D01*
X51342915Y-64189672D01*
X51311964Y-64224951D01*
X51310070Y-64225593D01*
X51309987Y-64225552D01*
X51270487Y-64270276D01*
X51268591Y-64270912D01*
X51267092Y-64269588D01*
X51267417Y-64267714D01*
X51312314Y-64210762D01*
X51353030Y-64094822D01*
X51358600Y-64030508D01*
X51358600Y-63680766D01*
X51338410Y-63559464D01*
X51290026Y-63469793D01*
X51290083Y-63467794D01*
X51291844Y-63466844D01*
X51293301Y-63467537D01*
X51312183Y-63489451D01*
X51312784Y-63488933D01*
X51314749Y-63488560D01*
X51315603Y-63489141D01*
X51343375Y-63521302D01*
X51409794Y-63540929D01*
X51476285Y-63521528D01*
X51507236Y-63486249D01*
X51509130Y-63485607D01*
X51509213Y-63485648D01*
X51548713Y-63440924D01*
X51550609Y-63440288D01*
X51552108Y-63441612D01*
G37*
G36*
X49852108Y-63441612D02*
G01*
X49851783Y-63443486D01*
X49806886Y-63500438D01*
X49766170Y-63616378D01*
X49760600Y-63680692D01*
X49760600Y-64030434D01*
X49780790Y-64151736D01*
X49829174Y-64241407D01*
X49829117Y-64243406D01*
X49827356Y-64244356D01*
X49825899Y-64243663D01*
X49807017Y-64221749D01*
X49806416Y-64222267D01*
X49804451Y-64222640D01*
X49803597Y-64222059D01*
X49775825Y-64189898D01*
X49709406Y-64170271D01*
X49642915Y-64189672D01*
X49611964Y-64224951D01*
X49610070Y-64225593D01*
X49609987Y-64225552D01*
X49570487Y-64270276D01*
X49568591Y-64270912D01*
X49567092Y-64269588D01*
X49567417Y-64267714D01*
X49612314Y-64210762D01*
X49653030Y-64094822D01*
X49658600Y-64030508D01*
X49658600Y-63680766D01*
X49638410Y-63559464D01*
X49590026Y-63469793D01*
X49590083Y-63467794D01*
X49591844Y-63466844D01*
X49593301Y-63467537D01*
X49612183Y-63489451D01*
X49612784Y-63488933D01*
X49614749Y-63488560D01*
X49615603Y-63489141D01*
X49643375Y-63521302D01*
X49709794Y-63540929D01*
X49776285Y-63521528D01*
X49807236Y-63486249D01*
X49809130Y-63485607D01*
X49809213Y-63485648D01*
X49848713Y-63440924D01*
X49850609Y-63440288D01*
X49852108Y-63441612D01*
G37*
G36*
X52402108Y-63441612D02*
G01*
X52401783Y-63443486D01*
X52356886Y-63500438D01*
X52316170Y-63616378D01*
X52310600Y-63680692D01*
X52310600Y-64030434D01*
X52330790Y-64151736D01*
X52379174Y-64241407D01*
X52379117Y-64243406D01*
X52377356Y-64244356D01*
X52375899Y-64243663D01*
X52357017Y-64221749D01*
X52356416Y-64222267D01*
X52354451Y-64222640D01*
X52353597Y-64222059D01*
X52325825Y-64189898D01*
X52259406Y-64170271D01*
X52192915Y-64189672D01*
X52161964Y-64224951D01*
X52160070Y-64225593D01*
X52159987Y-64225552D01*
X52120487Y-64270276D01*
X52118591Y-64270912D01*
X52117092Y-64269588D01*
X52117417Y-64267714D01*
X52162314Y-64210762D01*
X52203030Y-64094822D01*
X52208600Y-64030508D01*
X52208600Y-63680766D01*
X52188410Y-63559464D01*
X52140026Y-63469793D01*
X52140083Y-63467794D01*
X52141844Y-63466844D01*
X52143301Y-63467537D01*
X52162183Y-63489451D01*
X52162784Y-63488933D01*
X52164749Y-63488560D01*
X52165603Y-63489141D01*
X52193375Y-63521302D01*
X52259794Y-63540929D01*
X52326285Y-63521528D01*
X52357236Y-63486249D01*
X52359130Y-63485607D01*
X52359213Y-63485648D01*
X52398713Y-63440924D01*
X52400609Y-63440288D01*
X52402108Y-63441612D01*
G37*
G36*
X50702108Y-63441612D02*
G01*
X50701783Y-63443486D01*
X50656886Y-63500438D01*
X50616170Y-63616378D01*
X50610600Y-63680692D01*
X50610600Y-64030434D01*
X50630790Y-64151736D01*
X50679174Y-64241407D01*
X50679117Y-64243406D01*
X50677356Y-64244356D01*
X50675899Y-64243663D01*
X50657017Y-64221749D01*
X50656416Y-64222267D01*
X50654451Y-64222640D01*
X50653597Y-64222059D01*
X50625825Y-64189898D01*
X50559406Y-64170271D01*
X50492915Y-64189672D01*
X50461964Y-64224951D01*
X50460070Y-64225593D01*
X50459987Y-64225552D01*
X50420487Y-64270276D01*
X50418591Y-64270912D01*
X50417092Y-64269588D01*
X50417417Y-64267714D01*
X50462314Y-64210762D01*
X50503030Y-64094822D01*
X50508600Y-64030508D01*
X50508600Y-63680766D01*
X50488410Y-63559464D01*
X50440026Y-63469793D01*
X50440083Y-63467794D01*
X50441844Y-63466844D01*
X50443301Y-63467537D01*
X50462183Y-63489451D01*
X50462784Y-63488933D01*
X50464749Y-63488560D01*
X50465603Y-63489141D01*
X50493375Y-63521302D01*
X50559794Y-63540929D01*
X50626285Y-63521528D01*
X50657236Y-63486249D01*
X50659130Y-63485607D01*
X50659213Y-63485648D01*
X50698713Y-63440924D01*
X50700609Y-63440288D01*
X50702108Y-63441612D01*
G37*
G36*
X52397108Y-62116612D02*
G01*
X52396783Y-62118486D01*
X52351886Y-62175438D01*
X52311170Y-62291378D01*
X52305600Y-62355692D01*
X52305600Y-62705434D01*
X52325790Y-62826736D01*
X52374174Y-62916407D01*
X52374117Y-62918406D01*
X52372356Y-62919356D01*
X52370899Y-62918663D01*
X52352017Y-62896749D01*
X52351416Y-62897267D01*
X52349451Y-62897640D01*
X52348597Y-62897059D01*
X52320825Y-62864898D01*
X52254406Y-62845271D01*
X52187915Y-62864672D01*
X52156964Y-62899951D01*
X52155070Y-62900593D01*
X52154987Y-62900552D01*
X52115487Y-62945276D01*
X52113591Y-62945912D01*
X52112092Y-62944588D01*
X52112417Y-62942714D01*
X52157314Y-62885762D01*
X52198030Y-62769822D01*
X52203600Y-62705508D01*
X52203600Y-62355766D01*
X52183410Y-62234464D01*
X52135026Y-62144793D01*
X52135083Y-62142794D01*
X52136844Y-62141844D01*
X52138301Y-62142537D01*
X52157183Y-62164451D01*
X52157784Y-62163933D01*
X52159749Y-62163560D01*
X52160603Y-62164141D01*
X52188375Y-62196302D01*
X52254794Y-62215929D01*
X52321285Y-62196528D01*
X52352236Y-62161249D01*
X52354130Y-62160607D01*
X52354213Y-62160648D01*
X52393713Y-62115924D01*
X52395609Y-62115288D01*
X52397108Y-62116612D01*
G37*
G36*
X48997108Y-62116612D02*
G01*
X48996783Y-62118486D01*
X48951886Y-62175438D01*
X48911170Y-62291378D01*
X48905600Y-62355692D01*
X48905600Y-62705434D01*
X48925790Y-62826736D01*
X48974174Y-62916407D01*
X48974117Y-62918406D01*
X48972356Y-62919356D01*
X48970899Y-62918663D01*
X48952017Y-62896749D01*
X48951416Y-62897267D01*
X48949451Y-62897640D01*
X48948597Y-62897059D01*
X48920825Y-62864898D01*
X48854406Y-62845271D01*
X48787915Y-62864672D01*
X48756964Y-62899951D01*
X48755070Y-62900593D01*
X48754987Y-62900552D01*
X48715487Y-62945276D01*
X48713591Y-62945912D01*
X48712092Y-62944588D01*
X48712417Y-62942714D01*
X48757314Y-62885762D01*
X48798030Y-62769822D01*
X48803600Y-62705508D01*
X48803600Y-62355766D01*
X48783410Y-62234464D01*
X48735026Y-62144793D01*
X48735083Y-62142794D01*
X48736844Y-62141844D01*
X48738301Y-62142537D01*
X48757183Y-62164451D01*
X48757784Y-62163933D01*
X48759749Y-62163560D01*
X48760603Y-62164141D01*
X48788375Y-62196302D01*
X48854794Y-62215929D01*
X48921285Y-62196528D01*
X48952236Y-62161249D01*
X48954130Y-62160607D01*
X48954213Y-62160648D01*
X48993713Y-62115924D01*
X48995609Y-62115288D01*
X48997108Y-62116612D01*
G37*
G36*
X51547108Y-62116612D02*
G01*
X51546783Y-62118486D01*
X51501886Y-62175438D01*
X51461170Y-62291378D01*
X51455600Y-62355692D01*
X51455600Y-62705434D01*
X51475790Y-62826736D01*
X51524174Y-62916407D01*
X51524117Y-62918406D01*
X51522356Y-62919356D01*
X51520899Y-62918663D01*
X51502017Y-62896749D01*
X51501416Y-62897267D01*
X51499451Y-62897640D01*
X51498597Y-62897059D01*
X51470825Y-62864898D01*
X51404406Y-62845271D01*
X51337915Y-62864672D01*
X51306964Y-62899951D01*
X51305070Y-62900593D01*
X51304987Y-62900552D01*
X51265487Y-62945276D01*
X51263591Y-62945912D01*
X51262092Y-62944588D01*
X51262417Y-62942714D01*
X51307314Y-62885762D01*
X51348030Y-62769822D01*
X51353600Y-62705508D01*
X51353600Y-62355766D01*
X51333410Y-62234464D01*
X51285026Y-62144793D01*
X51285083Y-62142794D01*
X51286844Y-62141844D01*
X51288301Y-62142537D01*
X51307183Y-62164451D01*
X51307784Y-62163933D01*
X51309749Y-62163560D01*
X51310603Y-62164141D01*
X51338375Y-62196302D01*
X51404794Y-62215929D01*
X51471285Y-62196528D01*
X51502236Y-62161249D01*
X51504130Y-62160607D01*
X51504213Y-62160648D01*
X51543713Y-62115924D01*
X51545609Y-62115288D01*
X51547108Y-62116612D01*
G37*
G36*
X49847108Y-62116612D02*
G01*
X49846783Y-62118486D01*
X49801886Y-62175438D01*
X49761170Y-62291378D01*
X49755600Y-62355692D01*
X49755600Y-62705434D01*
X49775790Y-62826736D01*
X49824174Y-62916407D01*
X49824117Y-62918406D01*
X49822356Y-62919356D01*
X49820899Y-62918663D01*
X49802017Y-62896749D01*
X49801416Y-62897267D01*
X49799451Y-62897640D01*
X49798597Y-62897059D01*
X49770825Y-62864898D01*
X49704406Y-62845271D01*
X49637915Y-62864672D01*
X49606964Y-62899951D01*
X49605070Y-62900593D01*
X49604987Y-62900552D01*
X49565487Y-62945276D01*
X49563591Y-62945912D01*
X49562092Y-62944588D01*
X49562417Y-62942714D01*
X49607314Y-62885762D01*
X49648030Y-62769822D01*
X49653600Y-62705508D01*
X49653600Y-62355766D01*
X49633410Y-62234464D01*
X49585026Y-62144793D01*
X49585083Y-62142794D01*
X49586844Y-62141844D01*
X49588301Y-62142537D01*
X49607183Y-62164451D01*
X49607784Y-62163933D01*
X49609749Y-62163560D01*
X49610603Y-62164141D01*
X49638375Y-62196302D01*
X49704794Y-62215929D01*
X49771285Y-62196528D01*
X49802236Y-62161249D01*
X49804130Y-62160607D01*
X49804213Y-62160648D01*
X49843713Y-62115924D01*
X49845609Y-62115288D01*
X49847108Y-62116612D01*
G37*
G36*
X50697108Y-62116612D02*
G01*
X50696783Y-62118486D01*
X50651886Y-62175438D01*
X50611170Y-62291378D01*
X50605600Y-62355692D01*
X50605600Y-62705434D01*
X50625790Y-62826736D01*
X50674174Y-62916407D01*
X50674117Y-62918406D01*
X50672356Y-62919356D01*
X50670899Y-62918663D01*
X50652017Y-62896749D01*
X50651416Y-62897267D01*
X50649451Y-62897640D01*
X50648597Y-62897059D01*
X50620825Y-62864898D01*
X50554406Y-62845271D01*
X50487915Y-62864672D01*
X50456964Y-62899951D01*
X50455070Y-62900593D01*
X50454987Y-62900552D01*
X50415487Y-62945276D01*
X50413591Y-62945912D01*
X50412092Y-62944588D01*
X50412417Y-62942714D01*
X50457314Y-62885762D01*
X50498030Y-62769822D01*
X50503600Y-62705508D01*
X50503600Y-62355766D01*
X50483410Y-62234464D01*
X50435026Y-62144793D01*
X50435083Y-62142794D01*
X50436844Y-62141844D01*
X50438301Y-62142537D01*
X50457183Y-62164451D01*
X50457784Y-62163933D01*
X50459749Y-62163560D01*
X50460603Y-62164141D01*
X50488375Y-62196302D01*
X50554794Y-62215929D01*
X50621285Y-62196528D01*
X50652236Y-62161249D01*
X50654130Y-62160607D01*
X50654213Y-62160648D01*
X50693713Y-62115924D01*
X50695609Y-62115288D01*
X50697108Y-62116612D01*
G37*
G36*
X53247108Y-62116612D02*
G01*
X53246783Y-62118486D01*
X53201886Y-62175438D01*
X53161170Y-62291378D01*
X53155600Y-62355692D01*
X53155600Y-62705434D01*
X53175790Y-62826736D01*
X53224174Y-62916407D01*
X53224117Y-62918406D01*
X53222356Y-62919356D01*
X53220899Y-62918663D01*
X53202017Y-62896749D01*
X53201416Y-62897267D01*
X53199451Y-62897640D01*
X53198597Y-62897059D01*
X53170825Y-62864898D01*
X53104406Y-62845271D01*
X53037915Y-62864672D01*
X53006964Y-62899951D01*
X53005070Y-62900593D01*
X53004987Y-62900552D01*
X52965487Y-62945276D01*
X52963591Y-62945912D01*
X52962092Y-62944588D01*
X52962417Y-62942714D01*
X53007314Y-62885762D01*
X53048030Y-62769822D01*
X53053600Y-62705508D01*
X53053600Y-62355766D01*
X53033410Y-62234464D01*
X52985026Y-62144793D01*
X52985083Y-62142794D01*
X52986844Y-62141844D01*
X52988301Y-62142537D01*
X53007183Y-62164451D01*
X53007784Y-62163933D01*
X53009749Y-62163560D01*
X53010603Y-62164141D01*
X53038375Y-62196302D01*
X53104794Y-62215929D01*
X53171285Y-62196528D01*
X53202236Y-62161249D01*
X53204130Y-62160607D01*
X53204213Y-62160648D01*
X53243713Y-62115924D01*
X53245609Y-62115288D01*
X53247108Y-62116612D01*
G37*
G36*
X54102106Y-62116614D02*
G01*
X54101781Y-62118488D01*
X54056886Y-62175438D01*
X54016170Y-62291378D01*
X54010600Y-62355692D01*
X54010600Y-62705434D01*
X54030790Y-62826736D01*
X54079174Y-62916407D01*
X54079117Y-62918406D01*
X54077356Y-62919356D01*
X54075899Y-62918663D01*
X54056685Y-62896364D01*
X54055721Y-62896547D01*
X54054866Y-62895966D01*
X54023362Y-62859486D01*
X53956942Y-62839861D01*
X53890452Y-62859264D01*
X53845278Y-62910756D01*
X53844609Y-62912180D01*
X53844298Y-62912654D01*
X53815489Y-62945274D01*
X53813593Y-62945910D01*
X53812094Y-62944586D01*
X53812419Y-62942712D01*
X53857314Y-62885762D01*
X53898030Y-62769822D01*
X53903600Y-62705508D01*
X53903600Y-62355766D01*
X53883410Y-62234464D01*
X53835026Y-62144793D01*
X53835083Y-62142794D01*
X53836844Y-62141844D01*
X53838301Y-62142537D01*
X53857515Y-62164836D01*
X53858479Y-62164653D01*
X53859334Y-62165234D01*
X53890838Y-62201714D01*
X53957258Y-62221339D01*
X54023748Y-62201936D01*
X54068922Y-62150444D01*
X54069591Y-62149020D01*
X54069902Y-62148546D01*
X54098711Y-62115926D01*
X54100607Y-62115290D01*
X54102106Y-62116614D01*
G37*
M02*
