G04 #@! TF.GenerationSoftware,KiCad,Pcbnew,(6.0.1)*
G04 #@! TF.CreationDate,2022-07-06T22:25:25-07:00*
G04 #@! TF.ProjectId,mysterium-pcb,6d797374-6572-4697-956d-2d7063622e6b,rev?*
G04 #@! TF.SameCoordinates,Original*
G04 #@! TF.FileFunction,Legend,Top*
G04 #@! TF.FilePolarity,Positive*
%FSLAX46Y46*%
G04 Gerber Fmt 4.6, Leading zero omitted, Abs format (unit mm)*
G04 Created by KiCad (PCBNEW (6.0.1)) date 2022-07-06 22:25:25*
%MOMM*%
%LPD*%
G01*
G04 APERTURE LIST*
G04 #@! TA.AperFunction,Profile*
%ADD10C,0.150000*%
G04 #@! TD*
%ADD11C,0.150000*%
%ADD12C,0.100000*%
%ADD13C,0.120000*%
%ADD14C,0.200000*%
%ADD15C,0.203200*%
G04 APERTURE END LIST*
D10*
X40451560Y-55313500D02*
G75*
G03*
X37147501Y-58623559I2999J-3307058D01*
G01*
X384810000Y-58617560D02*
G75*
G03*
X381499941Y-55313501I-3307058J-2999D01*
G01*
X381505940Y-201930000D02*
G75*
G03*
X384809999Y-198619941I-2999J3307058D01*
G01*
X384810000Y-58617560D02*
X384809999Y-198619941D01*
X37147500Y-198625940D02*
X37147501Y-58623559D01*
X37147500Y-198625940D02*
G75*
G03*
X40457559Y-201929999I3307058J2999D01*
G01*
X40451560Y-55313500D02*
X381499941Y-55313500D01*
X381505940Y-201930000D02*
X40457559Y-201929999D01*
D11*
X327744061Y-71040111D02*
X327648823Y-71087730D01*
X327458346Y-71087730D01*
X327363108Y-71040111D01*
X327315489Y-70944873D01*
X327315489Y-70563921D01*
X327363108Y-70468683D01*
X327458346Y-70421064D01*
X327648823Y-70421064D01*
X327744061Y-70468683D01*
X327791680Y-70563921D01*
X327791680Y-70659159D01*
X327315489Y-70754397D01*
X328363108Y-71087730D02*
X328267870Y-71040111D01*
X328220251Y-70944873D01*
X328220251Y-70087730D01*
X328744061Y-71087730D02*
X328744061Y-70421064D01*
X328744061Y-70087730D02*
X328696442Y-70135350D01*
X328744061Y-70182969D01*
X328791680Y-70135350D01*
X328744061Y-70087730D01*
X328744061Y-70182969D01*
X329648823Y-71087730D02*
X329648823Y-70563921D01*
X329601204Y-70468683D01*
X329505965Y-70421064D01*
X329315489Y-70421064D01*
X329220251Y-70468683D01*
X329648823Y-71040111D02*
X329553584Y-71087730D01*
X329315489Y-71087730D01*
X329220251Y-71040111D01*
X329172632Y-70944873D01*
X329172632Y-70849635D01*
X329220251Y-70754397D01*
X329315489Y-70706778D01*
X329553584Y-70706778D01*
X329648823Y-70659159D01*
X330077394Y-71040111D02*
X330172632Y-71087730D01*
X330363108Y-71087730D01*
X330458346Y-71040111D01*
X330505965Y-70944873D01*
X330505965Y-70897254D01*
X330458346Y-70802016D01*
X330363108Y-70754397D01*
X330220251Y-70754397D01*
X330125013Y-70706778D01*
X330077394Y-70611540D01*
X330077394Y-70563921D01*
X330125013Y-70468683D01*
X330220251Y-70421064D01*
X330363108Y-70421064D01*
X330458346Y-70468683D01*
X330934537Y-71087730D02*
X330934537Y-70087730D01*
X331029775Y-70706778D02*
X331315489Y-71087730D01*
X331315489Y-70421064D02*
X330934537Y-70802016D01*
X331886918Y-71087730D02*
X331791680Y-71040111D01*
X331744061Y-70992492D01*
X331696442Y-70897254D01*
X331696442Y-70611540D01*
X331744061Y-70516302D01*
X331791680Y-70468683D01*
X331886918Y-70421064D01*
X332029775Y-70421064D01*
X332125013Y-70468683D01*
X332172632Y-70516302D01*
X332220251Y-70611540D01*
X332220251Y-70897254D01*
X332172632Y-70992492D01*
X332125013Y-71040111D01*
X332029775Y-71087730D01*
X331886918Y-71087730D01*
X333077394Y-70421064D02*
X333077394Y-71087730D01*
X332648823Y-70421064D02*
X332648823Y-70944873D01*
X332696442Y-71040111D01*
X332791680Y-71087730D01*
X332934537Y-71087730D01*
X333029775Y-71040111D01*
X333077394Y-70992492D01*
X333553584Y-70421064D02*
X333553584Y-71087730D01*
X333553584Y-70516302D02*
X333601204Y-70468683D01*
X333696442Y-70421064D01*
X333839299Y-70421064D01*
X333934537Y-70468683D01*
X333982156Y-70563921D01*
X333982156Y-71087730D01*
X334315489Y-70421064D02*
X334696442Y-70421064D01*
X334458346Y-70087730D02*
X334458346Y-70944873D01*
X334505965Y-71040111D01*
X334601204Y-71087730D01*
X334696442Y-71087730D01*
X335172632Y-71087730D02*
X335077394Y-71040111D01*
X335029775Y-70992492D01*
X334982156Y-70897254D01*
X334982156Y-70611540D01*
X335029775Y-70516302D01*
X335077394Y-70468683D01*
X335172632Y-70421064D01*
X335315489Y-70421064D01*
X335410727Y-70468683D01*
X335458346Y-70516302D01*
X335505965Y-70611540D01*
X335505965Y-70897254D01*
X335458346Y-70992492D01*
X335410727Y-71040111D01*
X335315489Y-71087730D01*
X335172632Y-71087730D01*
X336363108Y-70421064D02*
X336363108Y-71087730D01*
X335934537Y-70421064D02*
X335934537Y-70944873D01*
X335982156Y-71040111D01*
X336077394Y-71087730D01*
X336220251Y-71087730D01*
X336315489Y-71040111D01*
X336363108Y-70992492D01*
X336839299Y-71087730D02*
X336839299Y-70421064D01*
X336839299Y-70611540D02*
X336886918Y-70516302D01*
X336934537Y-70468683D01*
X337029775Y-70421064D01*
X337125013Y-70421064D01*
X337458346Y-71087730D02*
X337458346Y-70421064D01*
X337458346Y-70087730D02*
X337410727Y-70135350D01*
X337458346Y-70182969D01*
X337505965Y-70135350D01*
X337458346Y-70087730D01*
X337458346Y-70182969D01*
X337886918Y-71040111D02*
X337982156Y-71087730D01*
X338172632Y-71087730D01*
X338267870Y-71040111D01*
X338315489Y-70944873D01*
X338315489Y-70897254D01*
X338267870Y-70802016D01*
X338172632Y-70754397D01*
X338029775Y-70754397D01*
X337934537Y-70706778D01*
X337886918Y-70611540D01*
X337886918Y-70563921D01*
X337934537Y-70468683D01*
X338029775Y-70421064D01*
X338172632Y-70421064D01*
X338267870Y-70468683D01*
X338744061Y-70992492D02*
X338791680Y-71040111D01*
X338744061Y-71087730D01*
X338696442Y-71040111D01*
X338744061Y-70992492D01*
X338744061Y-71087730D01*
X339648823Y-71040111D02*
X339553584Y-71087730D01*
X339363108Y-71087730D01*
X339267870Y-71040111D01*
X339220251Y-70992492D01*
X339172632Y-70897254D01*
X339172632Y-70611540D01*
X339220251Y-70516302D01*
X339267870Y-70468683D01*
X339363108Y-70421064D01*
X339553584Y-70421064D01*
X339648823Y-70468683D01*
X340220251Y-71087730D02*
X340125013Y-71040111D01*
X340077394Y-70992492D01*
X340029775Y-70897254D01*
X340029775Y-70611540D01*
X340077394Y-70516302D01*
X340125013Y-70468683D01*
X340220251Y-70421064D01*
X340363108Y-70421064D01*
X340458346Y-70468683D01*
X340505965Y-70516302D01*
X340553584Y-70611540D01*
X340553584Y-70897254D01*
X340505965Y-70992492D01*
X340458346Y-71040111D01*
X340363108Y-71087730D01*
X340220251Y-71087730D01*
X340982156Y-71087730D02*
X340982156Y-70421064D01*
X340982156Y-70516302D02*
X341029775Y-70468683D01*
X341125013Y-70421064D01*
X341267870Y-70421064D01*
X341363108Y-70468683D01*
X341410727Y-70563921D01*
X341410727Y-71087730D01*
X341410727Y-70563921D02*
X341458346Y-70468683D01*
X341553584Y-70421064D01*
X341696442Y-70421064D01*
X341791680Y-70468683D01*
X341839299Y-70563921D01*
X341839299Y-71087730D01*
X327529775Y-68912921D02*
X327672632Y-68960540D01*
X327720251Y-69008159D01*
X327767870Y-69103397D01*
X327767870Y-69246254D01*
X327720251Y-69341492D01*
X327672632Y-69389111D01*
X327577394Y-69436730D01*
X327196442Y-69436730D01*
X327196442Y-68436730D01*
X327529775Y-68436730D01*
X327625013Y-68484350D01*
X327672632Y-68531969D01*
X327720251Y-68627207D01*
X327720251Y-68722445D01*
X327672632Y-68817683D01*
X327625013Y-68865302D01*
X327529775Y-68912921D01*
X327196442Y-68912921D01*
X328625013Y-69436730D02*
X328625013Y-68912921D01*
X328577394Y-68817683D01*
X328482156Y-68770064D01*
X328291680Y-68770064D01*
X328196442Y-68817683D01*
X328625013Y-69389111D02*
X328529775Y-69436730D01*
X328291680Y-69436730D01*
X328196442Y-69389111D01*
X328148823Y-69293873D01*
X328148823Y-69198635D01*
X328196442Y-69103397D01*
X328291680Y-69055778D01*
X328529775Y-69055778D01*
X328625013Y-69008159D01*
X329053584Y-69389111D02*
X329148823Y-69436730D01*
X329339299Y-69436730D01*
X329434537Y-69389111D01*
X329482156Y-69293873D01*
X329482156Y-69246254D01*
X329434537Y-69151016D01*
X329339299Y-69103397D01*
X329196442Y-69103397D01*
X329101204Y-69055778D01*
X329053584Y-68960540D01*
X329053584Y-68912921D01*
X329101204Y-68817683D01*
X329196442Y-68770064D01*
X329339299Y-68770064D01*
X329434537Y-68817683D01*
X330291680Y-69389111D02*
X330196442Y-69436730D01*
X330005965Y-69436730D01*
X329910727Y-69389111D01*
X329863108Y-69293873D01*
X329863108Y-68912921D01*
X329910727Y-68817683D01*
X330005965Y-68770064D01*
X330196442Y-68770064D01*
X330291680Y-68817683D01*
X330339299Y-68912921D01*
X330339299Y-69008159D01*
X329863108Y-69103397D01*
X331196442Y-69436730D02*
X331196442Y-68436730D01*
X331196442Y-69389111D02*
X331101204Y-69436730D01*
X330910727Y-69436730D01*
X330815489Y-69389111D01*
X330767870Y-69341492D01*
X330720251Y-69246254D01*
X330720251Y-68960540D01*
X330767870Y-68865302D01*
X330815489Y-68817683D01*
X330910727Y-68770064D01*
X331101204Y-68770064D01*
X331196442Y-68817683D01*
X332577394Y-69436730D02*
X332482156Y-69389111D01*
X332434537Y-69341492D01*
X332386918Y-69246254D01*
X332386918Y-68960540D01*
X332434537Y-68865302D01*
X332482156Y-68817683D01*
X332577394Y-68770064D01*
X332720251Y-68770064D01*
X332815489Y-68817683D01*
X332863108Y-68865302D01*
X332910727Y-68960540D01*
X332910727Y-69246254D01*
X332863108Y-69341492D01*
X332815489Y-69389111D01*
X332720251Y-69436730D01*
X332577394Y-69436730D01*
X333339299Y-68770064D02*
X333339299Y-69436730D01*
X333339299Y-68865302D02*
X333386918Y-68817683D01*
X333482156Y-68770064D01*
X333625013Y-68770064D01*
X333720251Y-68817683D01*
X333767870Y-68912921D01*
X333767870Y-69436730D01*
X335005965Y-69436730D02*
X335005965Y-68436730D01*
X335339299Y-69151016D01*
X335672632Y-68436730D01*
X335672632Y-69436730D01*
X336053584Y-68770064D02*
X336291680Y-69436730D01*
X336529775Y-68770064D02*
X336291680Y-69436730D01*
X336196442Y-69674826D01*
X336148823Y-69722445D01*
X336053584Y-69770064D01*
X336863108Y-69389111D02*
X336958346Y-69436730D01*
X337148823Y-69436730D01*
X337244061Y-69389111D01*
X337291680Y-69293873D01*
X337291680Y-69246254D01*
X337244061Y-69151016D01*
X337148823Y-69103397D01*
X337005965Y-69103397D01*
X336910727Y-69055778D01*
X336863108Y-68960540D01*
X336863108Y-68912921D01*
X336910727Y-68817683D01*
X337005965Y-68770064D01*
X337148823Y-68770064D01*
X337244061Y-68817683D01*
X337577394Y-68770064D02*
X337958346Y-68770064D01*
X337720251Y-68436730D02*
X337720251Y-69293873D01*
X337767870Y-69389111D01*
X337863108Y-69436730D01*
X337958346Y-69436730D01*
X338672632Y-69389111D02*
X338577394Y-69436730D01*
X338386918Y-69436730D01*
X338291680Y-69389111D01*
X338244061Y-69293873D01*
X338244061Y-68912921D01*
X338291680Y-68817683D01*
X338386918Y-68770064D01*
X338577394Y-68770064D01*
X338672632Y-68817683D01*
X338720251Y-68912921D01*
X338720251Y-69008159D01*
X338244061Y-69103397D01*
X339148823Y-69436730D02*
X339148823Y-68770064D01*
X339148823Y-68960540D02*
X339196442Y-68865302D01*
X339244061Y-68817683D01*
X339339299Y-68770064D01*
X339434537Y-68770064D01*
X339767870Y-69436730D02*
X339767870Y-68770064D01*
X339767870Y-68436730D02*
X339720251Y-68484350D01*
X339767870Y-68531969D01*
X339815489Y-68484350D01*
X339767870Y-68436730D01*
X339767870Y-68531969D01*
X340672632Y-68770064D02*
X340672632Y-69436730D01*
X340244061Y-68770064D02*
X340244061Y-69293873D01*
X340291680Y-69389111D01*
X340386918Y-69436730D01*
X340529775Y-69436730D01*
X340625013Y-69389111D01*
X340672632Y-69341492D01*
X341148823Y-69436730D02*
X341148823Y-68770064D01*
X341148823Y-68865302D02*
X341196442Y-68817683D01*
X341291680Y-68770064D01*
X341434537Y-68770064D01*
X341529775Y-68817683D01*
X341577394Y-68912921D01*
X341577394Y-69436730D01*
X341577394Y-68912921D02*
X341625013Y-68817683D01*
X341720251Y-68770064D01*
X341863108Y-68770064D01*
X341958346Y-68817683D01*
X342005965Y-68912921D01*
X342005965Y-69436730D01*
X373487726Y-69907694D02*
X373440107Y-69955313D01*
X373297250Y-70002932D01*
X373202012Y-70002932D01*
X373059154Y-69955313D01*
X372963916Y-69860075D01*
X372916297Y-69764837D01*
X372868678Y-69574361D01*
X372868678Y-69431504D01*
X372916297Y-69241028D01*
X372963916Y-69145790D01*
X373059154Y-69050552D01*
X373202012Y-69002932D01*
X373297250Y-69002932D01*
X373440107Y-69050552D01*
X373487726Y-69098171D01*
X373821059Y-69002932D02*
X374440107Y-69002932D01*
X374106773Y-69383885D01*
X374249631Y-69383885D01*
X374344869Y-69431504D01*
X374392488Y-69479123D01*
X374440107Y-69574361D01*
X374440107Y-69812456D01*
X374392488Y-69907694D01*
X374344869Y-69955313D01*
X374249631Y-70002932D01*
X373963916Y-70002932D01*
X373868678Y-69955313D01*
X373821059Y-69907694D01*
X371395560Y-62258113D02*
X371395560Y-61258113D01*
X371776512Y-61258113D01*
X371871750Y-61305733D01*
X371919369Y-61353352D01*
X371966988Y-61448590D01*
X371966988Y-61591447D01*
X371919369Y-61686685D01*
X371871750Y-61734304D01*
X371776512Y-61781923D01*
X371395560Y-61781923D01*
X372586036Y-61258113D02*
X372776512Y-61258113D01*
X372871750Y-61305733D01*
X372966988Y-61400971D01*
X373014607Y-61591447D01*
X373014607Y-61924780D01*
X372966988Y-62115256D01*
X372871750Y-62210494D01*
X372776512Y-62258113D01*
X372586036Y-62258113D01*
X372490798Y-62210494D01*
X372395560Y-62115256D01*
X372347941Y-61924780D01*
X372347941Y-61591447D01*
X372395560Y-61400971D01*
X372490798Y-61305733D01*
X372586036Y-61258113D01*
X373347941Y-61258113D02*
X373586036Y-62258113D01*
X373776512Y-61543828D01*
X373966988Y-62258113D01*
X374205084Y-61258113D01*
X374586036Y-61734304D02*
X374919369Y-61734304D01*
X375062226Y-62258113D02*
X374586036Y-62258113D01*
X374586036Y-61258113D01*
X375062226Y-61258113D01*
X376062226Y-62258113D02*
X375728893Y-61781923D01*
X375490798Y-62258113D02*
X375490798Y-61258113D01*
X375871750Y-61258113D01*
X375966988Y-61305733D01*
X376014607Y-61353352D01*
X376062226Y-61448590D01*
X376062226Y-61591447D01*
X376014607Y-61686685D01*
X375966988Y-61734304D01*
X375871750Y-61781923D01*
X375490798Y-61781923D01*
X242614635Y-65284304D02*
X242614635Y-64484304D01*
X242805111Y-64484304D01*
X242919397Y-64522400D01*
X242995587Y-64598590D01*
X243033683Y-64674780D01*
X243071778Y-64827161D01*
X243071778Y-64941447D01*
X243033683Y-65093828D01*
X242995587Y-65170019D01*
X242919397Y-65246209D01*
X242805111Y-65284304D01*
X242614635Y-65284304D01*
X243376540Y-64560495D02*
X243414635Y-64522400D01*
X243490825Y-64484304D01*
X243681302Y-64484304D01*
X243757492Y-64522400D01*
X243795587Y-64560495D01*
X243833683Y-64636685D01*
X243833683Y-64712876D01*
X243795587Y-64827161D01*
X243338444Y-65284304D01*
X243833683Y-65284304D01*
X244214635Y-65284304D02*
X244367016Y-65284304D01*
X244443206Y-65246209D01*
X244481302Y-65208114D01*
X244557492Y-65093828D01*
X244595587Y-64941447D01*
X244595587Y-64636685D01*
X244557492Y-64560495D01*
X244519397Y-64522400D01*
X244443206Y-64484304D01*
X244290825Y-64484304D01*
X244214635Y-64522400D01*
X244176540Y-64560495D01*
X244138444Y-64636685D01*
X244138444Y-64827161D01*
X244176540Y-64903352D01*
X244214635Y-64941447D01*
X244290825Y-64979542D01*
X244443206Y-64979542D01*
X244519397Y-64941447D01*
X244557492Y-64903352D01*
X244595587Y-64827161D01*
X113829571Y-67824304D02*
X113829571Y-67024304D01*
X114020047Y-67024304D01*
X114134333Y-67062400D01*
X114210523Y-67138590D01*
X114248619Y-67214780D01*
X114286714Y-67367161D01*
X114286714Y-67481447D01*
X114248619Y-67633828D01*
X114210523Y-67710019D01*
X114134333Y-67786209D01*
X114020047Y-67824304D01*
X113829571Y-67824304D01*
X114553380Y-67024304D02*
X115048619Y-67024304D01*
X114781952Y-67329066D01*
X114896238Y-67329066D01*
X114972428Y-67367161D01*
X115010523Y-67405257D01*
X115048619Y-67481447D01*
X115048619Y-67671923D01*
X115010523Y-67748114D01*
X114972428Y-67786209D01*
X114896238Y-67824304D01*
X114667666Y-67824304D01*
X114591476Y-67786209D01*
X114553380Y-67748114D01*
X115315285Y-67024304D02*
X115848619Y-67024304D01*
X115505761Y-67824304D01*
X232946752Y-62744304D02*
X232946752Y-61944304D01*
X233137228Y-61944304D01*
X233251514Y-61982400D01*
X233327704Y-62058590D01*
X233365800Y-62134780D01*
X233403895Y-62287161D01*
X233403895Y-62401447D01*
X233365800Y-62553828D01*
X233327704Y-62630019D01*
X233251514Y-62706209D01*
X233137228Y-62744304D01*
X232946752Y-62744304D01*
X234165800Y-62744304D02*
X233708657Y-62744304D01*
X233937228Y-62744304D02*
X233937228Y-61944304D01*
X233861038Y-62058590D01*
X233784847Y-62134780D01*
X233708657Y-62172876D01*
X234470561Y-62020495D02*
X234508657Y-61982400D01*
X234584847Y-61944304D01*
X234775323Y-61944304D01*
X234851514Y-61982400D01*
X234889609Y-62020495D01*
X234927704Y-62096685D01*
X234927704Y-62172876D01*
X234889609Y-62287161D01*
X234432466Y-62744304D01*
X234927704Y-62744304D01*
X267665401Y-62744304D02*
X267665401Y-61944304D01*
X267855877Y-61944304D01*
X267970163Y-61982400D01*
X268046353Y-62058590D01*
X268084449Y-62134780D01*
X268122544Y-62287161D01*
X268122544Y-62401447D01*
X268084449Y-62553828D01*
X268046353Y-62630019D01*
X267970163Y-62706209D01*
X267855877Y-62744304D01*
X267665401Y-62744304D01*
X268884449Y-62744304D02*
X268427306Y-62744304D01*
X268655877Y-62744304D02*
X268655877Y-61944304D01*
X268579687Y-62058590D01*
X268503496Y-62134780D01*
X268427306Y-62172876D01*
X269608258Y-61944304D02*
X269227306Y-61944304D01*
X269189210Y-62325257D01*
X269227306Y-62287161D01*
X269303496Y-62249066D01*
X269493972Y-62249066D01*
X269570163Y-62287161D01*
X269608258Y-62325257D01*
X269646353Y-62401447D01*
X269646353Y-62591923D01*
X269608258Y-62668114D01*
X269570163Y-62706209D01*
X269493972Y-62744304D01*
X269303496Y-62744304D01*
X269227306Y-62706209D01*
X269189210Y-62668114D01*
X177088164Y-75444304D02*
X177088164Y-74644304D01*
X177278640Y-74644304D01*
X177392926Y-74682400D01*
X177469116Y-74758590D01*
X177507212Y-74834780D01*
X177545307Y-74987161D01*
X177545307Y-75101447D01*
X177507212Y-75253828D01*
X177469116Y-75330019D01*
X177392926Y-75406209D01*
X177278640Y-75444304D01*
X177088164Y-75444304D01*
X178002450Y-74987161D02*
X177926259Y-74949066D01*
X177888164Y-74910971D01*
X177850069Y-74834780D01*
X177850069Y-74796685D01*
X177888164Y-74720495D01*
X177926259Y-74682400D01*
X178002450Y-74644304D01*
X178154831Y-74644304D01*
X178231021Y-74682400D01*
X178269116Y-74720495D01*
X178307212Y-74796685D01*
X178307212Y-74834780D01*
X178269116Y-74910971D01*
X178231021Y-74949066D01*
X178154831Y-74987161D01*
X178002450Y-74987161D01*
X177926259Y-75025257D01*
X177888164Y-75063352D01*
X177850069Y-75139542D01*
X177850069Y-75291923D01*
X177888164Y-75368114D01*
X177926259Y-75406209D01*
X178002450Y-75444304D01*
X178154831Y-75444304D01*
X178231021Y-75406209D01*
X178269116Y-75368114D01*
X178307212Y-75291923D01*
X178307212Y-75139542D01*
X178269116Y-75063352D01*
X178231021Y-75025257D01*
X178154831Y-74987161D01*
X178992926Y-74910971D02*
X178992926Y-75444304D01*
X178802450Y-74606209D02*
X178611973Y-75177638D01*
X179107212Y-75177638D01*
X188660085Y-75444304D02*
X188660085Y-74644304D01*
X188850561Y-74644304D01*
X188964847Y-74682400D01*
X189041037Y-74758590D01*
X189079133Y-74834780D01*
X189117228Y-74987161D01*
X189117228Y-75101447D01*
X189079133Y-75253828D01*
X189041037Y-75330019D01*
X188964847Y-75406209D01*
X188850561Y-75444304D01*
X188660085Y-75444304D01*
X189574371Y-74987161D02*
X189498180Y-74949066D01*
X189460085Y-74910971D01*
X189421990Y-74834780D01*
X189421990Y-74796685D01*
X189460085Y-74720495D01*
X189498180Y-74682400D01*
X189574371Y-74644304D01*
X189726752Y-74644304D01*
X189802942Y-74682400D01*
X189841037Y-74720495D01*
X189879133Y-74796685D01*
X189879133Y-74834780D01*
X189841037Y-74910971D01*
X189802942Y-74949066D01*
X189726752Y-74987161D01*
X189574371Y-74987161D01*
X189498180Y-75025257D01*
X189460085Y-75063352D01*
X189421990Y-75139542D01*
X189421990Y-75291923D01*
X189460085Y-75368114D01*
X189498180Y-75406209D01*
X189574371Y-75444304D01*
X189726752Y-75444304D01*
X189802942Y-75406209D01*
X189841037Y-75368114D01*
X189879133Y-75291923D01*
X189879133Y-75139542D01*
X189841037Y-75063352D01*
X189802942Y-75025257D01*
X189726752Y-74987161D01*
X190602942Y-74644304D02*
X190221990Y-74644304D01*
X190183894Y-75025257D01*
X190221990Y-74987161D01*
X190298180Y-74949066D01*
X190488656Y-74949066D01*
X190564847Y-74987161D01*
X190602942Y-75025257D01*
X190641037Y-75101447D01*
X190641037Y-75291923D01*
X190602942Y-75368114D01*
X190564847Y-75406209D01*
X190488656Y-75444304D01*
X190298180Y-75444304D01*
X190221990Y-75406209D01*
X190183894Y-75368114D01*
X328648823Y-67365571D02*
X328982156Y-67365571D01*
X329125013Y-67889380D02*
X328648823Y-67889380D01*
X328648823Y-66889380D01*
X329125013Y-66889380D01*
X329696442Y-67889380D02*
X329601204Y-67841761D01*
X329553584Y-67746523D01*
X329553584Y-66889380D01*
X330077394Y-67889380D02*
X330077394Y-67222714D01*
X330077394Y-66889380D02*
X330029775Y-66937000D01*
X330077394Y-66984619D01*
X330125013Y-66937000D01*
X330077394Y-66889380D01*
X330077394Y-66984619D01*
X330982156Y-67889380D02*
X330982156Y-67365571D01*
X330934537Y-67270333D01*
X330839299Y-67222714D01*
X330648823Y-67222714D01*
X330553584Y-67270333D01*
X330982156Y-67841761D02*
X330886918Y-67889380D01*
X330648823Y-67889380D01*
X330553584Y-67841761D01*
X330505965Y-67746523D01*
X330505965Y-67651285D01*
X330553584Y-67556047D01*
X330648823Y-67508428D01*
X330886918Y-67508428D01*
X330982156Y-67460809D01*
X331410727Y-67841761D02*
X331505965Y-67889380D01*
X331696442Y-67889380D01*
X331791680Y-67841761D01*
X331839299Y-67746523D01*
X331839299Y-67698904D01*
X331791680Y-67603666D01*
X331696442Y-67556047D01*
X331553584Y-67556047D01*
X331458346Y-67508428D01*
X331410727Y-67413190D01*
X331410727Y-67365571D01*
X331458346Y-67270333D01*
X331553584Y-67222714D01*
X331696442Y-67222714D01*
X331791680Y-67270333D01*
X333029775Y-67889380D02*
X333029775Y-66889380D01*
X333601204Y-67889380D02*
X333172632Y-67317952D01*
X333601204Y-66889380D02*
X333029775Y-67460809D01*
X334172632Y-67889380D02*
X334077394Y-67841761D01*
X334029775Y-67794142D01*
X333982156Y-67698904D01*
X333982156Y-67413190D01*
X334029775Y-67317952D01*
X334077394Y-67270333D01*
X334172632Y-67222714D01*
X334315489Y-67222714D01*
X334410727Y-67270333D01*
X334458346Y-67317952D01*
X334505965Y-67413190D01*
X334505965Y-67698904D01*
X334458346Y-67794142D01*
X334410727Y-67841761D01*
X334315489Y-67889380D01*
X334172632Y-67889380D01*
X335363108Y-67222714D02*
X335363108Y-67889380D01*
X334934537Y-67222714D02*
X334934537Y-67746523D01*
X334982156Y-67841761D01*
X335077394Y-67889380D01*
X335220251Y-67889380D01*
X335315489Y-67841761D01*
X335363108Y-67794142D01*
X335839299Y-67222714D02*
X335839299Y-67889380D01*
X335839299Y-67317952D02*
X335886918Y-67270333D01*
X335982156Y-67222714D01*
X336125013Y-67222714D01*
X336220251Y-67270333D01*
X336267870Y-67365571D01*
X336267870Y-67889380D01*
X336601204Y-67222714D02*
X336982156Y-67222714D01*
X336744061Y-66889380D02*
X336744061Y-67746523D01*
X336791680Y-67841761D01*
X336886918Y-67889380D01*
X336982156Y-67889380D01*
X337458346Y-67889380D02*
X337363108Y-67841761D01*
X337315489Y-67794142D01*
X337267870Y-67698904D01*
X337267870Y-67413190D01*
X337315489Y-67317952D01*
X337363108Y-67270333D01*
X337458346Y-67222714D01*
X337601204Y-67222714D01*
X337696442Y-67270333D01*
X337744061Y-67317952D01*
X337791680Y-67413190D01*
X337791680Y-67698904D01*
X337744061Y-67794142D01*
X337696442Y-67841761D01*
X337601204Y-67889380D01*
X337458346Y-67889380D01*
X338648823Y-67222714D02*
X338648823Y-67889380D01*
X338220251Y-67222714D02*
X338220251Y-67746523D01*
X338267870Y-67841761D01*
X338363108Y-67889380D01*
X338505965Y-67889380D01*
X338601204Y-67841761D01*
X338648823Y-67794142D01*
X339125013Y-67889380D02*
X339125013Y-67222714D01*
X339125013Y-67413190D02*
X339172632Y-67317952D01*
X339220251Y-67270333D01*
X339315489Y-67222714D01*
X339410727Y-67222714D01*
X339744061Y-67889380D02*
X339744061Y-67222714D01*
X339744061Y-66889380D02*
X339696442Y-66937000D01*
X339744061Y-66984619D01*
X339791680Y-66937000D01*
X339744061Y-66889380D01*
X339744061Y-66984619D01*
X340172632Y-67841761D02*
X340267870Y-67889380D01*
X340458346Y-67889380D01*
X340553584Y-67841761D01*
X340601204Y-67746523D01*
X340601204Y-67698904D01*
X340553584Y-67603666D01*
X340458346Y-67556047D01*
X340315489Y-67556047D01*
X340220251Y-67508428D01*
X340172632Y-67413190D01*
X340172632Y-67365571D01*
X340220251Y-67270333D01*
X340315489Y-67222714D01*
X340458346Y-67222714D01*
X340553584Y-67270333D01*
X62735960Y-72527470D02*
X62878817Y-72575089D01*
X62926436Y-72622708D01*
X62974055Y-72717946D01*
X62974055Y-72860803D01*
X62926436Y-72956041D01*
X62878817Y-73003660D01*
X62783579Y-73051279D01*
X62402626Y-73051279D01*
X62402626Y-72051279D01*
X62735960Y-72051279D01*
X62831198Y-72098899D01*
X62878817Y-72146518D01*
X62926436Y-72241756D01*
X62926436Y-72336994D01*
X62878817Y-72432232D01*
X62831198Y-72479851D01*
X62735960Y-72527470D01*
X62402626Y-72527470D01*
X63593103Y-72051279D02*
X63783579Y-72051279D01*
X63878817Y-72098899D01*
X63974055Y-72194137D01*
X64021674Y-72384613D01*
X64021674Y-72717946D01*
X63974055Y-72908422D01*
X63878817Y-73003660D01*
X63783579Y-73051279D01*
X63593103Y-73051279D01*
X63497864Y-73003660D01*
X63402626Y-72908422D01*
X63355007Y-72717946D01*
X63355007Y-72384613D01*
X63402626Y-72194137D01*
X63497864Y-72098899D01*
X63593103Y-72051279D01*
X64640722Y-72051279D02*
X64831198Y-72051279D01*
X64926436Y-72098899D01*
X65021674Y-72194137D01*
X65069293Y-72384613D01*
X65069293Y-72717946D01*
X65021674Y-72908422D01*
X64926436Y-73003660D01*
X64831198Y-73051279D01*
X64640722Y-73051279D01*
X64545483Y-73003660D01*
X64450245Y-72908422D01*
X64402626Y-72717946D01*
X64402626Y-72384613D01*
X64450245Y-72194137D01*
X64545483Y-72098899D01*
X64640722Y-72051279D01*
X65355007Y-72051279D02*
X65926436Y-72051279D01*
X65640722Y-73051279D02*
X65640722Y-72051279D01*
X298244919Y-58845440D02*
X298197300Y-58893059D01*
X298054443Y-58940678D01*
X297959205Y-58940678D01*
X297816347Y-58893059D01*
X297721109Y-58797821D01*
X297673490Y-58702583D01*
X297625871Y-58512107D01*
X297625871Y-58369250D01*
X297673490Y-58178774D01*
X297721109Y-58083536D01*
X297816347Y-57988298D01*
X297959205Y-57940678D01*
X298054443Y-57940678D01*
X298197300Y-57988298D01*
X298244919Y-58035917D01*
X299102062Y-58274012D02*
X299102062Y-58940678D01*
X298863966Y-57893059D02*
X298625871Y-58607345D01*
X299244919Y-58607345D01*
X298234747Y-79435244D02*
X298187128Y-79482863D01*
X298044271Y-79530482D01*
X297949033Y-79530482D01*
X297806175Y-79482863D01*
X297710937Y-79387625D01*
X297663318Y-79292387D01*
X297615699Y-79101911D01*
X297615699Y-78959054D01*
X297663318Y-78768578D01*
X297710937Y-78673340D01*
X297806175Y-78578102D01*
X297949033Y-78530482D01*
X298044271Y-78530482D01*
X298187128Y-78578102D01*
X298234747Y-78625721D01*
X299139509Y-78530482D02*
X298663318Y-78530482D01*
X298615699Y-79006673D01*
X298663318Y-78959054D01*
X298758556Y-78911435D01*
X298996652Y-78911435D01*
X299091890Y-78959054D01*
X299139509Y-79006673D01*
X299187128Y-79101911D01*
X299187128Y-79340006D01*
X299139509Y-79435244D01*
X299091890Y-79482863D01*
X298996652Y-79530482D01*
X298758556Y-79530482D01*
X298663318Y-79482863D01*
X298615699Y-79435244D01*
X83254023Y-62744304D02*
X83254023Y-61944304D01*
X83444500Y-61944304D01*
X83558785Y-61982400D01*
X83634976Y-62058590D01*
X83673071Y-62134780D01*
X83711166Y-62287161D01*
X83711166Y-62401447D01*
X83673071Y-62553828D01*
X83634976Y-62630019D01*
X83558785Y-62706209D01*
X83444500Y-62744304D01*
X83254023Y-62744304D01*
X84473071Y-62744304D02*
X84015928Y-62744304D01*
X84244500Y-62744304D02*
X84244500Y-61944304D01*
X84168309Y-62058590D01*
X84092119Y-62134780D01*
X84015928Y-62172876D01*
X94826906Y-62744304D02*
X94826906Y-61944304D01*
X95017383Y-61944304D01*
X95131668Y-61982400D01*
X95207859Y-62058590D01*
X95245954Y-62134780D01*
X95284049Y-62287161D01*
X95284049Y-62401447D01*
X95245954Y-62553828D01*
X95207859Y-62630019D01*
X95131668Y-62706209D01*
X95017383Y-62744304D01*
X94826906Y-62744304D01*
X95588811Y-62020495D02*
X95626906Y-61982400D01*
X95703097Y-61944304D01*
X95893573Y-61944304D01*
X95969763Y-61982400D01*
X96007859Y-62020495D01*
X96045954Y-62096685D01*
X96045954Y-62172876D01*
X96007859Y-62287161D01*
X95550716Y-62744304D01*
X96045954Y-62744304D01*
X106399789Y-62744304D02*
X106399789Y-61944304D01*
X106590266Y-61944304D01*
X106704551Y-61982400D01*
X106780742Y-62058590D01*
X106818837Y-62134780D01*
X106856932Y-62287161D01*
X106856932Y-62401447D01*
X106818837Y-62553828D01*
X106780742Y-62630019D01*
X106704551Y-62706209D01*
X106590266Y-62744304D01*
X106399789Y-62744304D01*
X107123599Y-61944304D02*
X107618837Y-61944304D01*
X107352170Y-62249066D01*
X107466456Y-62249066D01*
X107542646Y-62287161D01*
X107580742Y-62325257D01*
X107618837Y-62401447D01*
X107618837Y-62591923D01*
X107580742Y-62668114D01*
X107542646Y-62706209D01*
X107466456Y-62744304D01*
X107237885Y-62744304D01*
X107161694Y-62706209D01*
X107123599Y-62668114D01*
X118436872Y-62769704D02*
X118436872Y-61969704D01*
X118627349Y-61969704D01*
X118741634Y-62007800D01*
X118817825Y-62083990D01*
X118855920Y-62160180D01*
X118894015Y-62312561D01*
X118894015Y-62426847D01*
X118855920Y-62579228D01*
X118817825Y-62655419D01*
X118741634Y-62731609D01*
X118627349Y-62769704D01*
X118436872Y-62769704D01*
X119579729Y-62236371D02*
X119579729Y-62769704D01*
X119389253Y-61931609D02*
X119198777Y-62503038D01*
X119694015Y-62503038D01*
X152571523Y-62871304D02*
X152571523Y-62071304D01*
X152762000Y-62071304D01*
X152876285Y-62109400D01*
X152952476Y-62185590D01*
X152990571Y-62261780D01*
X153028666Y-62414161D01*
X153028666Y-62528447D01*
X152990571Y-62680828D01*
X152952476Y-62757019D01*
X152876285Y-62833209D01*
X152762000Y-62871304D01*
X152571523Y-62871304D01*
X153752476Y-62071304D02*
X153371523Y-62071304D01*
X153333428Y-62452257D01*
X153371523Y-62414161D01*
X153447714Y-62376066D01*
X153638190Y-62376066D01*
X153714380Y-62414161D01*
X153752476Y-62452257D01*
X153790571Y-62528447D01*
X153790571Y-62718923D01*
X153752476Y-62795114D01*
X153714380Y-62833209D01*
X153638190Y-62871304D01*
X153447714Y-62871304D01*
X153371523Y-62833209D01*
X153333428Y-62795114D01*
X163787906Y-62744304D02*
X163787906Y-61944304D01*
X163978383Y-61944304D01*
X164092668Y-61982400D01*
X164168859Y-62058590D01*
X164206954Y-62134780D01*
X164245049Y-62287161D01*
X164245049Y-62401447D01*
X164206954Y-62553828D01*
X164168859Y-62630019D01*
X164092668Y-62706209D01*
X163978383Y-62744304D01*
X163787906Y-62744304D01*
X164930763Y-61944304D02*
X164778383Y-61944304D01*
X164702192Y-61982400D01*
X164664097Y-62020495D01*
X164587906Y-62134780D01*
X164549811Y-62287161D01*
X164549811Y-62591923D01*
X164587906Y-62668114D01*
X164626002Y-62706209D01*
X164702192Y-62744304D01*
X164854573Y-62744304D01*
X164930763Y-62706209D01*
X164968859Y-62668114D01*
X165006954Y-62591923D01*
X165006954Y-62401447D01*
X164968859Y-62325257D01*
X164930763Y-62287161D01*
X164854573Y-62249066D01*
X164702192Y-62249066D01*
X164626002Y-62287161D01*
X164587906Y-62325257D01*
X164549811Y-62401447D01*
X175360789Y-62744304D02*
X175360789Y-61944304D01*
X175551266Y-61944304D01*
X175665551Y-61982400D01*
X175741742Y-62058590D01*
X175779837Y-62134780D01*
X175817932Y-62287161D01*
X175817932Y-62401447D01*
X175779837Y-62553828D01*
X175741742Y-62630019D01*
X175665551Y-62706209D01*
X175551266Y-62744304D01*
X175360789Y-62744304D01*
X176084599Y-61944304D02*
X176617932Y-61944304D01*
X176275075Y-62744304D01*
X186933672Y-62744304D02*
X186933672Y-61944304D01*
X187124149Y-61944304D01*
X187238434Y-61982400D01*
X187314625Y-62058590D01*
X187352720Y-62134780D01*
X187390815Y-62287161D01*
X187390815Y-62401447D01*
X187352720Y-62553828D01*
X187314625Y-62630019D01*
X187238434Y-62706209D01*
X187124149Y-62744304D01*
X186933672Y-62744304D01*
X187847958Y-62287161D02*
X187771768Y-62249066D01*
X187733672Y-62210971D01*
X187695577Y-62134780D01*
X187695577Y-62096685D01*
X187733672Y-62020495D01*
X187771768Y-61982400D01*
X187847958Y-61944304D01*
X188000339Y-61944304D01*
X188076529Y-61982400D01*
X188114625Y-62020495D01*
X188152720Y-62096685D01*
X188152720Y-62134780D01*
X188114625Y-62210971D01*
X188076529Y-62249066D01*
X188000339Y-62287161D01*
X187847958Y-62287161D01*
X187771768Y-62325257D01*
X187733672Y-62363352D01*
X187695577Y-62439542D01*
X187695577Y-62591923D01*
X187733672Y-62668114D01*
X187771768Y-62706209D01*
X187847958Y-62744304D01*
X188000339Y-62744304D01*
X188076529Y-62706209D01*
X188114625Y-62668114D01*
X188152720Y-62591923D01*
X188152720Y-62439542D01*
X188114625Y-62363352D01*
X188076529Y-62325257D01*
X188000339Y-62287161D01*
X198506555Y-62744304D02*
X198506555Y-61944304D01*
X198697032Y-61944304D01*
X198811317Y-61982400D01*
X198887508Y-62058590D01*
X198925603Y-62134780D01*
X198963698Y-62287161D01*
X198963698Y-62401447D01*
X198925603Y-62553828D01*
X198887508Y-62630019D01*
X198811317Y-62706209D01*
X198697032Y-62744304D01*
X198506555Y-62744304D01*
X199344651Y-62744304D02*
X199497032Y-62744304D01*
X199573222Y-62706209D01*
X199611317Y-62668114D01*
X199687508Y-62553828D01*
X199725603Y-62401447D01*
X199725603Y-62096685D01*
X199687508Y-62020495D01*
X199649412Y-61982400D01*
X199573222Y-61944304D01*
X199420841Y-61944304D01*
X199344651Y-61982400D01*
X199306555Y-62020495D01*
X199268460Y-62096685D01*
X199268460Y-62287161D01*
X199306555Y-62363352D01*
X199344651Y-62401447D01*
X199420841Y-62439542D01*
X199573222Y-62439542D01*
X199649412Y-62401447D01*
X199687508Y-62363352D01*
X199725603Y-62287161D01*
X209698486Y-62744304D02*
X209698486Y-61944304D01*
X209888962Y-61944304D01*
X210003248Y-61982400D01*
X210079438Y-62058590D01*
X210117534Y-62134780D01*
X210155629Y-62287161D01*
X210155629Y-62401447D01*
X210117534Y-62553828D01*
X210079438Y-62630019D01*
X210003248Y-62706209D01*
X209888962Y-62744304D01*
X209698486Y-62744304D01*
X210917534Y-62744304D02*
X210460391Y-62744304D01*
X210688962Y-62744304D02*
X210688962Y-61944304D01*
X210612772Y-62058590D01*
X210536581Y-62134780D01*
X210460391Y-62172876D01*
X211412772Y-61944304D02*
X211488962Y-61944304D01*
X211565153Y-61982400D01*
X211603248Y-62020495D01*
X211641343Y-62096685D01*
X211679438Y-62249066D01*
X211679438Y-62439542D01*
X211641343Y-62591923D01*
X211603248Y-62668114D01*
X211565153Y-62706209D01*
X211488962Y-62744304D01*
X211412772Y-62744304D01*
X211336581Y-62706209D01*
X211298486Y-62668114D01*
X211260391Y-62591923D01*
X211222295Y-62439542D01*
X211222295Y-62249066D01*
X211260391Y-62096685D01*
X211298486Y-62020495D01*
X211336581Y-61982400D01*
X211412772Y-61944304D01*
X221271369Y-62744304D02*
X221271369Y-61944304D01*
X221461845Y-61944304D01*
X221576131Y-61982400D01*
X221652321Y-62058590D01*
X221690417Y-62134780D01*
X221728512Y-62287161D01*
X221728512Y-62401447D01*
X221690417Y-62553828D01*
X221652321Y-62630019D01*
X221576131Y-62706209D01*
X221461845Y-62744304D01*
X221271369Y-62744304D01*
X222490417Y-62744304D02*
X222033274Y-62744304D01*
X222261845Y-62744304D02*
X222261845Y-61944304D01*
X222185655Y-62058590D01*
X222109464Y-62134780D01*
X222033274Y-62172876D01*
X223252321Y-62744304D02*
X222795178Y-62744304D01*
X223023750Y-62744304D02*
X223023750Y-61944304D01*
X222947559Y-62058590D01*
X222871369Y-62134780D01*
X222795178Y-62172876D01*
X244417135Y-62744304D02*
X244417135Y-61944304D01*
X244607611Y-61944304D01*
X244721897Y-61982400D01*
X244798087Y-62058590D01*
X244836183Y-62134780D01*
X244874278Y-62287161D01*
X244874278Y-62401447D01*
X244836183Y-62553828D01*
X244798087Y-62630019D01*
X244721897Y-62706209D01*
X244607611Y-62744304D01*
X244417135Y-62744304D01*
X245636183Y-62744304D02*
X245179040Y-62744304D01*
X245407611Y-62744304D02*
X245407611Y-61944304D01*
X245331421Y-62058590D01*
X245255230Y-62134780D01*
X245179040Y-62172876D01*
X245902849Y-61944304D02*
X246398087Y-61944304D01*
X246131421Y-62249066D01*
X246245706Y-62249066D01*
X246321897Y-62287161D01*
X246359992Y-62325257D01*
X246398087Y-62401447D01*
X246398087Y-62591923D01*
X246359992Y-62668114D01*
X246321897Y-62706209D01*
X246245706Y-62744304D01*
X246017135Y-62744304D01*
X245940944Y-62706209D01*
X245902849Y-62668114D01*
X255990018Y-62744304D02*
X255990018Y-61944304D01*
X256180494Y-61944304D01*
X256294780Y-61982400D01*
X256370970Y-62058590D01*
X256409066Y-62134780D01*
X256447161Y-62287161D01*
X256447161Y-62401447D01*
X256409066Y-62553828D01*
X256370970Y-62630019D01*
X256294780Y-62706209D01*
X256180494Y-62744304D01*
X255990018Y-62744304D01*
X257209066Y-62744304D02*
X256751923Y-62744304D01*
X256980494Y-62744304D02*
X256980494Y-61944304D01*
X256904304Y-62058590D01*
X256828113Y-62134780D01*
X256751923Y-62172876D01*
X257894780Y-62210971D02*
X257894780Y-62744304D01*
X257704304Y-61906209D02*
X257513827Y-62477638D01*
X258009066Y-62477638D01*
X261569401Y-70364304D02*
X261569401Y-69564304D01*
X261759877Y-69564304D01*
X261874163Y-69602400D01*
X261950353Y-69678590D01*
X261988449Y-69754780D01*
X262026544Y-69907161D01*
X262026544Y-70021447D01*
X261988449Y-70173828D01*
X261950353Y-70250019D01*
X261874163Y-70326209D01*
X261759877Y-70364304D01*
X261569401Y-70364304D01*
X262788449Y-70364304D02*
X262331306Y-70364304D01*
X262559877Y-70364304D02*
X262559877Y-69564304D01*
X262483687Y-69678590D01*
X262407496Y-69754780D01*
X262331306Y-69792876D01*
X263474163Y-69564304D02*
X263321782Y-69564304D01*
X263245591Y-69602400D01*
X263207496Y-69640495D01*
X263131306Y-69754780D01*
X263093210Y-69907161D01*
X263093210Y-70211923D01*
X263131306Y-70288114D01*
X263169401Y-70326209D01*
X263245591Y-70364304D01*
X263397972Y-70364304D01*
X263474163Y-70326209D01*
X263512258Y-70288114D01*
X263550353Y-70211923D01*
X263550353Y-70021447D01*
X263512258Y-69945257D01*
X263474163Y-69907161D01*
X263397972Y-69869066D01*
X263245591Y-69869066D01*
X263169401Y-69907161D01*
X263131306Y-69945257D01*
X263093210Y-70021447D01*
X81015922Y-65284304D02*
X81015922Y-64484304D01*
X81206398Y-64484304D01*
X81320684Y-64522400D01*
X81396874Y-64598590D01*
X81434970Y-64674780D01*
X81473065Y-64827161D01*
X81473065Y-64941447D01*
X81434970Y-65093828D01*
X81396874Y-65170019D01*
X81320684Y-65246209D01*
X81206398Y-65284304D01*
X81015922Y-65284304D01*
X82234970Y-65284304D02*
X81777827Y-65284304D01*
X82006398Y-65284304D02*
X82006398Y-64484304D01*
X81930208Y-64598590D01*
X81854017Y-64674780D01*
X81777827Y-64712876D01*
X82501636Y-64484304D02*
X83034970Y-64484304D01*
X82692112Y-65284304D01*
X92691305Y-65284304D02*
X92691305Y-64484304D01*
X92881781Y-64484304D01*
X92996067Y-64522400D01*
X93072257Y-64598590D01*
X93110353Y-64674780D01*
X93148448Y-64827161D01*
X93148448Y-64941447D01*
X93110353Y-65093828D01*
X93072257Y-65170019D01*
X92996067Y-65246209D01*
X92881781Y-65284304D01*
X92691305Y-65284304D01*
X93910353Y-65284304D02*
X93453210Y-65284304D01*
X93681781Y-65284304D02*
X93681781Y-64484304D01*
X93605591Y-64598590D01*
X93529400Y-64674780D01*
X93453210Y-64712876D01*
X94367495Y-64827161D02*
X94291305Y-64789066D01*
X94253210Y-64750971D01*
X94215114Y-64674780D01*
X94215114Y-64636685D01*
X94253210Y-64560495D01*
X94291305Y-64522400D01*
X94367495Y-64484304D01*
X94519876Y-64484304D01*
X94596067Y-64522400D01*
X94634162Y-64560495D01*
X94672257Y-64636685D01*
X94672257Y-64674780D01*
X94634162Y-64750971D01*
X94596067Y-64789066D01*
X94519876Y-64827161D01*
X94367495Y-64827161D01*
X94291305Y-64865257D01*
X94253210Y-64903352D01*
X94215114Y-64979542D01*
X94215114Y-65131923D01*
X94253210Y-65208114D01*
X94291305Y-65246209D01*
X94367495Y-65284304D01*
X94519876Y-65284304D01*
X94596067Y-65246209D01*
X94634162Y-65208114D01*
X94672257Y-65131923D01*
X94672257Y-64979542D01*
X94634162Y-64903352D01*
X94596067Y-64865257D01*
X94519876Y-64827161D01*
X104161688Y-65284304D02*
X104161688Y-64484304D01*
X104352164Y-64484304D01*
X104466450Y-64522400D01*
X104542640Y-64598590D01*
X104580736Y-64674780D01*
X104618831Y-64827161D01*
X104618831Y-64941447D01*
X104580736Y-65093828D01*
X104542640Y-65170019D01*
X104466450Y-65246209D01*
X104352164Y-65284304D01*
X104161688Y-65284304D01*
X105380736Y-65284304D02*
X104923593Y-65284304D01*
X105152164Y-65284304D02*
X105152164Y-64484304D01*
X105075974Y-64598590D01*
X104999783Y-64674780D01*
X104923593Y-64712876D01*
X105761688Y-65284304D02*
X105914069Y-65284304D01*
X105990259Y-65246209D01*
X106028355Y-65208114D01*
X106104545Y-65093828D01*
X106142640Y-64941447D01*
X106142640Y-64636685D01*
X106104545Y-64560495D01*
X106066450Y-64522400D01*
X105990259Y-64484304D01*
X105837878Y-64484304D01*
X105761688Y-64522400D01*
X105723593Y-64560495D01*
X105685497Y-64636685D01*
X105685497Y-64827161D01*
X105723593Y-64903352D01*
X105761688Y-64941447D01*
X105837878Y-64979542D01*
X105990259Y-64979542D01*
X106066450Y-64941447D01*
X106104545Y-64903352D01*
X106142640Y-64827161D01*
X115734571Y-65284304D02*
X115734571Y-64484304D01*
X115925047Y-64484304D01*
X116039333Y-64522400D01*
X116115523Y-64598590D01*
X116153619Y-64674780D01*
X116191714Y-64827161D01*
X116191714Y-64941447D01*
X116153619Y-65093828D01*
X116115523Y-65170019D01*
X116039333Y-65246209D01*
X115925047Y-65284304D01*
X115734571Y-65284304D01*
X116496476Y-64560495D02*
X116534571Y-64522400D01*
X116610761Y-64484304D01*
X116801238Y-64484304D01*
X116877428Y-64522400D01*
X116915523Y-64560495D01*
X116953619Y-64636685D01*
X116953619Y-64712876D01*
X116915523Y-64827161D01*
X116458380Y-65284304D01*
X116953619Y-65284304D01*
X117448857Y-64484304D02*
X117525047Y-64484304D01*
X117601238Y-64522400D01*
X117639333Y-64560495D01*
X117677428Y-64636685D01*
X117715523Y-64789066D01*
X117715523Y-64979542D01*
X117677428Y-65131923D01*
X117639333Y-65208114D01*
X117601238Y-65246209D01*
X117525047Y-65284304D01*
X117448857Y-65284304D01*
X117372666Y-65246209D01*
X117334571Y-65208114D01*
X117296476Y-65131923D01*
X117258380Y-64979542D01*
X117258380Y-64789066D01*
X117296476Y-64636685D01*
X117334571Y-64560495D01*
X117372666Y-64522400D01*
X117448857Y-64484304D01*
X149904571Y-65284304D02*
X149904571Y-64484304D01*
X150095047Y-64484304D01*
X150209333Y-64522400D01*
X150285523Y-64598590D01*
X150323619Y-64674780D01*
X150361714Y-64827161D01*
X150361714Y-64941447D01*
X150323619Y-65093828D01*
X150285523Y-65170019D01*
X150209333Y-65246209D01*
X150095047Y-65284304D01*
X149904571Y-65284304D01*
X150666476Y-64560495D02*
X150704571Y-64522400D01*
X150780761Y-64484304D01*
X150971238Y-64484304D01*
X151047428Y-64522400D01*
X151085523Y-64560495D01*
X151123619Y-64636685D01*
X151123619Y-64712876D01*
X151085523Y-64827161D01*
X150628380Y-65284304D01*
X151123619Y-65284304D01*
X151885523Y-65284304D02*
X151428380Y-65284304D01*
X151656952Y-65284304D02*
X151656952Y-64484304D01*
X151580761Y-64598590D01*
X151504571Y-64674780D01*
X151428380Y-64712876D01*
X161477454Y-65411304D02*
X161477454Y-64611304D01*
X161667930Y-64611304D01*
X161782216Y-64649400D01*
X161858406Y-64725590D01*
X161896502Y-64801780D01*
X161934597Y-64954161D01*
X161934597Y-65068447D01*
X161896502Y-65220828D01*
X161858406Y-65297019D01*
X161782216Y-65373209D01*
X161667930Y-65411304D01*
X161477454Y-65411304D01*
X162239359Y-64687495D02*
X162277454Y-64649400D01*
X162353644Y-64611304D01*
X162544121Y-64611304D01*
X162620311Y-64649400D01*
X162658406Y-64687495D01*
X162696502Y-64763685D01*
X162696502Y-64839876D01*
X162658406Y-64954161D01*
X162201263Y-65411304D01*
X162696502Y-65411304D01*
X163001263Y-64687495D02*
X163039359Y-64649400D01*
X163115549Y-64611304D01*
X163306025Y-64611304D01*
X163382216Y-64649400D01*
X163420311Y-64687495D01*
X163458406Y-64763685D01*
X163458406Y-64839876D01*
X163420311Y-64954161D01*
X162963168Y-65411304D01*
X163458406Y-65411304D01*
X173074837Y-65284304D02*
X173074837Y-64484304D01*
X173265313Y-64484304D01*
X173379599Y-64522400D01*
X173455789Y-64598590D01*
X173493885Y-64674780D01*
X173531980Y-64827161D01*
X173531980Y-64941447D01*
X173493885Y-65093828D01*
X173455789Y-65170019D01*
X173379599Y-65246209D01*
X173265313Y-65284304D01*
X173074837Y-65284304D01*
X173836742Y-64560495D02*
X173874837Y-64522400D01*
X173951027Y-64484304D01*
X174141504Y-64484304D01*
X174217694Y-64522400D01*
X174255789Y-64560495D01*
X174293885Y-64636685D01*
X174293885Y-64712876D01*
X174255789Y-64827161D01*
X173798646Y-65284304D01*
X174293885Y-65284304D01*
X174560551Y-64484304D02*
X175055789Y-64484304D01*
X174789123Y-64789066D01*
X174903408Y-64789066D01*
X174979599Y-64827161D01*
X175017694Y-64865257D01*
X175055789Y-64941447D01*
X175055789Y-65131923D01*
X175017694Y-65208114D01*
X174979599Y-65246209D01*
X174903408Y-65284304D01*
X174674837Y-65284304D01*
X174598646Y-65246209D01*
X174560551Y-65208114D01*
X184647720Y-65284304D02*
X184647720Y-64484304D01*
X184838196Y-64484304D01*
X184952482Y-64522400D01*
X185028672Y-64598590D01*
X185066768Y-64674780D01*
X185104863Y-64827161D01*
X185104863Y-64941447D01*
X185066768Y-65093828D01*
X185028672Y-65170019D01*
X184952482Y-65246209D01*
X184838196Y-65284304D01*
X184647720Y-65284304D01*
X185409625Y-64560495D02*
X185447720Y-64522400D01*
X185523910Y-64484304D01*
X185714387Y-64484304D01*
X185790577Y-64522400D01*
X185828672Y-64560495D01*
X185866768Y-64636685D01*
X185866768Y-64712876D01*
X185828672Y-64827161D01*
X185371529Y-65284304D01*
X185866768Y-65284304D01*
X186552482Y-64750971D02*
X186552482Y-65284304D01*
X186362006Y-64446209D02*
X186171529Y-65017638D01*
X186666768Y-65017638D01*
X196220603Y-65284304D02*
X196220603Y-64484304D01*
X196411079Y-64484304D01*
X196525365Y-64522400D01*
X196601555Y-64598590D01*
X196639651Y-64674780D01*
X196677746Y-64827161D01*
X196677746Y-64941447D01*
X196639651Y-65093828D01*
X196601555Y-65170019D01*
X196525365Y-65246209D01*
X196411079Y-65284304D01*
X196220603Y-65284304D01*
X196982508Y-64560495D02*
X197020603Y-64522400D01*
X197096793Y-64484304D01*
X197287270Y-64484304D01*
X197363460Y-64522400D01*
X197401555Y-64560495D01*
X197439651Y-64636685D01*
X197439651Y-64712876D01*
X197401555Y-64827161D01*
X196944412Y-65284304D01*
X197439651Y-65284304D01*
X198163460Y-64484304D02*
X197782508Y-64484304D01*
X197744412Y-64865257D01*
X197782508Y-64827161D01*
X197858698Y-64789066D01*
X198049174Y-64789066D01*
X198125365Y-64827161D01*
X198163460Y-64865257D01*
X198201555Y-64941447D01*
X198201555Y-65131923D01*
X198163460Y-65208114D01*
X198125365Y-65246209D01*
X198049174Y-65284304D01*
X197858698Y-65284304D01*
X197782508Y-65246209D01*
X197744412Y-65208114D01*
X207793486Y-65284304D02*
X207793486Y-64484304D01*
X207983962Y-64484304D01*
X208098248Y-64522400D01*
X208174438Y-64598590D01*
X208212534Y-64674780D01*
X208250629Y-64827161D01*
X208250629Y-64941447D01*
X208212534Y-65093828D01*
X208174438Y-65170019D01*
X208098248Y-65246209D01*
X207983962Y-65284304D01*
X207793486Y-65284304D01*
X208555391Y-64560495D02*
X208593486Y-64522400D01*
X208669676Y-64484304D01*
X208860153Y-64484304D01*
X208936343Y-64522400D01*
X208974438Y-64560495D01*
X209012534Y-64636685D01*
X209012534Y-64712876D01*
X208974438Y-64827161D01*
X208517295Y-65284304D01*
X209012534Y-65284304D01*
X209698248Y-64484304D02*
X209545867Y-64484304D01*
X209469676Y-64522400D01*
X209431581Y-64560495D01*
X209355391Y-64674780D01*
X209317295Y-64827161D01*
X209317295Y-65131923D01*
X209355391Y-65208114D01*
X209393486Y-65246209D01*
X209469676Y-65284304D01*
X209622057Y-65284304D01*
X209698248Y-65246209D01*
X209736343Y-65208114D01*
X209774438Y-65131923D01*
X209774438Y-64941447D01*
X209736343Y-64865257D01*
X209698248Y-64827161D01*
X209622057Y-64789066D01*
X209469676Y-64789066D01*
X209393486Y-64827161D01*
X209355391Y-64865257D01*
X209317295Y-64941447D01*
X219468869Y-65284304D02*
X219468869Y-64484304D01*
X219659345Y-64484304D01*
X219773631Y-64522400D01*
X219849821Y-64598590D01*
X219887917Y-64674780D01*
X219926012Y-64827161D01*
X219926012Y-64941447D01*
X219887917Y-65093828D01*
X219849821Y-65170019D01*
X219773631Y-65246209D01*
X219659345Y-65284304D01*
X219468869Y-65284304D01*
X220230774Y-64560495D02*
X220268869Y-64522400D01*
X220345059Y-64484304D01*
X220535536Y-64484304D01*
X220611726Y-64522400D01*
X220649821Y-64560495D01*
X220687917Y-64636685D01*
X220687917Y-64712876D01*
X220649821Y-64827161D01*
X220192678Y-65284304D01*
X220687917Y-65284304D01*
X220954583Y-64484304D02*
X221487917Y-64484304D01*
X221145059Y-65284304D01*
X231041752Y-65284304D02*
X231041752Y-64484304D01*
X231232228Y-64484304D01*
X231346514Y-64522400D01*
X231422704Y-64598590D01*
X231460800Y-64674780D01*
X231498895Y-64827161D01*
X231498895Y-64941447D01*
X231460800Y-65093828D01*
X231422704Y-65170019D01*
X231346514Y-65246209D01*
X231232228Y-65284304D01*
X231041752Y-65284304D01*
X231803657Y-64560495D02*
X231841752Y-64522400D01*
X231917942Y-64484304D01*
X232108419Y-64484304D01*
X232184609Y-64522400D01*
X232222704Y-64560495D01*
X232260800Y-64636685D01*
X232260800Y-64712876D01*
X232222704Y-64827161D01*
X231765561Y-65284304D01*
X232260800Y-65284304D01*
X232717942Y-64827161D02*
X232641752Y-64789066D01*
X232603657Y-64750971D01*
X232565561Y-64674780D01*
X232565561Y-64636685D01*
X232603657Y-64560495D01*
X232641752Y-64522400D01*
X232717942Y-64484304D01*
X232870323Y-64484304D01*
X232946514Y-64522400D01*
X232984609Y-64560495D01*
X233022704Y-64636685D01*
X233022704Y-64674780D01*
X232984609Y-64750971D01*
X232946514Y-64789066D01*
X232870323Y-64827161D01*
X232717942Y-64827161D01*
X232641752Y-64865257D01*
X232603657Y-64903352D01*
X232565561Y-64979542D01*
X232565561Y-65131923D01*
X232603657Y-65208114D01*
X232641752Y-65246209D01*
X232717942Y-65284304D01*
X232870323Y-65284304D01*
X232946514Y-65246209D01*
X232984609Y-65208114D01*
X233022704Y-65131923D01*
X233022704Y-64979542D01*
X232984609Y-64903352D01*
X232946514Y-64865257D01*
X232870323Y-64827161D01*
X254187518Y-65284304D02*
X254187518Y-64484304D01*
X254377994Y-64484304D01*
X254492280Y-64522400D01*
X254568470Y-64598590D01*
X254606566Y-64674780D01*
X254644661Y-64827161D01*
X254644661Y-64941447D01*
X254606566Y-65093828D01*
X254568470Y-65170019D01*
X254492280Y-65246209D01*
X254377994Y-65284304D01*
X254187518Y-65284304D01*
X254911327Y-64484304D02*
X255406566Y-64484304D01*
X255139899Y-64789066D01*
X255254185Y-64789066D01*
X255330375Y-64827161D01*
X255368470Y-64865257D01*
X255406566Y-64941447D01*
X255406566Y-65131923D01*
X255368470Y-65208114D01*
X255330375Y-65246209D01*
X255254185Y-65284304D01*
X255025613Y-65284304D01*
X254949423Y-65246209D01*
X254911327Y-65208114D01*
X255901804Y-64484304D02*
X255977994Y-64484304D01*
X256054185Y-64522400D01*
X256092280Y-64560495D01*
X256130375Y-64636685D01*
X256168470Y-64789066D01*
X256168470Y-64979542D01*
X256130375Y-65131923D01*
X256092280Y-65208114D01*
X256054185Y-65246209D01*
X255977994Y-65284304D01*
X255901804Y-65284304D01*
X255825613Y-65246209D01*
X255787518Y-65208114D01*
X255749423Y-65131923D01*
X255711327Y-64979542D01*
X255711327Y-64789066D01*
X255749423Y-64636685D01*
X255787518Y-64560495D01*
X255825613Y-64522400D01*
X255901804Y-64484304D01*
X265657901Y-65284304D02*
X265657901Y-64484304D01*
X265848377Y-64484304D01*
X265962663Y-64522400D01*
X266038853Y-64598590D01*
X266076949Y-64674780D01*
X266115044Y-64827161D01*
X266115044Y-64941447D01*
X266076949Y-65093828D01*
X266038853Y-65170019D01*
X265962663Y-65246209D01*
X265848377Y-65284304D01*
X265657901Y-65284304D01*
X266381710Y-64484304D02*
X266876949Y-64484304D01*
X266610282Y-64789066D01*
X266724568Y-64789066D01*
X266800758Y-64827161D01*
X266838853Y-64865257D01*
X266876949Y-64941447D01*
X266876949Y-65131923D01*
X266838853Y-65208114D01*
X266800758Y-65246209D01*
X266724568Y-65284304D01*
X266495996Y-65284304D01*
X266419806Y-65246209D01*
X266381710Y-65208114D01*
X267638853Y-65284304D02*
X267181710Y-65284304D01*
X267410282Y-65284304D02*
X267410282Y-64484304D01*
X267334091Y-64598590D01*
X267257901Y-64674780D01*
X267181710Y-64712876D01*
X259879231Y-72904304D02*
X259879231Y-72104304D01*
X260069707Y-72104304D01*
X260183993Y-72142400D01*
X260260183Y-72218590D01*
X260298279Y-72294780D01*
X260336374Y-72447161D01*
X260336374Y-72561447D01*
X260298279Y-72713828D01*
X260260183Y-72790019D01*
X260183993Y-72866209D01*
X260069707Y-72904304D01*
X259879231Y-72904304D01*
X260603040Y-72104304D02*
X261098279Y-72104304D01*
X260831612Y-72409066D01*
X260945898Y-72409066D01*
X261022088Y-72447161D01*
X261060183Y-72485257D01*
X261098279Y-72561447D01*
X261098279Y-72751923D01*
X261060183Y-72828114D01*
X261022088Y-72866209D01*
X260945898Y-72904304D01*
X260717326Y-72904304D01*
X260641136Y-72866209D01*
X260603040Y-72828114D01*
X261403040Y-72180495D02*
X261441136Y-72142400D01*
X261517326Y-72104304D01*
X261707802Y-72104304D01*
X261783993Y-72142400D01*
X261822088Y-72180495D01*
X261860183Y-72256685D01*
X261860183Y-72332876D01*
X261822088Y-72447161D01*
X261364945Y-72904304D01*
X261860183Y-72904304D01*
X250275018Y-70364304D02*
X250275018Y-69564304D01*
X250465494Y-69564304D01*
X250579780Y-69602400D01*
X250655970Y-69678590D01*
X250694066Y-69754780D01*
X250732161Y-69907161D01*
X250732161Y-70021447D01*
X250694066Y-70173828D01*
X250655970Y-70250019D01*
X250579780Y-70326209D01*
X250465494Y-70364304D01*
X250275018Y-70364304D01*
X250998827Y-69564304D02*
X251494066Y-69564304D01*
X251227399Y-69869066D01*
X251341685Y-69869066D01*
X251417875Y-69907161D01*
X251455970Y-69945257D01*
X251494066Y-70021447D01*
X251494066Y-70211923D01*
X251455970Y-70288114D01*
X251417875Y-70326209D01*
X251341685Y-70364304D01*
X251113113Y-70364304D01*
X251036923Y-70326209D01*
X250998827Y-70288114D01*
X251760732Y-69564304D02*
X252255970Y-69564304D01*
X251989304Y-69869066D01*
X252103589Y-69869066D01*
X252179780Y-69907161D01*
X252217875Y-69945257D01*
X252255970Y-70021447D01*
X252255970Y-70211923D01*
X252217875Y-70288114D01*
X252179780Y-70326209D01*
X252103589Y-70364304D01*
X251875018Y-70364304D01*
X251798827Y-70326209D01*
X251760732Y-70288114D01*
X79110922Y-67824304D02*
X79110922Y-67024304D01*
X79301398Y-67024304D01*
X79415684Y-67062400D01*
X79491874Y-67138590D01*
X79529970Y-67214780D01*
X79568065Y-67367161D01*
X79568065Y-67481447D01*
X79529970Y-67633828D01*
X79491874Y-67710019D01*
X79415684Y-67786209D01*
X79301398Y-67824304D01*
X79110922Y-67824304D01*
X79834731Y-67024304D02*
X80329970Y-67024304D01*
X80063303Y-67329066D01*
X80177589Y-67329066D01*
X80253779Y-67367161D01*
X80291874Y-67405257D01*
X80329970Y-67481447D01*
X80329970Y-67671923D01*
X80291874Y-67748114D01*
X80253779Y-67786209D01*
X80177589Y-67824304D01*
X79949017Y-67824304D01*
X79872827Y-67786209D01*
X79834731Y-67748114D01*
X81015684Y-67290971D02*
X81015684Y-67824304D01*
X80825208Y-66986209D02*
X80634731Y-67557638D01*
X81129970Y-67557638D01*
X90683805Y-67824304D02*
X90683805Y-67024304D01*
X90874281Y-67024304D01*
X90988567Y-67062400D01*
X91064757Y-67138590D01*
X91102853Y-67214780D01*
X91140948Y-67367161D01*
X91140948Y-67481447D01*
X91102853Y-67633828D01*
X91064757Y-67710019D01*
X90988567Y-67786209D01*
X90874281Y-67824304D01*
X90683805Y-67824304D01*
X91407614Y-67024304D02*
X91902853Y-67024304D01*
X91636186Y-67329066D01*
X91750472Y-67329066D01*
X91826662Y-67367161D01*
X91864757Y-67405257D01*
X91902853Y-67481447D01*
X91902853Y-67671923D01*
X91864757Y-67748114D01*
X91826662Y-67786209D01*
X91750472Y-67824304D01*
X91521900Y-67824304D01*
X91445710Y-67786209D01*
X91407614Y-67748114D01*
X92626662Y-67024304D02*
X92245710Y-67024304D01*
X92207614Y-67405257D01*
X92245710Y-67367161D01*
X92321900Y-67329066D01*
X92512376Y-67329066D01*
X92588567Y-67367161D01*
X92626662Y-67405257D01*
X92664757Y-67481447D01*
X92664757Y-67671923D01*
X92626662Y-67748114D01*
X92588567Y-67786209D01*
X92512376Y-67824304D01*
X92321900Y-67824304D01*
X92245710Y-67786209D01*
X92207614Y-67748114D01*
X102256688Y-67824304D02*
X102256688Y-67024304D01*
X102447164Y-67024304D01*
X102561450Y-67062400D01*
X102637640Y-67138590D01*
X102675736Y-67214780D01*
X102713831Y-67367161D01*
X102713831Y-67481447D01*
X102675736Y-67633828D01*
X102637640Y-67710019D01*
X102561450Y-67786209D01*
X102447164Y-67824304D01*
X102256688Y-67824304D01*
X102980497Y-67024304D02*
X103475736Y-67024304D01*
X103209069Y-67329066D01*
X103323355Y-67329066D01*
X103399545Y-67367161D01*
X103437640Y-67405257D01*
X103475736Y-67481447D01*
X103475736Y-67671923D01*
X103437640Y-67748114D01*
X103399545Y-67786209D01*
X103323355Y-67824304D01*
X103094783Y-67824304D01*
X103018593Y-67786209D01*
X102980497Y-67748114D01*
X104161450Y-67024304D02*
X104009069Y-67024304D01*
X103932878Y-67062400D01*
X103894783Y-67100495D01*
X103818593Y-67214780D01*
X103780497Y-67367161D01*
X103780497Y-67671923D01*
X103818593Y-67748114D01*
X103856688Y-67786209D01*
X103932878Y-67824304D01*
X104085259Y-67824304D01*
X104161450Y-67786209D01*
X104199545Y-67748114D01*
X104237640Y-67671923D01*
X104237640Y-67481447D01*
X104199545Y-67405257D01*
X104161450Y-67367161D01*
X104085259Y-67329066D01*
X103932878Y-67329066D01*
X103856688Y-67367161D01*
X103818593Y-67405257D01*
X103780497Y-67481447D01*
X148087401Y-67824304D02*
X148087401Y-67024304D01*
X148277877Y-67024304D01*
X148392163Y-67062400D01*
X148468353Y-67138590D01*
X148506449Y-67214780D01*
X148544544Y-67367161D01*
X148544544Y-67481447D01*
X148506449Y-67633828D01*
X148468353Y-67710019D01*
X148392163Y-67786209D01*
X148277877Y-67824304D01*
X148087401Y-67824304D01*
X148811210Y-67024304D02*
X149306449Y-67024304D01*
X149039782Y-67329066D01*
X149154068Y-67329066D01*
X149230258Y-67367161D01*
X149268353Y-67405257D01*
X149306449Y-67481447D01*
X149306449Y-67671923D01*
X149268353Y-67748114D01*
X149230258Y-67786209D01*
X149154068Y-67824304D01*
X148925496Y-67824304D01*
X148849306Y-67786209D01*
X148811210Y-67748114D01*
X149763591Y-67367161D02*
X149687401Y-67329066D01*
X149649306Y-67290971D01*
X149611210Y-67214780D01*
X149611210Y-67176685D01*
X149649306Y-67100495D01*
X149687401Y-67062400D01*
X149763591Y-67024304D01*
X149915972Y-67024304D01*
X149992163Y-67062400D01*
X150030258Y-67100495D01*
X150068353Y-67176685D01*
X150068353Y-67214780D01*
X150030258Y-67290971D01*
X149992163Y-67329066D01*
X149915972Y-67367161D01*
X149763591Y-67367161D01*
X149687401Y-67405257D01*
X149649306Y-67443352D01*
X149611210Y-67519542D01*
X149611210Y-67671923D01*
X149649306Y-67748114D01*
X149687401Y-67786209D01*
X149763591Y-67824304D01*
X149915972Y-67824304D01*
X149992163Y-67786209D01*
X150030258Y-67748114D01*
X150068353Y-67671923D01*
X150068353Y-67519542D01*
X150030258Y-67443352D01*
X149992163Y-67405257D01*
X149915972Y-67367161D01*
X159660284Y-67824304D02*
X159660284Y-67024304D01*
X159850760Y-67024304D01*
X159965046Y-67062400D01*
X160041236Y-67138590D01*
X160079332Y-67214780D01*
X160117427Y-67367161D01*
X160117427Y-67481447D01*
X160079332Y-67633828D01*
X160041236Y-67710019D01*
X159965046Y-67786209D01*
X159850760Y-67824304D01*
X159660284Y-67824304D01*
X160384093Y-67024304D02*
X160879332Y-67024304D01*
X160612665Y-67329066D01*
X160726951Y-67329066D01*
X160803141Y-67367161D01*
X160841236Y-67405257D01*
X160879332Y-67481447D01*
X160879332Y-67671923D01*
X160841236Y-67748114D01*
X160803141Y-67786209D01*
X160726951Y-67824304D01*
X160498379Y-67824304D01*
X160422189Y-67786209D01*
X160384093Y-67748114D01*
X161260284Y-67824304D02*
X161412665Y-67824304D01*
X161488855Y-67786209D01*
X161526951Y-67748114D01*
X161603141Y-67633828D01*
X161641236Y-67481447D01*
X161641236Y-67176685D01*
X161603141Y-67100495D01*
X161565046Y-67062400D01*
X161488855Y-67024304D01*
X161336474Y-67024304D01*
X161260284Y-67062400D01*
X161222189Y-67100495D01*
X161184093Y-67176685D01*
X161184093Y-67367161D01*
X161222189Y-67443352D01*
X161260284Y-67481447D01*
X161336474Y-67519542D01*
X161488855Y-67519542D01*
X161565046Y-67481447D01*
X161603141Y-67443352D01*
X161641236Y-67367161D01*
X171233167Y-67824304D02*
X171233167Y-67024304D01*
X171423643Y-67024304D01*
X171537929Y-67062400D01*
X171614119Y-67138590D01*
X171652215Y-67214780D01*
X171690310Y-67367161D01*
X171690310Y-67481447D01*
X171652215Y-67633828D01*
X171614119Y-67710019D01*
X171537929Y-67786209D01*
X171423643Y-67824304D01*
X171233167Y-67824304D01*
X172376024Y-67290971D02*
X172376024Y-67824304D01*
X172185548Y-66986209D02*
X171995072Y-67557638D01*
X172490310Y-67557638D01*
X172947453Y-67024304D02*
X173023643Y-67024304D01*
X173099834Y-67062400D01*
X173137929Y-67100495D01*
X173176024Y-67176685D01*
X173214119Y-67329066D01*
X173214119Y-67519542D01*
X173176024Y-67671923D01*
X173137929Y-67748114D01*
X173099834Y-67786209D01*
X173023643Y-67824304D01*
X172947453Y-67824304D01*
X172871262Y-67786209D01*
X172833167Y-67748114D01*
X172795072Y-67671923D01*
X172756976Y-67519542D01*
X172756976Y-67329066D01*
X172795072Y-67176685D01*
X172833167Y-67100495D01*
X172871262Y-67062400D01*
X172947453Y-67024304D01*
X182806050Y-67824304D02*
X182806050Y-67024304D01*
X182996526Y-67024304D01*
X183110812Y-67062400D01*
X183187002Y-67138590D01*
X183225098Y-67214780D01*
X183263193Y-67367161D01*
X183263193Y-67481447D01*
X183225098Y-67633828D01*
X183187002Y-67710019D01*
X183110812Y-67786209D01*
X182996526Y-67824304D01*
X182806050Y-67824304D01*
X183948907Y-67290971D02*
X183948907Y-67824304D01*
X183758431Y-66986209D02*
X183567955Y-67557638D01*
X184063193Y-67557638D01*
X184787002Y-67824304D02*
X184329859Y-67824304D01*
X184558431Y-67824304D02*
X184558431Y-67024304D01*
X184482240Y-67138590D01*
X184406050Y-67214780D01*
X184329859Y-67252876D01*
X194378933Y-67824304D02*
X194378933Y-67024304D01*
X194569409Y-67024304D01*
X194683695Y-67062400D01*
X194759885Y-67138590D01*
X194797981Y-67214780D01*
X194836076Y-67367161D01*
X194836076Y-67481447D01*
X194797981Y-67633828D01*
X194759885Y-67710019D01*
X194683695Y-67786209D01*
X194569409Y-67824304D01*
X194378933Y-67824304D01*
X195521790Y-67290971D02*
X195521790Y-67824304D01*
X195331314Y-66986209D02*
X195140838Y-67557638D01*
X195636076Y-67557638D01*
X195902742Y-67100495D02*
X195940838Y-67062400D01*
X196017028Y-67024304D01*
X196207504Y-67024304D01*
X196283695Y-67062400D01*
X196321790Y-67100495D01*
X196359885Y-67176685D01*
X196359885Y-67252876D01*
X196321790Y-67367161D01*
X195864647Y-67824304D01*
X196359885Y-67824304D01*
X205951816Y-67824304D02*
X205951816Y-67024304D01*
X206142292Y-67024304D01*
X206256578Y-67062400D01*
X206332768Y-67138590D01*
X206370864Y-67214780D01*
X206408959Y-67367161D01*
X206408959Y-67481447D01*
X206370864Y-67633828D01*
X206332768Y-67710019D01*
X206256578Y-67786209D01*
X206142292Y-67824304D01*
X205951816Y-67824304D01*
X207094673Y-67290971D02*
X207094673Y-67824304D01*
X206904197Y-66986209D02*
X206713721Y-67557638D01*
X207208959Y-67557638D01*
X207437530Y-67024304D02*
X207932768Y-67024304D01*
X207666102Y-67329066D01*
X207780387Y-67329066D01*
X207856578Y-67367161D01*
X207894673Y-67405257D01*
X207932768Y-67481447D01*
X207932768Y-67671923D01*
X207894673Y-67748114D01*
X207856578Y-67786209D01*
X207780387Y-67824304D01*
X207551816Y-67824304D01*
X207475625Y-67786209D01*
X207437530Y-67748114D01*
X217524699Y-67824304D02*
X217524699Y-67024304D01*
X217715175Y-67024304D01*
X217829461Y-67062400D01*
X217905651Y-67138590D01*
X217943747Y-67214780D01*
X217981842Y-67367161D01*
X217981842Y-67481447D01*
X217943747Y-67633828D01*
X217905651Y-67710019D01*
X217829461Y-67786209D01*
X217715175Y-67824304D01*
X217524699Y-67824304D01*
X218667556Y-67290971D02*
X218667556Y-67824304D01*
X218477080Y-66986209D02*
X218286604Y-67557638D01*
X218781842Y-67557638D01*
X219429461Y-67290971D02*
X219429461Y-67824304D01*
X219238985Y-66986209D02*
X219048508Y-67557638D01*
X219543747Y-67557638D01*
X229097582Y-67824304D02*
X229097582Y-67024304D01*
X229288058Y-67024304D01*
X229402344Y-67062400D01*
X229478534Y-67138590D01*
X229516630Y-67214780D01*
X229554725Y-67367161D01*
X229554725Y-67481447D01*
X229516630Y-67633828D01*
X229478534Y-67710019D01*
X229402344Y-67786209D01*
X229288058Y-67824304D01*
X229097582Y-67824304D01*
X230240439Y-67290971D02*
X230240439Y-67824304D01*
X230049963Y-66986209D02*
X229859487Y-67557638D01*
X230354725Y-67557638D01*
X231040439Y-67024304D02*
X230659487Y-67024304D01*
X230621391Y-67405257D01*
X230659487Y-67367161D01*
X230735677Y-67329066D01*
X230926153Y-67329066D01*
X231002344Y-67367161D01*
X231040439Y-67405257D01*
X231078534Y-67481447D01*
X231078534Y-67671923D01*
X231040439Y-67748114D01*
X231002344Y-67786209D01*
X230926153Y-67824304D01*
X230735677Y-67824304D01*
X230659487Y-67786209D01*
X230621391Y-67748114D01*
X240670465Y-67824304D02*
X240670465Y-67024304D01*
X240860941Y-67024304D01*
X240975227Y-67062400D01*
X241051417Y-67138590D01*
X241089513Y-67214780D01*
X241127608Y-67367161D01*
X241127608Y-67481447D01*
X241089513Y-67633828D01*
X241051417Y-67710019D01*
X240975227Y-67786209D01*
X240860941Y-67824304D01*
X240670465Y-67824304D01*
X241813322Y-67290971D02*
X241813322Y-67824304D01*
X241622846Y-66986209D02*
X241432370Y-67557638D01*
X241927608Y-67557638D01*
X242575227Y-67024304D02*
X242422846Y-67024304D01*
X242346655Y-67062400D01*
X242308560Y-67100495D01*
X242232370Y-67214780D01*
X242194274Y-67367161D01*
X242194274Y-67671923D01*
X242232370Y-67748114D01*
X242270465Y-67786209D01*
X242346655Y-67824304D01*
X242499036Y-67824304D01*
X242575227Y-67786209D01*
X242613322Y-67748114D01*
X242651417Y-67671923D01*
X242651417Y-67481447D01*
X242613322Y-67405257D01*
X242575227Y-67367161D01*
X242499036Y-67329066D01*
X242346655Y-67329066D01*
X242270465Y-67367161D01*
X242232370Y-67405257D01*
X242194274Y-67481447D01*
X252243348Y-67824304D02*
X252243348Y-67024304D01*
X252433824Y-67024304D01*
X252548110Y-67062400D01*
X252624300Y-67138590D01*
X252662396Y-67214780D01*
X252700491Y-67367161D01*
X252700491Y-67481447D01*
X252662396Y-67633828D01*
X252624300Y-67710019D01*
X252548110Y-67786209D01*
X252433824Y-67824304D01*
X252243348Y-67824304D01*
X253386205Y-67290971D02*
X253386205Y-67824304D01*
X253195729Y-66986209D02*
X253005253Y-67557638D01*
X253500491Y-67557638D01*
X253729062Y-67024304D02*
X254262396Y-67024304D01*
X253919538Y-67824304D01*
X263816231Y-67824304D02*
X263816231Y-67024304D01*
X264006707Y-67024304D01*
X264120993Y-67062400D01*
X264197183Y-67138590D01*
X264235279Y-67214780D01*
X264273374Y-67367161D01*
X264273374Y-67481447D01*
X264235279Y-67633828D01*
X264197183Y-67710019D01*
X264120993Y-67786209D01*
X264006707Y-67824304D01*
X263816231Y-67824304D01*
X264959088Y-67290971D02*
X264959088Y-67824304D01*
X264768612Y-66986209D02*
X264578136Y-67557638D01*
X265073374Y-67557638D01*
X265492421Y-67367161D02*
X265416231Y-67329066D01*
X265378136Y-67290971D01*
X265340040Y-67214780D01*
X265340040Y-67176685D01*
X265378136Y-67100495D01*
X265416231Y-67062400D01*
X265492421Y-67024304D01*
X265644802Y-67024304D01*
X265720993Y-67062400D01*
X265759088Y-67100495D01*
X265797183Y-67176685D01*
X265797183Y-67214780D01*
X265759088Y-67290971D01*
X265720993Y-67329066D01*
X265644802Y-67367161D01*
X265492421Y-67367161D01*
X265416231Y-67405257D01*
X265378136Y-67443352D01*
X265340040Y-67519542D01*
X265340040Y-67671923D01*
X265378136Y-67748114D01*
X265416231Y-67786209D01*
X265492421Y-67824304D01*
X265644802Y-67824304D01*
X265720993Y-67786209D01*
X265759088Y-67748114D01*
X265797183Y-67671923D01*
X265797183Y-67519542D01*
X265759088Y-67443352D01*
X265720993Y-67405257D01*
X265644802Y-67367161D01*
X258105079Y-75418904D02*
X258105079Y-74618904D01*
X258295555Y-74618904D01*
X258409841Y-74657000D01*
X258486031Y-74733190D01*
X258524127Y-74809380D01*
X258562222Y-74961761D01*
X258562222Y-75076047D01*
X258524127Y-75228428D01*
X258486031Y-75304619D01*
X258409841Y-75380809D01*
X258295555Y-75418904D01*
X258105079Y-75418904D01*
X259247936Y-74885571D02*
X259247936Y-75418904D01*
X259057460Y-74580809D02*
X258866984Y-75152238D01*
X259362222Y-75152238D01*
X259705079Y-75418904D02*
X259857460Y-75418904D01*
X259933650Y-75380809D01*
X259971746Y-75342714D01*
X260047936Y-75228428D01*
X260086031Y-75076047D01*
X260086031Y-74771285D01*
X260047936Y-74695095D01*
X260009841Y-74657000D01*
X259933650Y-74618904D01*
X259781269Y-74618904D01*
X259705079Y-74657000D01*
X259666984Y-74695095D01*
X259628888Y-74771285D01*
X259628888Y-74961761D01*
X259666984Y-75037952D01*
X259705079Y-75076047D01*
X259781269Y-75114142D01*
X259933650Y-75114142D01*
X260009841Y-75076047D01*
X260047936Y-75037952D01*
X260086031Y-74961761D01*
X248306348Y-72904304D02*
X248306348Y-72104304D01*
X248496824Y-72104304D01*
X248611110Y-72142400D01*
X248687300Y-72218590D01*
X248725396Y-72294780D01*
X248763491Y-72447161D01*
X248763491Y-72561447D01*
X248725396Y-72713828D01*
X248687300Y-72790019D01*
X248611110Y-72866209D01*
X248496824Y-72904304D01*
X248306348Y-72904304D01*
X249487300Y-72104304D02*
X249106348Y-72104304D01*
X249068253Y-72485257D01*
X249106348Y-72447161D01*
X249182538Y-72409066D01*
X249373015Y-72409066D01*
X249449205Y-72447161D01*
X249487300Y-72485257D01*
X249525396Y-72561447D01*
X249525396Y-72751923D01*
X249487300Y-72828114D01*
X249449205Y-72866209D01*
X249373015Y-72904304D01*
X249182538Y-72904304D01*
X249106348Y-72866209D01*
X249068253Y-72828114D01*
X250020634Y-72104304D02*
X250096824Y-72104304D01*
X250173015Y-72142400D01*
X250211110Y-72180495D01*
X250249205Y-72256685D01*
X250287300Y-72409066D01*
X250287300Y-72599542D01*
X250249205Y-72751923D01*
X250211110Y-72828114D01*
X250173015Y-72866209D01*
X250096824Y-72904304D01*
X250020634Y-72904304D01*
X249944443Y-72866209D01*
X249906348Y-72828114D01*
X249868253Y-72751923D01*
X249830157Y-72599542D01*
X249830157Y-72409066D01*
X249868253Y-72256685D01*
X249906348Y-72180495D01*
X249944443Y-72142400D01*
X250020634Y-72104304D01*
X77158071Y-70364304D02*
X77158071Y-69564304D01*
X77348547Y-69564304D01*
X77462833Y-69602400D01*
X77539023Y-69678590D01*
X77577119Y-69754780D01*
X77615214Y-69907161D01*
X77615214Y-70021447D01*
X77577119Y-70173828D01*
X77539023Y-70250019D01*
X77462833Y-70326209D01*
X77348547Y-70364304D01*
X77158071Y-70364304D01*
X78339023Y-69564304D02*
X77958071Y-69564304D01*
X77919976Y-69945257D01*
X77958071Y-69907161D01*
X78034261Y-69869066D01*
X78224738Y-69869066D01*
X78300928Y-69907161D01*
X78339023Y-69945257D01*
X78377119Y-70021447D01*
X78377119Y-70211923D01*
X78339023Y-70288114D01*
X78300928Y-70326209D01*
X78224738Y-70364304D01*
X78034261Y-70364304D01*
X77958071Y-70326209D01*
X77919976Y-70288114D01*
X79139023Y-70364304D02*
X78681880Y-70364304D01*
X78910452Y-70364304D02*
X78910452Y-69564304D01*
X78834261Y-69678590D01*
X78758071Y-69754780D01*
X78681880Y-69792876D01*
X88730954Y-70364304D02*
X88730954Y-69564304D01*
X88921430Y-69564304D01*
X89035716Y-69602400D01*
X89111906Y-69678590D01*
X89150002Y-69754780D01*
X89188097Y-69907161D01*
X89188097Y-70021447D01*
X89150002Y-70173828D01*
X89111906Y-70250019D01*
X89035716Y-70326209D01*
X88921430Y-70364304D01*
X88730954Y-70364304D01*
X89911906Y-69564304D02*
X89530954Y-69564304D01*
X89492859Y-69945257D01*
X89530954Y-69907161D01*
X89607144Y-69869066D01*
X89797621Y-69869066D01*
X89873811Y-69907161D01*
X89911906Y-69945257D01*
X89950002Y-70021447D01*
X89950002Y-70211923D01*
X89911906Y-70288114D01*
X89873811Y-70326209D01*
X89797621Y-70364304D01*
X89607144Y-70364304D01*
X89530954Y-70326209D01*
X89492859Y-70288114D01*
X90254763Y-69640495D02*
X90292859Y-69602400D01*
X90369049Y-69564304D01*
X90559525Y-69564304D01*
X90635716Y-69602400D01*
X90673811Y-69640495D01*
X90711906Y-69716685D01*
X90711906Y-69792876D01*
X90673811Y-69907161D01*
X90216668Y-70364304D01*
X90711906Y-70364304D01*
X100406337Y-70364304D02*
X100406337Y-69564304D01*
X100596813Y-69564304D01*
X100711099Y-69602400D01*
X100787289Y-69678590D01*
X100825385Y-69754780D01*
X100863480Y-69907161D01*
X100863480Y-70021447D01*
X100825385Y-70173828D01*
X100787289Y-70250019D01*
X100711099Y-70326209D01*
X100596813Y-70364304D01*
X100406337Y-70364304D01*
X101587289Y-69564304D02*
X101206337Y-69564304D01*
X101168242Y-69945257D01*
X101206337Y-69907161D01*
X101282527Y-69869066D01*
X101473004Y-69869066D01*
X101549194Y-69907161D01*
X101587289Y-69945257D01*
X101625385Y-70021447D01*
X101625385Y-70211923D01*
X101587289Y-70288114D01*
X101549194Y-70326209D01*
X101473004Y-70364304D01*
X101282527Y-70364304D01*
X101206337Y-70326209D01*
X101168242Y-70288114D01*
X101892051Y-69564304D02*
X102387289Y-69564304D01*
X102120623Y-69869066D01*
X102234908Y-69869066D01*
X102311099Y-69907161D01*
X102349194Y-69945257D01*
X102387289Y-70021447D01*
X102387289Y-70211923D01*
X102349194Y-70288114D01*
X102311099Y-70326209D01*
X102234908Y-70364304D01*
X102006337Y-70364304D01*
X101930146Y-70326209D01*
X101892051Y-70288114D01*
X111979220Y-70364304D02*
X111979220Y-69564304D01*
X112169696Y-69564304D01*
X112283982Y-69602400D01*
X112360172Y-69678590D01*
X112398268Y-69754780D01*
X112436363Y-69907161D01*
X112436363Y-70021447D01*
X112398268Y-70173828D01*
X112360172Y-70250019D01*
X112283982Y-70326209D01*
X112169696Y-70364304D01*
X111979220Y-70364304D01*
X113160172Y-69564304D02*
X112779220Y-69564304D01*
X112741125Y-69945257D01*
X112779220Y-69907161D01*
X112855410Y-69869066D01*
X113045887Y-69869066D01*
X113122077Y-69907161D01*
X113160172Y-69945257D01*
X113198268Y-70021447D01*
X113198268Y-70211923D01*
X113160172Y-70288114D01*
X113122077Y-70326209D01*
X113045887Y-70364304D01*
X112855410Y-70364304D01*
X112779220Y-70326209D01*
X112741125Y-70288114D01*
X113883982Y-69830971D02*
X113883982Y-70364304D01*
X113693506Y-69526209D02*
X113503029Y-70097638D01*
X113998268Y-70097638D01*
X146221571Y-70364304D02*
X146221571Y-69564304D01*
X146412047Y-69564304D01*
X146526333Y-69602400D01*
X146602523Y-69678590D01*
X146640619Y-69754780D01*
X146678714Y-69907161D01*
X146678714Y-70021447D01*
X146640619Y-70173828D01*
X146602523Y-70250019D01*
X146526333Y-70326209D01*
X146412047Y-70364304D01*
X146221571Y-70364304D01*
X147402523Y-69564304D02*
X147021571Y-69564304D01*
X146983476Y-69945257D01*
X147021571Y-69907161D01*
X147097761Y-69869066D01*
X147288238Y-69869066D01*
X147364428Y-69907161D01*
X147402523Y-69945257D01*
X147440619Y-70021447D01*
X147440619Y-70211923D01*
X147402523Y-70288114D01*
X147364428Y-70326209D01*
X147288238Y-70364304D01*
X147097761Y-70364304D01*
X147021571Y-70326209D01*
X146983476Y-70288114D01*
X148164428Y-69564304D02*
X147783476Y-69564304D01*
X147745380Y-69945257D01*
X147783476Y-69907161D01*
X147859666Y-69869066D01*
X148050142Y-69869066D01*
X148126333Y-69907161D01*
X148164428Y-69945257D01*
X148202523Y-70021447D01*
X148202523Y-70211923D01*
X148164428Y-70288114D01*
X148126333Y-70326209D01*
X148050142Y-70364304D01*
X147859666Y-70364304D01*
X147783476Y-70326209D01*
X147745380Y-70288114D01*
X157691954Y-70364304D02*
X157691954Y-69564304D01*
X157882430Y-69564304D01*
X157996716Y-69602400D01*
X158072906Y-69678590D01*
X158111002Y-69754780D01*
X158149097Y-69907161D01*
X158149097Y-70021447D01*
X158111002Y-70173828D01*
X158072906Y-70250019D01*
X157996716Y-70326209D01*
X157882430Y-70364304D01*
X157691954Y-70364304D01*
X158872906Y-69564304D02*
X158491954Y-69564304D01*
X158453859Y-69945257D01*
X158491954Y-69907161D01*
X158568144Y-69869066D01*
X158758621Y-69869066D01*
X158834811Y-69907161D01*
X158872906Y-69945257D01*
X158911002Y-70021447D01*
X158911002Y-70211923D01*
X158872906Y-70288114D01*
X158834811Y-70326209D01*
X158758621Y-70364304D01*
X158568144Y-70364304D01*
X158491954Y-70326209D01*
X158453859Y-70288114D01*
X159596716Y-69564304D02*
X159444335Y-69564304D01*
X159368144Y-69602400D01*
X159330049Y-69640495D01*
X159253859Y-69754780D01*
X159215763Y-69907161D01*
X159215763Y-70211923D01*
X159253859Y-70288114D01*
X159291954Y-70326209D01*
X159368144Y-70364304D01*
X159520525Y-70364304D01*
X159596716Y-70326209D01*
X159634811Y-70288114D01*
X159672906Y-70211923D01*
X159672906Y-70021447D01*
X159634811Y-69945257D01*
X159596716Y-69907161D01*
X159520525Y-69869066D01*
X159368144Y-69869066D01*
X159291954Y-69907161D01*
X159253859Y-69945257D01*
X159215763Y-70021447D01*
X169264837Y-70364304D02*
X169264837Y-69564304D01*
X169455313Y-69564304D01*
X169569599Y-69602400D01*
X169645789Y-69678590D01*
X169683885Y-69754780D01*
X169721980Y-69907161D01*
X169721980Y-70021447D01*
X169683885Y-70173828D01*
X169645789Y-70250019D01*
X169569599Y-70326209D01*
X169455313Y-70364304D01*
X169264837Y-70364304D01*
X170445789Y-69564304D02*
X170064837Y-69564304D01*
X170026742Y-69945257D01*
X170064837Y-69907161D01*
X170141027Y-69869066D01*
X170331504Y-69869066D01*
X170407694Y-69907161D01*
X170445789Y-69945257D01*
X170483885Y-70021447D01*
X170483885Y-70211923D01*
X170445789Y-70288114D01*
X170407694Y-70326209D01*
X170331504Y-70364304D01*
X170141027Y-70364304D01*
X170064837Y-70326209D01*
X170026742Y-70288114D01*
X170750551Y-69564304D02*
X171283885Y-69564304D01*
X170941027Y-70364304D01*
X180837720Y-70364304D02*
X180837720Y-69564304D01*
X181028196Y-69564304D01*
X181142482Y-69602400D01*
X181218672Y-69678590D01*
X181256768Y-69754780D01*
X181294863Y-69907161D01*
X181294863Y-70021447D01*
X181256768Y-70173828D01*
X181218672Y-70250019D01*
X181142482Y-70326209D01*
X181028196Y-70364304D01*
X180837720Y-70364304D01*
X182018672Y-69564304D02*
X181637720Y-69564304D01*
X181599625Y-69945257D01*
X181637720Y-69907161D01*
X181713910Y-69869066D01*
X181904387Y-69869066D01*
X181980577Y-69907161D01*
X182018672Y-69945257D01*
X182056768Y-70021447D01*
X182056768Y-70211923D01*
X182018672Y-70288114D01*
X181980577Y-70326209D01*
X181904387Y-70364304D01*
X181713910Y-70364304D01*
X181637720Y-70326209D01*
X181599625Y-70288114D01*
X182513910Y-69907161D02*
X182437720Y-69869066D01*
X182399625Y-69830971D01*
X182361529Y-69754780D01*
X182361529Y-69716685D01*
X182399625Y-69640495D01*
X182437720Y-69602400D01*
X182513910Y-69564304D01*
X182666291Y-69564304D01*
X182742482Y-69602400D01*
X182780577Y-69640495D01*
X182818672Y-69716685D01*
X182818672Y-69754780D01*
X182780577Y-69830971D01*
X182742482Y-69869066D01*
X182666291Y-69907161D01*
X182513910Y-69907161D01*
X182437720Y-69945257D01*
X182399625Y-69983352D01*
X182361529Y-70059542D01*
X182361529Y-70211923D01*
X182399625Y-70288114D01*
X182437720Y-70326209D01*
X182513910Y-70364304D01*
X182666291Y-70364304D01*
X182742482Y-70326209D01*
X182780577Y-70288114D01*
X182818672Y-70211923D01*
X182818672Y-70059542D01*
X182780577Y-69983352D01*
X182742482Y-69945257D01*
X182666291Y-69907161D01*
X192410603Y-70364304D02*
X192410603Y-69564304D01*
X192601079Y-69564304D01*
X192715365Y-69602400D01*
X192791555Y-69678590D01*
X192829651Y-69754780D01*
X192867746Y-69907161D01*
X192867746Y-70021447D01*
X192829651Y-70173828D01*
X192791555Y-70250019D01*
X192715365Y-70326209D01*
X192601079Y-70364304D01*
X192410603Y-70364304D01*
X193591555Y-69564304D02*
X193210603Y-69564304D01*
X193172508Y-69945257D01*
X193210603Y-69907161D01*
X193286793Y-69869066D01*
X193477270Y-69869066D01*
X193553460Y-69907161D01*
X193591555Y-69945257D01*
X193629651Y-70021447D01*
X193629651Y-70211923D01*
X193591555Y-70288114D01*
X193553460Y-70326209D01*
X193477270Y-70364304D01*
X193286793Y-70364304D01*
X193210603Y-70326209D01*
X193172508Y-70288114D01*
X194010603Y-70364304D02*
X194162984Y-70364304D01*
X194239174Y-70326209D01*
X194277270Y-70288114D01*
X194353460Y-70173828D01*
X194391555Y-70021447D01*
X194391555Y-69716685D01*
X194353460Y-69640495D01*
X194315365Y-69602400D01*
X194239174Y-69564304D01*
X194086793Y-69564304D01*
X194010603Y-69602400D01*
X193972508Y-69640495D01*
X193934412Y-69716685D01*
X193934412Y-69907161D01*
X193972508Y-69983352D01*
X194010603Y-70021447D01*
X194086793Y-70059542D01*
X194239174Y-70059542D01*
X194315365Y-70021447D01*
X194353460Y-69983352D01*
X194391555Y-69907161D01*
X204085986Y-70389704D02*
X204085986Y-69589704D01*
X204276462Y-69589704D01*
X204390748Y-69627800D01*
X204466938Y-69703990D01*
X204505034Y-69780180D01*
X204543129Y-69932561D01*
X204543129Y-70046847D01*
X204505034Y-70199228D01*
X204466938Y-70275419D01*
X204390748Y-70351609D01*
X204276462Y-70389704D01*
X204085986Y-70389704D01*
X205228843Y-69589704D02*
X205076462Y-69589704D01*
X205000272Y-69627800D01*
X204962176Y-69665895D01*
X204885986Y-69780180D01*
X204847891Y-69932561D01*
X204847891Y-70237323D01*
X204885986Y-70313514D01*
X204924081Y-70351609D01*
X205000272Y-70389704D01*
X205152653Y-70389704D01*
X205228843Y-70351609D01*
X205266938Y-70313514D01*
X205305034Y-70237323D01*
X205305034Y-70046847D01*
X205266938Y-69970657D01*
X205228843Y-69932561D01*
X205152653Y-69894466D01*
X205000272Y-69894466D01*
X204924081Y-69932561D01*
X204885986Y-69970657D01*
X204847891Y-70046847D01*
X205800272Y-69589704D02*
X205876462Y-69589704D01*
X205952653Y-69627800D01*
X205990748Y-69665895D01*
X206028843Y-69742085D01*
X206066938Y-69894466D01*
X206066938Y-70084942D01*
X206028843Y-70237323D01*
X205990748Y-70313514D01*
X205952653Y-70351609D01*
X205876462Y-70389704D01*
X205800272Y-70389704D01*
X205724081Y-70351609D01*
X205685986Y-70313514D01*
X205647891Y-70237323D01*
X205609795Y-70084942D01*
X205609795Y-69894466D01*
X205647891Y-69742085D01*
X205685986Y-69665895D01*
X205724081Y-69627800D01*
X205800272Y-69589704D01*
X215556369Y-70364304D02*
X215556369Y-69564304D01*
X215746845Y-69564304D01*
X215861131Y-69602400D01*
X215937321Y-69678590D01*
X215975417Y-69754780D01*
X216013512Y-69907161D01*
X216013512Y-70021447D01*
X215975417Y-70173828D01*
X215937321Y-70250019D01*
X215861131Y-70326209D01*
X215746845Y-70364304D01*
X215556369Y-70364304D01*
X216699226Y-69564304D02*
X216546845Y-69564304D01*
X216470655Y-69602400D01*
X216432559Y-69640495D01*
X216356369Y-69754780D01*
X216318274Y-69907161D01*
X216318274Y-70211923D01*
X216356369Y-70288114D01*
X216394464Y-70326209D01*
X216470655Y-70364304D01*
X216623036Y-70364304D01*
X216699226Y-70326209D01*
X216737321Y-70288114D01*
X216775417Y-70211923D01*
X216775417Y-70021447D01*
X216737321Y-69945257D01*
X216699226Y-69907161D01*
X216623036Y-69869066D01*
X216470655Y-69869066D01*
X216394464Y-69907161D01*
X216356369Y-69945257D01*
X216318274Y-70021447D01*
X217537321Y-70364304D02*
X217080178Y-70364304D01*
X217308750Y-70364304D02*
X217308750Y-69564304D01*
X217232559Y-69678590D01*
X217156369Y-69754780D01*
X217080178Y-69792876D01*
X227129252Y-70364304D02*
X227129252Y-69564304D01*
X227319728Y-69564304D01*
X227434014Y-69602400D01*
X227510204Y-69678590D01*
X227548300Y-69754780D01*
X227586395Y-69907161D01*
X227586395Y-70021447D01*
X227548300Y-70173828D01*
X227510204Y-70250019D01*
X227434014Y-70326209D01*
X227319728Y-70364304D01*
X227129252Y-70364304D01*
X228272109Y-69564304D02*
X228119728Y-69564304D01*
X228043538Y-69602400D01*
X228005442Y-69640495D01*
X227929252Y-69754780D01*
X227891157Y-69907161D01*
X227891157Y-70211923D01*
X227929252Y-70288114D01*
X227967347Y-70326209D01*
X228043538Y-70364304D01*
X228195919Y-70364304D01*
X228272109Y-70326209D01*
X228310204Y-70288114D01*
X228348300Y-70211923D01*
X228348300Y-70021447D01*
X228310204Y-69945257D01*
X228272109Y-69907161D01*
X228195919Y-69869066D01*
X228043538Y-69869066D01*
X227967347Y-69907161D01*
X227929252Y-69945257D01*
X227891157Y-70021447D01*
X228653061Y-69640495D02*
X228691157Y-69602400D01*
X228767347Y-69564304D01*
X228957823Y-69564304D01*
X229034014Y-69602400D01*
X229072109Y-69640495D01*
X229110204Y-69716685D01*
X229110204Y-69792876D01*
X229072109Y-69907161D01*
X228614966Y-70364304D01*
X229110204Y-70364304D01*
X238702135Y-70364304D02*
X238702135Y-69564304D01*
X238892611Y-69564304D01*
X239006897Y-69602400D01*
X239083087Y-69678590D01*
X239121183Y-69754780D01*
X239159278Y-69907161D01*
X239159278Y-70021447D01*
X239121183Y-70173828D01*
X239083087Y-70250019D01*
X239006897Y-70326209D01*
X238892611Y-70364304D01*
X238702135Y-70364304D01*
X239844992Y-69564304D02*
X239692611Y-69564304D01*
X239616421Y-69602400D01*
X239578325Y-69640495D01*
X239502135Y-69754780D01*
X239464040Y-69907161D01*
X239464040Y-70211923D01*
X239502135Y-70288114D01*
X239540230Y-70326209D01*
X239616421Y-70364304D01*
X239768802Y-70364304D01*
X239844992Y-70326209D01*
X239883087Y-70288114D01*
X239921183Y-70211923D01*
X239921183Y-70021447D01*
X239883087Y-69945257D01*
X239844992Y-69907161D01*
X239768802Y-69869066D01*
X239616421Y-69869066D01*
X239540230Y-69907161D01*
X239502135Y-69945257D01*
X239464040Y-70021447D01*
X240187849Y-69564304D02*
X240683087Y-69564304D01*
X240416421Y-69869066D01*
X240530706Y-69869066D01*
X240606897Y-69907161D01*
X240644992Y-69945257D01*
X240683087Y-70021447D01*
X240683087Y-70211923D01*
X240644992Y-70288114D01*
X240606897Y-70326209D01*
X240530706Y-70364304D01*
X240302135Y-70364304D01*
X240225944Y-70326209D01*
X240187849Y-70288114D01*
X75300922Y-72904304D02*
X75300922Y-72104304D01*
X75491398Y-72104304D01*
X75605684Y-72142400D01*
X75681874Y-72218590D01*
X75719970Y-72294780D01*
X75758065Y-72447161D01*
X75758065Y-72561447D01*
X75719970Y-72713828D01*
X75681874Y-72790019D01*
X75605684Y-72866209D01*
X75491398Y-72904304D01*
X75300922Y-72904304D01*
X76443779Y-72104304D02*
X76291398Y-72104304D01*
X76215208Y-72142400D01*
X76177112Y-72180495D01*
X76100922Y-72294780D01*
X76062827Y-72447161D01*
X76062827Y-72751923D01*
X76100922Y-72828114D01*
X76139017Y-72866209D01*
X76215208Y-72904304D01*
X76367589Y-72904304D01*
X76443779Y-72866209D01*
X76481874Y-72828114D01*
X76519970Y-72751923D01*
X76519970Y-72561447D01*
X76481874Y-72485257D01*
X76443779Y-72447161D01*
X76367589Y-72409066D01*
X76215208Y-72409066D01*
X76139017Y-72447161D01*
X76100922Y-72485257D01*
X76062827Y-72561447D01*
X77205684Y-72370971D02*
X77205684Y-72904304D01*
X77015208Y-72066209D02*
X76824731Y-72637638D01*
X77319970Y-72637638D01*
X86873805Y-72904304D02*
X86873805Y-72104304D01*
X87064281Y-72104304D01*
X87178567Y-72142400D01*
X87254757Y-72218590D01*
X87292853Y-72294780D01*
X87330948Y-72447161D01*
X87330948Y-72561447D01*
X87292853Y-72713828D01*
X87254757Y-72790019D01*
X87178567Y-72866209D01*
X87064281Y-72904304D01*
X86873805Y-72904304D01*
X88016662Y-72104304D02*
X87864281Y-72104304D01*
X87788091Y-72142400D01*
X87749995Y-72180495D01*
X87673805Y-72294780D01*
X87635710Y-72447161D01*
X87635710Y-72751923D01*
X87673805Y-72828114D01*
X87711900Y-72866209D01*
X87788091Y-72904304D01*
X87940472Y-72904304D01*
X88016662Y-72866209D01*
X88054757Y-72828114D01*
X88092853Y-72751923D01*
X88092853Y-72561447D01*
X88054757Y-72485257D01*
X88016662Y-72447161D01*
X87940472Y-72409066D01*
X87788091Y-72409066D01*
X87711900Y-72447161D01*
X87673805Y-72485257D01*
X87635710Y-72561447D01*
X88816662Y-72104304D02*
X88435710Y-72104304D01*
X88397614Y-72485257D01*
X88435710Y-72447161D01*
X88511900Y-72409066D01*
X88702376Y-72409066D01*
X88778567Y-72447161D01*
X88816662Y-72485257D01*
X88854757Y-72561447D01*
X88854757Y-72751923D01*
X88816662Y-72828114D01*
X88778567Y-72866209D01*
X88702376Y-72904304D01*
X88511900Y-72904304D01*
X88435710Y-72866209D01*
X88397614Y-72828114D01*
X98446688Y-72904304D02*
X98446688Y-72104304D01*
X98637164Y-72104304D01*
X98751450Y-72142400D01*
X98827640Y-72218590D01*
X98865736Y-72294780D01*
X98903831Y-72447161D01*
X98903831Y-72561447D01*
X98865736Y-72713828D01*
X98827640Y-72790019D01*
X98751450Y-72866209D01*
X98637164Y-72904304D01*
X98446688Y-72904304D01*
X99589545Y-72104304D02*
X99437164Y-72104304D01*
X99360974Y-72142400D01*
X99322878Y-72180495D01*
X99246688Y-72294780D01*
X99208593Y-72447161D01*
X99208593Y-72751923D01*
X99246688Y-72828114D01*
X99284783Y-72866209D01*
X99360974Y-72904304D01*
X99513355Y-72904304D01*
X99589545Y-72866209D01*
X99627640Y-72828114D01*
X99665736Y-72751923D01*
X99665736Y-72561447D01*
X99627640Y-72485257D01*
X99589545Y-72447161D01*
X99513355Y-72409066D01*
X99360974Y-72409066D01*
X99284783Y-72447161D01*
X99246688Y-72485257D01*
X99208593Y-72561447D01*
X100351450Y-72104304D02*
X100199069Y-72104304D01*
X100122878Y-72142400D01*
X100084783Y-72180495D01*
X100008593Y-72294780D01*
X99970497Y-72447161D01*
X99970497Y-72751923D01*
X100008593Y-72828114D01*
X100046688Y-72866209D01*
X100122878Y-72904304D01*
X100275259Y-72904304D01*
X100351450Y-72866209D01*
X100389545Y-72828114D01*
X100427640Y-72751923D01*
X100427640Y-72561447D01*
X100389545Y-72485257D01*
X100351450Y-72447161D01*
X100275259Y-72409066D01*
X100122878Y-72409066D01*
X100046688Y-72447161D01*
X100008593Y-72485257D01*
X99970497Y-72561447D01*
X110019571Y-72904304D02*
X110019571Y-72104304D01*
X110210047Y-72104304D01*
X110324333Y-72142400D01*
X110400523Y-72218590D01*
X110438619Y-72294780D01*
X110476714Y-72447161D01*
X110476714Y-72561447D01*
X110438619Y-72713828D01*
X110400523Y-72790019D01*
X110324333Y-72866209D01*
X110210047Y-72904304D01*
X110019571Y-72904304D01*
X111162428Y-72104304D02*
X111010047Y-72104304D01*
X110933857Y-72142400D01*
X110895761Y-72180495D01*
X110819571Y-72294780D01*
X110781476Y-72447161D01*
X110781476Y-72751923D01*
X110819571Y-72828114D01*
X110857666Y-72866209D01*
X110933857Y-72904304D01*
X111086238Y-72904304D01*
X111162428Y-72866209D01*
X111200523Y-72828114D01*
X111238619Y-72751923D01*
X111238619Y-72561447D01*
X111200523Y-72485257D01*
X111162428Y-72447161D01*
X111086238Y-72409066D01*
X110933857Y-72409066D01*
X110857666Y-72447161D01*
X110819571Y-72485257D01*
X110781476Y-72561447D01*
X111505285Y-72104304D02*
X112038619Y-72104304D01*
X111695761Y-72904304D01*
X144150401Y-72904304D02*
X144150401Y-72104304D01*
X144340877Y-72104304D01*
X144455163Y-72142400D01*
X144531353Y-72218590D01*
X144569449Y-72294780D01*
X144607544Y-72447161D01*
X144607544Y-72561447D01*
X144569449Y-72713828D01*
X144531353Y-72790019D01*
X144455163Y-72866209D01*
X144340877Y-72904304D01*
X144150401Y-72904304D01*
X145293258Y-72104304D02*
X145140877Y-72104304D01*
X145064687Y-72142400D01*
X145026591Y-72180495D01*
X144950401Y-72294780D01*
X144912306Y-72447161D01*
X144912306Y-72751923D01*
X144950401Y-72828114D01*
X144988496Y-72866209D01*
X145064687Y-72904304D01*
X145217068Y-72904304D01*
X145293258Y-72866209D01*
X145331353Y-72828114D01*
X145369449Y-72751923D01*
X145369449Y-72561447D01*
X145331353Y-72485257D01*
X145293258Y-72447161D01*
X145217068Y-72409066D01*
X145064687Y-72409066D01*
X144988496Y-72447161D01*
X144950401Y-72485257D01*
X144912306Y-72561447D01*
X145826591Y-72447161D02*
X145750401Y-72409066D01*
X145712306Y-72370971D01*
X145674210Y-72294780D01*
X145674210Y-72256685D01*
X145712306Y-72180495D01*
X145750401Y-72142400D01*
X145826591Y-72104304D01*
X145978972Y-72104304D01*
X146055163Y-72142400D01*
X146093258Y-72180495D01*
X146131353Y-72256685D01*
X146131353Y-72294780D01*
X146093258Y-72370971D01*
X146055163Y-72409066D01*
X145978972Y-72447161D01*
X145826591Y-72447161D01*
X145750401Y-72485257D01*
X145712306Y-72523352D01*
X145674210Y-72599542D01*
X145674210Y-72751923D01*
X145712306Y-72828114D01*
X145750401Y-72866209D01*
X145826591Y-72904304D01*
X145978972Y-72904304D01*
X146055163Y-72866209D01*
X146093258Y-72828114D01*
X146131353Y-72751923D01*
X146131353Y-72599542D01*
X146093258Y-72523352D01*
X146055163Y-72485257D01*
X145978972Y-72447161D01*
X155723284Y-72904304D02*
X155723284Y-72104304D01*
X155913760Y-72104304D01*
X156028046Y-72142400D01*
X156104236Y-72218590D01*
X156142332Y-72294780D01*
X156180427Y-72447161D01*
X156180427Y-72561447D01*
X156142332Y-72713828D01*
X156104236Y-72790019D01*
X156028046Y-72866209D01*
X155913760Y-72904304D01*
X155723284Y-72904304D01*
X156866141Y-72104304D02*
X156713760Y-72104304D01*
X156637570Y-72142400D01*
X156599474Y-72180495D01*
X156523284Y-72294780D01*
X156485189Y-72447161D01*
X156485189Y-72751923D01*
X156523284Y-72828114D01*
X156561379Y-72866209D01*
X156637570Y-72904304D01*
X156789951Y-72904304D01*
X156866141Y-72866209D01*
X156904236Y-72828114D01*
X156942332Y-72751923D01*
X156942332Y-72561447D01*
X156904236Y-72485257D01*
X156866141Y-72447161D01*
X156789951Y-72409066D01*
X156637570Y-72409066D01*
X156561379Y-72447161D01*
X156523284Y-72485257D01*
X156485189Y-72561447D01*
X157323284Y-72904304D02*
X157475665Y-72904304D01*
X157551855Y-72866209D01*
X157589951Y-72828114D01*
X157666141Y-72713828D01*
X157704236Y-72561447D01*
X157704236Y-72256685D01*
X157666141Y-72180495D01*
X157628046Y-72142400D01*
X157551855Y-72104304D01*
X157399474Y-72104304D01*
X157323284Y-72142400D01*
X157285189Y-72180495D01*
X157247093Y-72256685D01*
X157247093Y-72447161D01*
X157285189Y-72523352D01*
X157323284Y-72561447D01*
X157399474Y-72599542D01*
X157551855Y-72599542D01*
X157628046Y-72561447D01*
X157666141Y-72523352D01*
X157704236Y-72447161D01*
X167296167Y-72904304D02*
X167296167Y-72104304D01*
X167486643Y-72104304D01*
X167600929Y-72142400D01*
X167677119Y-72218590D01*
X167715215Y-72294780D01*
X167753310Y-72447161D01*
X167753310Y-72561447D01*
X167715215Y-72713828D01*
X167677119Y-72790019D01*
X167600929Y-72866209D01*
X167486643Y-72904304D01*
X167296167Y-72904304D01*
X168019976Y-72104304D02*
X168553310Y-72104304D01*
X168210453Y-72904304D01*
X169010453Y-72104304D02*
X169086643Y-72104304D01*
X169162834Y-72142400D01*
X169200929Y-72180495D01*
X169239024Y-72256685D01*
X169277119Y-72409066D01*
X169277119Y-72599542D01*
X169239024Y-72751923D01*
X169200929Y-72828114D01*
X169162834Y-72866209D01*
X169086643Y-72904304D01*
X169010453Y-72904304D01*
X168934262Y-72866209D01*
X168896167Y-72828114D01*
X168858072Y-72751923D01*
X168819976Y-72599542D01*
X168819976Y-72409066D01*
X168858072Y-72256685D01*
X168896167Y-72180495D01*
X168934262Y-72142400D01*
X169010453Y-72104304D01*
X178869050Y-72904304D02*
X178869050Y-72104304D01*
X179059526Y-72104304D01*
X179173812Y-72142400D01*
X179250002Y-72218590D01*
X179288098Y-72294780D01*
X179326193Y-72447161D01*
X179326193Y-72561447D01*
X179288098Y-72713828D01*
X179250002Y-72790019D01*
X179173812Y-72866209D01*
X179059526Y-72904304D01*
X178869050Y-72904304D01*
X179592859Y-72104304D02*
X180126193Y-72104304D01*
X179783336Y-72904304D01*
X180850002Y-72904304D02*
X180392859Y-72904304D01*
X180621431Y-72904304D02*
X180621431Y-72104304D01*
X180545240Y-72218590D01*
X180469050Y-72294780D01*
X180392859Y-72332876D01*
X190441933Y-72904304D02*
X190441933Y-72104304D01*
X190632409Y-72104304D01*
X190746695Y-72142400D01*
X190822885Y-72218590D01*
X190860981Y-72294780D01*
X190899076Y-72447161D01*
X190899076Y-72561447D01*
X190860981Y-72713828D01*
X190822885Y-72790019D01*
X190746695Y-72866209D01*
X190632409Y-72904304D01*
X190441933Y-72904304D01*
X191165742Y-72104304D02*
X191699076Y-72104304D01*
X191356219Y-72904304D01*
X191965742Y-72180495D02*
X192003838Y-72142400D01*
X192080028Y-72104304D01*
X192270504Y-72104304D01*
X192346695Y-72142400D01*
X192384790Y-72180495D01*
X192422885Y-72256685D01*
X192422885Y-72332876D01*
X192384790Y-72447161D01*
X191927647Y-72904304D01*
X192422885Y-72904304D01*
X202014816Y-72904304D02*
X202014816Y-72104304D01*
X202205292Y-72104304D01*
X202319578Y-72142400D01*
X202395768Y-72218590D01*
X202433864Y-72294780D01*
X202471959Y-72447161D01*
X202471959Y-72561447D01*
X202433864Y-72713828D01*
X202395768Y-72790019D01*
X202319578Y-72866209D01*
X202205292Y-72904304D01*
X202014816Y-72904304D01*
X202738625Y-72104304D02*
X203271959Y-72104304D01*
X202929102Y-72904304D01*
X203500530Y-72104304D02*
X203995768Y-72104304D01*
X203729102Y-72409066D01*
X203843387Y-72409066D01*
X203919578Y-72447161D01*
X203957673Y-72485257D01*
X203995768Y-72561447D01*
X203995768Y-72751923D01*
X203957673Y-72828114D01*
X203919578Y-72866209D01*
X203843387Y-72904304D01*
X203614816Y-72904304D01*
X203538625Y-72866209D01*
X203500530Y-72828114D01*
X213587699Y-72904304D02*
X213587699Y-72104304D01*
X213778175Y-72104304D01*
X213892461Y-72142400D01*
X213968651Y-72218590D01*
X214006747Y-72294780D01*
X214044842Y-72447161D01*
X214044842Y-72561447D01*
X214006747Y-72713828D01*
X213968651Y-72790019D01*
X213892461Y-72866209D01*
X213778175Y-72904304D01*
X213587699Y-72904304D01*
X214311508Y-72104304D02*
X214844842Y-72104304D01*
X214501985Y-72904304D01*
X215492461Y-72370971D02*
X215492461Y-72904304D01*
X215301985Y-72066209D02*
X215111508Y-72637638D01*
X215606747Y-72637638D01*
X225160582Y-72904304D02*
X225160582Y-72104304D01*
X225351058Y-72104304D01*
X225465344Y-72142400D01*
X225541534Y-72218590D01*
X225579630Y-72294780D01*
X225617725Y-72447161D01*
X225617725Y-72561447D01*
X225579630Y-72713828D01*
X225541534Y-72790019D01*
X225465344Y-72866209D01*
X225351058Y-72904304D01*
X225160582Y-72904304D01*
X225884391Y-72104304D02*
X226417725Y-72104304D01*
X226074868Y-72904304D01*
X227103439Y-72104304D02*
X226722487Y-72104304D01*
X226684391Y-72485257D01*
X226722487Y-72447161D01*
X226798677Y-72409066D01*
X226989153Y-72409066D01*
X227065344Y-72447161D01*
X227103439Y-72485257D01*
X227141534Y-72561447D01*
X227141534Y-72751923D01*
X227103439Y-72828114D01*
X227065344Y-72866209D01*
X226989153Y-72904304D01*
X226798677Y-72904304D01*
X226722487Y-72866209D01*
X226684391Y-72828114D01*
X236733465Y-72904304D02*
X236733465Y-72104304D01*
X236923941Y-72104304D01*
X237038227Y-72142400D01*
X237114417Y-72218590D01*
X237152513Y-72294780D01*
X237190608Y-72447161D01*
X237190608Y-72561447D01*
X237152513Y-72713828D01*
X237114417Y-72790019D01*
X237038227Y-72866209D01*
X236923941Y-72904304D01*
X236733465Y-72904304D01*
X237457274Y-72104304D02*
X237990608Y-72104304D01*
X237647751Y-72904304D01*
X238638227Y-72104304D02*
X238485846Y-72104304D01*
X238409655Y-72142400D01*
X238371560Y-72180495D01*
X238295370Y-72294780D01*
X238257274Y-72447161D01*
X238257274Y-72751923D01*
X238295370Y-72828114D01*
X238333465Y-72866209D01*
X238409655Y-72904304D01*
X238562036Y-72904304D01*
X238638227Y-72866209D01*
X238676322Y-72828114D01*
X238714417Y-72751923D01*
X238714417Y-72561447D01*
X238676322Y-72485257D01*
X238638227Y-72447161D01*
X238562036Y-72409066D01*
X238409655Y-72409066D01*
X238333465Y-72447161D01*
X238295370Y-72485257D01*
X238257274Y-72561447D01*
X73333150Y-75444304D02*
X73333150Y-74644304D01*
X73523626Y-74644304D01*
X73637912Y-74682400D01*
X73714102Y-74758590D01*
X73752198Y-74834780D01*
X73790293Y-74987161D01*
X73790293Y-75101447D01*
X73752198Y-75253828D01*
X73714102Y-75330019D01*
X73637912Y-75406209D01*
X73523626Y-75444304D01*
X73333150Y-75444304D01*
X74056959Y-74644304D02*
X74590293Y-74644304D01*
X74247436Y-75444304D01*
X74818864Y-74644304D02*
X75352198Y-74644304D01*
X75009340Y-75444304D01*
X84905071Y-75444304D02*
X84905071Y-74644304D01*
X85095547Y-74644304D01*
X85209833Y-74682400D01*
X85286023Y-74758590D01*
X85324119Y-74834780D01*
X85362214Y-74987161D01*
X85362214Y-75101447D01*
X85324119Y-75253828D01*
X85286023Y-75330019D01*
X85209833Y-75406209D01*
X85095547Y-75444304D01*
X84905071Y-75444304D01*
X85628880Y-74644304D02*
X86162214Y-74644304D01*
X85819357Y-75444304D01*
X86581261Y-74987161D02*
X86505071Y-74949066D01*
X86466976Y-74910971D01*
X86428880Y-74834780D01*
X86428880Y-74796685D01*
X86466976Y-74720495D01*
X86505071Y-74682400D01*
X86581261Y-74644304D01*
X86733642Y-74644304D01*
X86809833Y-74682400D01*
X86847928Y-74720495D01*
X86886023Y-74796685D01*
X86886023Y-74834780D01*
X86847928Y-74910971D01*
X86809833Y-74949066D01*
X86733642Y-74987161D01*
X86581261Y-74987161D01*
X86505071Y-75025257D01*
X86466976Y-75063352D01*
X86428880Y-75139542D01*
X86428880Y-75291923D01*
X86466976Y-75368114D01*
X86505071Y-75406209D01*
X86581261Y-75444304D01*
X86733642Y-75444304D01*
X86809833Y-75406209D01*
X86847928Y-75368114D01*
X86886023Y-75291923D01*
X86886023Y-75139542D01*
X86847928Y-75063352D01*
X86809833Y-75025257D01*
X86733642Y-74987161D01*
X96297792Y-75342704D02*
X96297792Y-74542704D01*
X96488268Y-74542704D01*
X96602554Y-74580800D01*
X96678744Y-74656990D01*
X96716840Y-74733180D01*
X96754935Y-74885561D01*
X96754935Y-74999847D01*
X96716840Y-75152228D01*
X96678744Y-75228419D01*
X96602554Y-75304609D01*
X96488268Y-75342704D01*
X96297792Y-75342704D01*
X97021601Y-74542704D02*
X97554935Y-74542704D01*
X97212078Y-75342704D01*
X97897792Y-75342704D02*
X98050173Y-75342704D01*
X98126363Y-75304609D01*
X98164459Y-75266514D01*
X98240649Y-75152228D01*
X98278744Y-74999847D01*
X98278744Y-74695085D01*
X98240649Y-74618895D01*
X98202554Y-74580800D01*
X98126363Y-74542704D01*
X97973982Y-74542704D01*
X97897792Y-74580800D01*
X97859697Y-74618895D01*
X97821601Y-74695085D01*
X97821601Y-74885561D01*
X97859697Y-74961752D01*
X97897792Y-74999847D01*
X97973982Y-75037942D01*
X98126363Y-75037942D01*
X98202554Y-74999847D01*
X98240649Y-74961752D01*
X98278744Y-74885561D01*
X108024413Y-75444304D02*
X108024413Y-74644304D01*
X108214889Y-74644304D01*
X108329175Y-74682400D01*
X108405365Y-74758590D01*
X108443461Y-74834780D01*
X108481556Y-74987161D01*
X108481556Y-75101447D01*
X108443461Y-75253828D01*
X108405365Y-75330019D01*
X108329175Y-75406209D01*
X108214889Y-75444304D01*
X108024413Y-75444304D01*
X108938699Y-74987161D02*
X108862508Y-74949066D01*
X108824413Y-74910971D01*
X108786318Y-74834780D01*
X108786318Y-74796685D01*
X108824413Y-74720495D01*
X108862508Y-74682400D01*
X108938699Y-74644304D01*
X109091080Y-74644304D01*
X109167270Y-74682400D01*
X109205365Y-74720495D01*
X109243461Y-74796685D01*
X109243461Y-74834780D01*
X109205365Y-74910971D01*
X109167270Y-74949066D01*
X109091080Y-74987161D01*
X108938699Y-74987161D01*
X108862508Y-75025257D01*
X108824413Y-75063352D01*
X108786318Y-75139542D01*
X108786318Y-75291923D01*
X108824413Y-75368114D01*
X108862508Y-75406209D01*
X108938699Y-75444304D01*
X109091080Y-75444304D01*
X109167270Y-75406209D01*
X109205365Y-75368114D01*
X109243461Y-75291923D01*
X109243461Y-75139542D01*
X109205365Y-75063352D01*
X109167270Y-75025257D01*
X109091080Y-74987161D01*
X109738699Y-74644304D02*
X109814889Y-74644304D01*
X109891080Y-74682400D01*
X109929175Y-74720495D01*
X109967270Y-74796685D01*
X110005365Y-74949066D01*
X110005365Y-75139542D01*
X109967270Y-75291923D01*
X109929175Y-75368114D01*
X109891080Y-75406209D01*
X109814889Y-75444304D01*
X109738699Y-75444304D01*
X109662508Y-75406209D01*
X109624413Y-75368114D01*
X109586318Y-75291923D01*
X109548222Y-75139542D01*
X109548222Y-74949066D01*
X109586318Y-74796685D01*
X109624413Y-74720495D01*
X109662508Y-74682400D01*
X109738699Y-74644304D01*
X142431601Y-75545904D02*
X142431601Y-74745904D01*
X142622077Y-74745904D01*
X142736363Y-74784000D01*
X142812553Y-74860190D01*
X142850649Y-74936380D01*
X142888744Y-75088761D01*
X142888744Y-75203047D01*
X142850649Y-75355428D01*
X142812553Y-75431619D01*
X142736363Y-75507809D01*
X142622077Y-75545904D01*
X142431601Y-75545904D01*
X143345887Y-75088761D02*
X143269696Y-75050666D01*
X143231601Y-75012571D01*
X143193506Y-74936380D01*
X143193506Y-74898285D01*
X143231601Y-74822095D01*
X143269696Y-74784000D01*
X143345887Y-74745904D01*
X143498268Y-74745904D01*
X143574458Y-74784000D01*
X143612553Y-74822095D01*
X143650649Y-74898285D01*
X143650649Y-74936380D01*
X143612553Y-75012571D01*
X143574458Y-75050666D01*
X143498268Y-75088761D01*
X143345887Y-75088761D01*
X143269696Y-75126857D01*
X143231601Y-75164952D01*
X143193506Y-75241142D01*
X143193506Y-75393523D01*
X143231601Y-75469714D01*
X143269696Y-75507809D01*
X143345887Y-75545904D01*
X143498268Y-75545904D01*
X143574458Y-75507809D01*
X143612553Y-75469714D01*
X143650649Y-75393523D01*
X143650649Y-75241142D01*
X143612553Y-75164952D01*
X143574458Y-75126857D01*
X143498268Y-75088761D01*
X144412553Y-75545904D02*
X143955410Y-75545904D01*
X144183982Y-75545904D02*
X144183982Y-74745904D01*
X144107791Y-74860190D01*
X144031601Y-74936380D01*
X143955410Y-74974476D01*
X153944322Y-75444304D02*
X153944322Y-74644304D01*
X154134798Y-74644304D01*
X154249084Y-74682400D01*
X154325274Y-74758590D01*
X154363370Y-74834780D01*
X154401465Y-74987161D01*
X154401465Y-75101447D01*
X154363370Y-75253828D01*
X154325274Y-75330019D01*
X154249084Y-75406209D01*
X154134798Y-75444304D01*
X153944322Y-75444304D01*
X154858608Y-74987161D02*
X154782417Y-74949066D01*
X154744322Y-74910971D01*
X154706227Y-74834780D01*
X154706227Y-74796685D01*
X154744322Y-74720495D01*
X154782417Y-74682400D01*
X154858608Y-74644304D01*
X155010989Y-74644304D01*
X155087179Y-74682400D01*
X155125274Y-74720495D01*
X155163370Y-74796685D01*
X155163370Y-74834780D01*
X155125274Y-74910971D01*
X155087179Y-74949066D01*
X155010989Y-74987161D01*
X154858608Y-74987161D01*
X154782417Y-75025257D01*
X154744322Y-75063352D01*
X154706227Y-75139542D01*
X154706227Y-75291923D01*
X154744322Y-75368114D01*
X154782417Y-75406209D01*
X154858608Y-75444304D01*
X155010989Y-75444304D01*
X155087179Y-75406209D01*
X155125274Y-75368114D01*
X155163370Y-75291923D01*
X155163370Y-75139542D01*
X155125274Y-75063352D01*
X155087179Y-75025257D01*
X155010989Y-74987161D01*
X155468131Y-74720495D02*
X155506227Y-74682400D01*
X155582417Y-74644304D01*
X155772893Y-74644304D01*
X155849084Y-74682400D01*
X155887179Y-74720495D01*
X155925274Y-74796685D01*
X155925274Y-74872876D01*
X155887179Y-74987161D01*
X155430036Y-75444304D01*
X155925274Y-75444304D01*
X165516243Y-75444304D02*
X165516243Y-74644304D01*
X165706719Y-74644304D01*
X165821005Y-74682400D01*
X165897195Y-74758590D01*
X165935291Y-74834780D01*
X165973386Y-74987161D01*
X165973386Y-75101447D01*
X165935291Y-75253828D01*
X165897195Y-75330019D01*
X165821005Y-75406209D01*
X165706719Y-75444304D01*
X165516243Y-75444304D01*
X166430529Y-74987161D02*
X166354338Y-74949066D01*
X166316243Y-74910971D01*
X166278148Y-74834780D01*
X166278148Y-74796685D01*
X166316243Y-74720495D01*
X166354338Y-74682400D01*
X166430529Y-74644304D01*
X166582910Y-74644304D01*
X166659100Y-74682400D01*
X166697195Y-74720495D01*
X166735291Y-74796685D01*
X166735291Y-74834780D01*
X166697195Y-74910971D01*
X166659100Y-74949066D01*
X166582910Y-74987161D01*
X166430529Y-74987161D01*
X166354338Y-75025257D01*
X166316243Y-75063352D01*
X166278148Y-75139542D01*
X166278148Y-75291923D01*
X166316243Y-75368114D01*
X166354338Y-75406209D01*
X166430529Y-75444304D01*
X166582910Y-75444304D01*
X166659100Y-75406209D01*
X166697195Y-75368114D01*
X166735291Y-75291923D01*
X166735291Y-75139542D01*
X166697195Y-75063352D01*
X166659100Y-75025257D01*
X166582910Y-74987161D01*
X167001957Y-74644304D02*
X167497195Y-74644304D01*
X167230529Y-74949066D01*
X167344814Y-74949066D01*
X167421005Y-74987161D01*
X167459100Y-75025257D01*
X167497195Y-75101447D01*
X167497195Y-75291923D01*
X167459100Y-75368114D01*
X167421005Y-75406209D01*
X167344814Y-75444304D01*
X167116243Y-75444304D01*
X167040052Y-75406209D01*
X167001957Y-75368114D01*
X200334506Y-75444304D02*
X200334506Y-74644304D01*
X200524982Y-74644304D01*
X200639268Y-74682400D01*
X200715458Y-74758590D01*
X200753554Y-74834780D01*
X200791649Y-74987161D01*
X200791649Y-75101447D01*
X200753554Y-75253828D01*
X200715458Y-75330019D01*
X200639268Y-75406209D01*
X200524982Y-75444304D01*
X200334506Y-75444304D01*
X201248792Y-74987161D02*
X201172601Y-74949066D01*
X201134506Y-74910971D01*
X201096411Y-74834780D01*
X201096411Y-74796685D01*
X201134506Y-74720495D01*
X201172601Y-74682400D01*
X201248792Y-74644304D01*
X201401173Y-74644304D01*
X201477363Y-74682400D01*
X201515458Y-74720495D01*
X201553554Y-74796685D01*
X201553554Y-74834780D01*
X201515458Y-74910971D01*
X201477363Y-74949066D01*
X201401173Y-74987161D01*
X201248792Y-74987161D01*
X201172601Y-75025257D01*
X201134506Y-75063352D01*
X201096411Y-75139542D01*
X201096411Y-75291923D01*
X201134506Y-75368114D01*
X201172601Y-75406209D01*
X201248792Y-75444304D01*
X201401173Y-75444304D01*
X201477363Y-75406209D01*
X201515458Y-75368114D01*
X201553554Y-75291923D01*
X201553554Y-75139542D01*
X201515458Y-75063352D01*
X201477363Y-75025257D01*
X201401173Y-74987161D01*
X202239268Y-74644304D02*
X202086887Y-74644304D01*
X202010696Y-74682400D01*
X201972601Y-74720495D01*
X201896411Y-74834780D01*
X201858315Y-74987161D01*
X201858315Y-75291923D01*
X201896411Y-75368114D01*
X201934506Y-75406209D01*
X202010696Y-75444304D01*
X202163077Y-75444304D01*
X202239268Y-75406209D01*
X202277363Y-75368114D01*
X202315458Y-75291923D01*
X202315458Y-75101447D01*
X202277363Y-75025257D01*
X202239268Y-74987161D01*
X202163077Y-74949066D01*
X202010696Y-74949066D01*
X201934506Y-74987161D01*
X201896411Y-75025257D01*
X201858315Y-75101447D01*
X211880571Y-75545904D02*
X211880571Y-74745904D01*
X212071047Y-74745904D01*
X212185333Y-74784000D01*
X212261523Y-74860190D01*
X212299619Y-74936380D01*
X212337714Y-75088761D01*
X212337714Y-75203047D01*
X212299619Y-75355428D01*
X212261523Y-75431619D01*
X212185333Y-75507809D01*
X212071047Y-75545904D01*
X211880571Y-75545904D01*
X212794857Y-75088761D02*
X212718666Y-75050666D01*
X212680571Y-75012571D01*
X212642476Y-74936380D01*
X212642476Y-74898285D01*
X212680571Y-74822095D01*
X212718666Y-74784000D01*
X212794857Y-74745904D01*
X212947238Y-74745904D01*
X213023428Y-74784000D01*
X213061523Y-74822095D01*
X213099619Y-74898285D01*
X213099619Y-74936380D01*
X213061523Y-75012571D01*
X213023428Y-75050666D01*
X212947238Y-75088761D01*
X212794857Y-75088761D01*
X212718666Y-75126857D01*
X212680571Y-75164952D01*
X212642476Y-75241142D01*
X212642476Y-75393523D01*
X212680571Y-75469714D01*
X212718666Y-75507809D01*
X212794857Y-75545904D01*
X212947238Y-75545904D01*
X213023428Y-75507809D01*
X213061523Y-75469714D01*
X213099619Y-75393523D01*
X213099619Y-75241142D01*
X213061523Y-75164952D01*
X213023428Y-75126857D01*
X212947238Y-75088761D01*
X213366285Y-74745904D02*
X213899619Y-74745904D01*
X213556761Y-75545904D01*
X223375848Y-75444304D02*
X223375848Y-74644304D01*
X223566324Y-74644304D01*
X223680610Y-74682400D01*
X223756800Y-74758590D01*
X223794896Y-74834780D01*
X223832991Y-74987161D01*
X223832991Y-75101447D01*
X223794896Y-75253828D01*
X223756800Y-75330019D01*
X223680610Y-75406209D01*
X223566324Y-75444304D01*
X223375848Y-75444304D01*
X224290134Y-74987161D02*
X224213943Y-74949066D01*
X224175848Y-74910971D01*
X224137753Y-74834780D01*
X224137753Y-74796685D01*
X224175848Y-74720495D01*
X224213943Y-74682400D01*
X224290134Y-74644304D01*
X224442515Y-74644304D01*
X224518705Y-74682400D01*
X224556800Y-74720495D01*
X224594896Y-74796685D01*
X224594896Y-74834780D01*
X224556800Y-74910971D01*
X224518705Y-74949066D01*
X224442515Y-74987161D01*
X224290134Y-74987161D01*
X224213943Y-75025257D01*
X224175848Y-75063352D01*
X224137753Y-75139542D01*
X224137753Y-75291923D01*
X224175848Y-75368114D01*
X224213943Y-75406209D01*
X224290134Y-75444304D01*
X224442515Y-75444304D01*
X224518705Y-75406209D01*
X224556800Y-75368114D01*
X224594896Y-75291923D01*
X224594896Y-75139542D01*
X224556800Y-75063352D01*
X224518705Y-75025257D01*
X224442515Y-74987161D01*
X225052038Y-74987161D02*
X224975848Y-74949066D01*
X224937753Y-74910971D01*
X224899657Y-74834780D01*
X224899657Y-74796685D01*
X224937753Y-74720495D01*
X224975848Y-74682400D01*
X225052038Y-74644304D01*
X225204419Y-74644304D01*
X225280610Y-74682400D01*
X225318705Y-74720495D01*
X225356800Y-74796685D01*
X225356800Y-74834780D01*
X225318705Y-74910971D01*
X225280610Y-74949066D01*
X225204419Y-74987161D01*
X225052038Y-74987161D01*
X224975848Y-75025257D01*
X224937753Y-75063352D01*
X224899657Y-75139542D01*
X224899657Y-75291923D01*
X224937753Y-75368114D01*
X224975848Y-75406209D01*
X225052038Y-75444304D01*
X225204419Y-75444304D01*
X225280610Y-75406209D01*
X225318705Y-75368114D01*
X225356800Y-75291923D01*
X225356800Y-75139542D01*
X225318705Y-75063352D01*
X225280610Y-75025257D01*
X225204419Y-74987161D01*
X234947769Y-75444304D02*
X234947769Y-74644304D01*
X235138245Y-74644304D01*
X235252531Y-74682400D01*
X235328721Y-74758590D01*
X235366817Y-74834780D01*
X235404912Y-74987161D01*
X235404912Y-75101447D01*
X235366817Y-75253828D01*
X235328721Y-75330019D01*
X235252531Y-75406209D01*
X235138245Y-75444304D01*
X234947769Y-75444304D01*
X235862055Y-74987161D02*
X235785864Y-74949066D01*
X235747769Y-74910971D01*
X235709674Y-74834780D01*
X235709674Y-74796685D01*
X235747769Y-74720495D01*
X235785864Y-74682400D01*
X235862055Y-74644304D01*
X236014436Y-74644304D01*
X236090626Y-74682400D01*
X236128721Y-74720495D01*
X236166817Y-74796685D01*
X236166817Y-74834780D01*
X236128721Y-74910971D01*
X236090626Y-74949066D01*
X236014436Y-74987161D01*
X235862055Y-74987161D01*
X235785864Y-75025257D01*
X235747769Y-75063352D01*
X235709674Y-75139542D01*
X235709674Y-75291923D01*
X235747769Y-75368114D01*
X235785864Y-75406209D01*
X235862055Y-75444304D01*
X236014436Y-75444304D01*
X236090626Y-75406209D01*
X236128721Y-75368114D01*
X236166817Y-75291923D01*
X236166817Y-75139542D01*
X236128721Y-75063352D01*
X236090626Y-75025257D01*
X236014436Y-74987161D01*
X236547769Y-75444304D02*
X236700150Y-75444304D01*
X236776340Y-75406209D01*
X236814436Y-75368114D01*
X236890626Y-75253828D01*
X236928721Y-75101447D01*
X236928721Y-74796685D01*
X236890626Y-74720495D01*
X236852531Y-74682400D01*
X236776340Y-74644304D01*
X236623959Y-74644304D01*
X236547769Y-74682400D01*
X236509674Y-74720495D01*
X236471578Y-74796685D01*
X236471578Y-74987161D01*
X236509674Y-75063352D01*
X236547769Y-75101447D01*
X236623959Y-75139542D01*
X236776340Y-75139542D01*
X236852531Y-75101447D01*
X236890626Y-75063352D01*
X236928721Y-74987161D01*
X251356601Y-75209571D02*
X251023267Y-75209571D01*
X251023267Y-75733380D02*
X251023267Y-74733380D01*
X251499458Y-74733380D01*
X251880410Y-74733380D02*
X251880410Y-75542904D01*
X251928029Y-75638142D01*
X251975648Y-75685761D01*
X252070886Y-75733380D01*
X252261363Y-75733380D01*
X252356601Y-75685761D01*
X252404220Y-75638142D01*
X252451839Y-75542904D01*
X252451839Y-74733380D01*
X252880410Y-75685761D02*
X253023267Y-75733380D01*
X253261363Y-75733380D01*
X253356601Y-75685761D01*
X253404220Y-75638142D01*
X253451839Y-75542904D01*
X253451839Y-75447666D01*
X253404220Y-75352428D01*
X253356601Y-75304809D01*
X253261363Y-75257190D01*
X253070886Y-75209571D01*
X252975648Y-75161952D01*
X252928029Y-75114333D01*
X252880410Y-75019095D01*
X252880410Y-74923857D01*
X252928029Y-74828619D01*
X252975648Y-74781000D01*
X253070886Y-74733380D01*
X253308982Y-74733380D01*
X253451839Y-74781000D01*
X253880410Y-75209571D02*
X254213744Y-75209571D01*
X254356601Y-75733380D02*
X253880410Y-75733380D01*
X253880410Y-74733380D01*
X254356601Y-74733380D01*
D12*
X304077424Y-61291198D02*
X303696472Y-61557865D01*
X304077424Y-61748341D02*
X303277424Y-61748341D01*
X303277424Y-61443579D01*
X303315520Y-61367388D01*
X303353615Y-61329293D01*
X303429805Y-61291198D01*
X303544091Y-61291198D01*
X303620281Y-61329293D01*
X303658377Y-61367388D01*
X303696472Y-61443579D01*
X303696472Y-61748341D01*
X303353615Y-60986436D02*
X303315520Y-60948341D01*
X303277424Y-60872150D01*
X303277424Y-60681674D01*
X303315520Y-60605484D01*
X303353615Y-60567388D01*
X303429805Y-60529293D01*
X303505996Y-60529293D01*
X303620281Y-60567388D01*
X304077424Y-61024531D01*
X304077424Y-60529293D01*
X297813951Y-60769544D02*
X297432998Y-60769544D01*
X297394903Y-61150497D01*
X297432998Y-61112401D01*
X297509189Y-61074306D01*
X297699665Y-61074306D01*
X297775855Y-61112401D01*
X297813951Y-61150497D01*
X297852046Y-61226687D01*
X297852046Y-61417163D01*
X297813951Y-61493354D01*
X297775855Y-61531449D01*
X297699665Y-61569544D01*
X297509189Y-61569544D01*
X297432998Y-61531449D01*
X297394903Y-61493354D01*
X298194903Y-61493354D02*
X298232998Y-61531449D01*
X298194903Y-61569544D01*
X298156808Y-61531449D01*
X298194903Y-61493354D01*
X298194903Y-61569544D01*
X298994903Y-61569544D02*
X298537760Y-61569544D01*
X298766332Y-61569544D02*
X298766332Y-60769544D01*
X298690141Y-60883830D01*
X298613951Y-60960020D01*
X298537760Y-60998116D01*
X299337760Y-61569544D02*
X299337760Y-60769544D01*
X299413951Y-61264782D02*
X299642522Y-61569544D01*
X299642522Y-61036211D02*
X299337760Y-61340973D01*
X304145904Y-63777786D02*
X303764952Y-64044453D01*
X304145904Y-64234929D02*
X303345904Y-64234929D01*
X303345904Y-63930167D01*
X303384000Y-63853976D01*
X303422095Y-63815881D01*
X303498285Y-63777786D01*
X303612571Y-63777786D01*
X303688761Y-63815881D01*
X303726857Y-63853976D01*
X303764952Y-63930167D01*
X303764952Y-64234929D01*
X303345904Y-63053976D02*
X303345904Y-63434929D01*
X303726857Y-63473024D01*
X303688761Y-63434929D01*
X303650666Y-63358738D01*
X303650666Y-63168262D01*
X303688761Y-63092072D01*
X303726857Y-63053976D01*
X303803047Y-63015881D01*
X303993523Y-63015881D01*
X304069714Y-63053976D01*
X304107809Y-63092072D01*
X304145904Y-63168262D01*
X304145904Y-63358738D01*
X304107809Y-63434929D01*
X304069714Y-63473024D01*
X297659507Y-63210392D02*
X297278554Y-63210392D01*
X297240459Y-63591345D01*
X297278554Y-63553249D01*
X297354745Y-63515154D01*
X297545221Y-63515154D01*
X297621411Y-63553249D01*
X297659507Y-63591345D01*
X297697602Y-63667535D01*
X297697602Y-63858011D01*
X297659507Y-63934202D01*
X297621411Y-63972297D01*
X297545221Y-64010392D01*
X297354745Y-64010392D01*
X297278554Y-63972297D01*
X297240459Y-63934202D01*
X298040459Y-63934202D02*
X298078554Y-63972297D01*
X298040459Y-64010392D01*
X298002364Y-63972297D01*
X298040459Y-63934202D01*
X298040459Y-64010392D01*
X298840459Y-64010392D02*
X298383316Y-64010392D01*
X298611888Y-64010392D02*
X298611888Y-63210392D01*
X298535697Y-63324678D01*
X298459507Y-63400868D01*
X298383316Y-63438964D01*
X299183316Y-64010392D02*
X299183316Y-63210392D01*
X299259507Y-63705630D02*
X299488078Y-64010392D01*
X299488078Y-63477059D02*
X299183316Y-63781821D01*
X304077424Y-68905726D02*
X303696472Y-69172393D01*
X304077424Y-69362869D02*
X303277424Y-69362869D01*
X303277424Y-69058107D01*
X303315520Y-68981916D01*
X303353615Y-68943821D01*
X303429805Y-68905726D01*
X303544091Y-68905726D01*
X303620281Y-68943821D01*
X303658377Y-68981916D01*
X303696472Y-69058107D01*
X303696472Y-69362869D01*
X303277424Y-68639059D02*
X303277424Y-68143821D01*
X303582186Y-68410488D01*
X303582186Y-68296202D01*
X303620281Y-68220012D01*
X303658377Y-68181916D01*
X303734567Y-68143821D01*
X303925043Y-68143821D01*
X304001234Y-68181916D01*
X304039329Y-68220012D01*
X304077424Y-68296202D01*
X304077424Y-68524773D01*
X304039329Y-68600964D01*
X304001234Y-68639059D01*
X297471093Y-68384072D02*
X298004427Y-68384072D01*
X297661570Y-69184072D01*
X298690141Y-68384072D02*
X298309189Y-68384072D01*
X298271093Y-68765025D01*
X298309189Y-68726929D01*
X298385379Y-68688834D01*
X298575855Y-68688834D01*
X298652046Y-68726929D01*
X298690141Y-68765025D01*
X298728236Y-68841215D01*
X298728236Y-69031691D01*
X298690141Y-69107882D01*
X298652046Y-69145977D01*
X298575855Y-69184072D01*
X298385379Y-69184072D01*
X298309189Y-69145977D01*
X298271093Y-69107882D01*
X299528236Y-69184072D02*
X299261570Y-68803120D01*
X299071093Y-69184072D02*
X299071093Y-68384072D01*
X299375855Y-68384072D01*
X299452046Y-68422168D01*
X299490141Y-68460263D01*
X299528236Y-68536453D01*
X299528236Y-68650739D01*
X299490141Y-68726929D01*
X299452046Y-68765025D01*
X299375855Y-68803120D01*
X299071093Y-68803120D01*
X304077424Y-71443902D02*
X303696472Y-71710569D01*
X304077424Y-71901045D02*
X303277424Y-71901045D01*
X303277424Y-71596283D01*
X303315520Y-71520092D01*
X303353615Y-71481997D01*
X303429805Y-71443902D01*
X303544091Y-71443902D01*
X303620281Y-71481997D01*
X303658377Y-71520092D01*
X303696472Y-71596283D01*
X303696472Y-71901045D01*
X303544091Y-70758188D02*
X304077424Y-70758188D01*
X303239329Y-70948664D02*
X303810758Y-71139140D01*
X303810758Y-70643902D01*
X297471093Y-70922248D02*
X298004427Y-70922248D01*
X297661570Y-71722248D01*
X298690141Y-70922248D02*
X298309189Y-70922248D01*
X298271093Y-71303201D01*
X298309189Y-71265105D01*
X298385379Y-71227010D01*
X298575855Y-71227010D01*
X298652046Y-71265105D01*
X298690141Y-71303201D01*
X298728236Y-71379391D01*
X298728236Y-71569867D01*
X298690141Y-71646058D01*
X298652046Y-71684153D01*
X298575855Y-71722248D01*
X298385379Y-71722248D01*
X298309189Y-71684153D01*
X298271093Y-71646058D01*
X299528236Y-71722248D02*
X299261570Y-71341296D01*
X299071093Y-71722248D02*
X299071093Y-70922248D01*
X299375855Y-70922248D01*
X299452046Y-70960344D01*
X299490141Y-70998439D01*
X299528236Y-71074629D01*
X299528236Y-71188915D01*
X299490141Y-71265105D01*
X299452046Y-71303201D01*
X299375855Y-71341296D01*
X299071093Y-71341296D01*
X304077424Y-76520255D02*
X303696472Y-76786922D01*
X304077424Y-76977398D02*
X303277424Y-76977398D01*
X303277424Y-76672636D01*
X303315520Y-76596445D01*
X303353615Y-76558350D01*
X303429805Y-76520255D01*
X303544091Y-76520255D01*
X303620281Y-76558350D01*
X303658377Y-76596445D01*
X303696472Y-76672636D01*
X303696472Y-76977398D01*
X304077424Y-75758350D02*
X304077424Y-76215493D01*
X304077424Y-75986922D02*
X303277424Y-75986922D01*
X303391710Y-76063112D01*
X303467900Y-76139302D01*
X303505996Y-76215493D01*
X297852046Y-76798601D02*
X297394903Y-76798601D01*
X297623474Y-76798601D02*
X297623474Y-75998601D01*
X297547284Y-76112887D01*
X297471093Y-76189077D01*
X297394903Y-76227173D01*
X298194903Y-76722411D02*
X298232998Y-76760506D01*
X298194903Y-76798601D01*
X298156808Y-76760506D01*
X298194903Y-76722411D01*
X298194903Y-76798601D01*
X298956808Y-75998601D02*
X298575855Y-75998601D01*
X298537760Y-76379554D01*
X298575855Y-76341458D01*
X298652046Y-76303363D01*
X298842522Y-76303363D01*
X298918713Y-76341458D01*
X298956808Y-76379554D01*
X298994903Y-76455744D01*
X298994903Y-76646220D01*
X298956808Y-76722411D01*
X298918713Y-76760506D01*
X298842522Y-76798601D01*
X298652046Y-76798601D01*
X298575855Y-76760506D01*
X298537760Y-76722411D01*
X299337760Y-76798601D02*
X299337760Y-75998601D01*
X299413951Y-76493839D02*
X299642522Y-76798601D01*
X299642522Y-76265268D02*
X299337760Y-76570030D01*
X304077424Y-66367550D02*
X303696472Y-66634217D01*
X304077424Y-66824693D02*
X303277424Y-66824693D01*
X303277424Y-66519931D01*
X303315520Y-66443740D01*
X303353615Y-66405645D01*
X303429805Y-66367550D01*
X303544091Y-66367550D01*
X303620281Y-66405645D01*
X303658377Y-66443740D01*
X303696472Y-66519931D01*
X303696472Y-66824693D01*
X303277424Y-66100883D02*
X303277424Y-65567550D01*
X304077424Y-65910407D01*
X297775855Y-66645896D02*
X297318713Y-66645896D01*
X297547284Y-66645896D02*
X297547284Y-65845896D01*
X297471093Y-65960182D01*
X297394903Y-66036372D01*
X297318713Y-66074468D01*
X298118713Y-66569706D02*
X298156808Y-66607801D01*
X298118713Y-66645896D01*
X298080617Y-66607801D01*
X298118713Y-66569706D01*
X298118713Y-66645896D01*
X298880617Y-65845896D02*
X298499665Y-65845896D01*
X298461570Y-66226849D01*
X298499665Y-66188753D01*
X298575855Y-66150658D01*
X298766332Y-66150658D01*
X298842522Y-66188753D01*
X298880617Y-66226849D01*
X298918713Y-66303039D01*
X298918713Y-66493515D01*
X298880617Y-66569706D01*
X298842522Y-66607801D01*
X298766332Y-66645896D01*
X298575855Y-66645896D01*
X298499665Y-66607801D01*
X298461570Y-66569706D01*
X299261570Y-66645896D02*
X299261570Y-65845896D01*
X299718713Y-66645896D02*
X299375855Y-66188753D01*
X299718713Y-65845896D02*
X299261570Y-66303039D01*
X304137395Y-73984300D02*
X303756443Y-74250967D01*
X304137395Y-74441443D02*
X303337395Y-74441443D01*
X303337395Y-74136681D01*
X303375491Y-74060490D01*
X303413586Y-74022395D01*
X303489776Y-73984300D01*
X303604062Y-73984300D01*
X303680252Y-74022395D01*
X303718348Y-74060490D01*
X303756443Y-74136681D01*
X303756443Y-74441443D01*
X303337395Y-73298586D02*
X303337395Y-73450967D01*
X303375491Y-73527157D01*
X303413586Y-73565252D01*
X303527871Y-73641443D01*
X303680252Y-73679538D01*
X303985014Y-73679538D01*
X304061205Y-73641443D01*
X304099300Y-73603347D01*
X304137395Y-73527157D01*
X304137395Y-73374776D01*
X304099300Y-73298586D01*
X304061205Y-73260490D01*
X303985014Y-73222395D01*
X303794538Y-73222395D01*
X303718348Y-73260490D01*
X303680252Y-73298586D01*
X303642157Y-73374776D01*
X303642157Y-73527157D01*
X303680252Y-73603347D01*
X303718348Y-73641443D01*
X303794538Y-73679538D01*
X297888078Y-74163096D02*
X297430935Y-74163096D01*
X297659507Y-74163096D02*
X297659507Y-73363096D01*
X297583316Y-73477382D01*
X297507126Y-73553572D01*
X297430935Y-73591668D01*
X298383316Y-73363096D02*
X298459507Y-73363096D01*
X298535697Y-73401192D01*
X298573792Y-73439287D01*
X298611888Y-73515477D01*
X298649983Y-73667858D01*
X298649983Y-73858334D01*
X298611888Y-74010715D01*
X298573792Y-74086906D01*
X298535697Y-74125001D01*
X298459507Y-74163096D01*
X298383316Y-74163096D01*
X298307126Y-74125001D01*
X298269030Y-74086906D01*
X298230935Y-74010715D01*
X298192840Y-73858334D01*
X298192840Y-73667858D01*
X298230935Y-73515477D01*
X298269030Y-73439287D01*
X298307126Y-73401192D01*
X298383316Y-73363096D01*
X298992840Y-74163096D02*
X298992840Y-73363096D01*
X299069030Y-73858334D02*
X299297602Y-74163096D01*
X299297602Y-73629763D02*
X298992840Y-73934525D01*
D11*
X49877722Y-73051279D02*
X49544388Y-72575089D01*
X49306293Y-73051279D02*
X49306293Y-72051279D01*
X49687245Y-72051279D01*
X49782483Y-72098899D01*
X49830103Y-72146518D01*
X49877722Y-72241756D01*
X49877722Y-72384613D01*
X49830103Y-72479851D01*
X49782483Y-72527470D01*
X49687245Y-72575089D01*
X49306293Y-72575089D01*
X50306293Y-72527470D02*
X50639626Y-72527470D01*
X50782483Y-73051279D02*
X50306293Y-73051279D01*
X50306293Y-72051279D01*
X50782483Y-72051279D01*
X51163436Y-73003660D02*
X51306293Y-73051279D01*
X51544388Y-73051279D01*
X51639626Y-73003660D01*
X51687245Y-72956041D01*
X51734864Y-72860803D01*
X51734864Y-72765565D01*
X51687245Y-72670327D01*
X51639626Y-72622708D01*
X51544388Y-72575089D01*
X51353912Y-72527470D01*
X51258674Y-72479851D01*
X51211055Y-72432232D01*
X51163436Y-72336994D01*
X51163436Y-72241756D01*
X51211055Y-72146518D01*
X51258674Y-72098899D01*
X51353912Y-72051279D01*
X51592007Y-72051279D01*
X51734864Y-72098899D01*
X52163436Y-72527470D02*
X52496769Y-72527470D01*
X52639626Y-73051279D02*
X52163436Y-73051279D01*
X52163436Y-72051279D01*
X52639626Y-72051279D01*
X52925341Y-72051279D02*
X53496769Y-72051279D01*
X53211055Y-73051279D02*
X53211055Y-72051279D01*
X49689002Y-53530610D02*
X49689002Y-54340134D01*
X49736621Y-54435372D01*
X49784240Y-54482991D01*
X49879478Y-54530610D01*
X50069955Y-54530610D01*
X50165193Y-54482991D01*
X50212812Y-54435372D01*
X50260431Y-54340134D01*
X50260431Y-53530610D01*
X50689002Y-54482991D02*
X50831859Y-54530610D01*
X51069955Y-54530610D01*
X51165193Y-54482991D01*
X51212812Y-54435372D01*
X51260431Y-54340134D01*
X51260431Y-54244896D01*
X51212812Y-54149658D01*
X51165193Y-54102039D01*
X51069955Y-54054420D01*
X50879478Y-54006801D01*
X50784240Y-53959182D01*
X50736621Y-53911563D01*
X50689002Y-53816325D01*
X50689002Y-53721087D01*
X50736621Y-53625849D01*
X50784240Y-53578230D01*
X50879478Y-53530610D01*
X51117574Y-53530610D01*
X51260431Y-53578230D01*
X52022336Y-54006801D02*
X52165193Y-54054420D01*
X52212812Y-54102039D01*
X52260431Y-54197277D01*
X52260431Y-54340134D01*
X52212812Y-54435372D01*
X52165193Y-54482991D01*
X52069955Y-54530610D01*
X51689002Y-54530610D01*
X51689002Y-53530610D01*
X52022336Y-53530610D01*
X52117574Y-53578230D01*
X52165193Y-53625849D01*
X52212812Y-53721087D01*
X52212812Y-53816325D01*
X52165193Y-53911563D01*
X52117574Y-53959182D01*
X52022336Y-54006801D01*
X51689002Y-54006801D01*
X53212812Y-54530610D02*
X52641383Y-54530610D01*
X52927098Y-54530610D02*
X52927098Y-53530610D01*
X52831859Y-53673468D01*
X52736621Y-53768706D01*
X52641383Y-53816325D01*
X366079137Y-69196123D02*
X366555327Y-69196123D01*
X365555327Y-69529456D02*
X366079137Y-69196123D01*
X365555327Y-68862790D01*
X366555327Y-68005647D02*
X366555327Y-68577075D01*
X366555327Y-68291361D02*
X365555327Y-68291361D01*
X365698185Y-68386599D01*
X365793423Y-68481837D01*
X365841042Y-68577075D01*
D13*
X374581883Y-71074132D02*
X375293883Y-71074132D01*
X374581883Y-71394132D02*
X375526883Y-71394132D01*
X374581883Y-70954132D02*
X375179883Y-70954132D01*
X374581883Y-71554132D02*
X375611883Y-71554132D01*
X372546883Y-74744933D02*
X372546883Y-74344933D01*
X372599883Y-70714132D02*
X374883883Y-70714132D01*
X374581883Y-71995132D02*
X375766883Y-71995132D01*
X371759883Y-71835132D02*
X372901883Y-71835132D01*
X374581883Y-72235132D02*
X375808883Y-72235132D01*
X372006883Y-71314132D02*
X372901883Y-71314132D01*
X374581883Y-71795132D02*
X375709883Y-71795132D01*
X372154883Y-71114132D02*
X372901883Y-71114132D01*
X374581883Y-72395132D02*
X375820883Y-72395132D01*
X372973883Y-70514132D02*
X374509883Y-70514132D01*
X371747883Y-71875132D02*
X372901883Y-71875132D01*
X374581883Y-71154132D02*
X375360883Y-71154132D01*
X372122883Y-71154132D02*
X372901883Y-71154132D01*
X371852883Y-71594132D02*
X372901883Y-71594132D01*
X371787883Y-71754132D02*
X372901883Y-71754132D01*
X371871883Y-71554132D02*
X372901883Y-71554132D01*
X374581883Y-71354132D02*
X375501883Y-71354132D01*
X372303883Y-70954132D02*
X372901883Y-70954132D01*
X374581883Y-71835132D02*
X375723883Y-71835132D01*
X372346883Y-74544933D02*
X372746883Y-74544933D01*
X371699883Y-72075132D02*
X372901883Y-72075132D01*
X374581883Y-71875132D02*
X375735883Y-71875132D01*
X372437883Y-70834132D02*
X375045883Y-70834132D01*
X374581883Y-71474132D02*
X375571883Y-71474132D01*
X374581883Y-71714132D02*
X375681883Y-71714132D01*
X374581883Y-71634132D02*
X375648883Y-71634132D01*
X371773883Y-71795132D02*
X372901883Y-71795132D01*
X371667883Y-72315132D02*
X372901883Y-72315132D01*
X374581883Y-71034132D02*
X375257883Y-71034132D01*
X372541883Y-70754132D02*
X374941883Y-70754132D01*
X372801883Y-70594132D02*
X374681883Y-70594132D01*
X371981883Y-71354132D02*
X372901883Y-71354132D01*
X371716883Y-71995132D02*
X372901883Y-71995132D01*
X372345883Y-70914132D02*
X372901883Y-70914132D01*
X374581883Y-72195132D02*
X375803883Y-72195132D01*
X371674883Y-72235132D02*
X372901883Y-72235132D01*
X372661883Y-70674132D02*
X374821883Y-70674132D01*
X371670883Y-72275132D02*
X372901883Y-72275132D01*
X371679883Y-72195132D02*
X372901883Y-72195132D01*
X374581883Y-72115132D02*
X375791883Y-72115132D01*
X371736883Y-71915132D02*
X372901883Y-71915132D01*
X372225883Y-71034132D02*
X372901883Y-71034132D01*
X371662883Y-72395132D02*
X372901883Y-72395132D01*
X374581883Y-72475132D02*
X375821883Y-72475132D01*
X374581883Y-70914132D02*
X375137883Y-70914132D01*
X371661883Y-72475132D02*
X372901883Y-72475132D01*
X371661883Y-72435132D02*
X372901883Y-72435132D01*
X371664883Y-72355132D02*
X372901883Y-72355132D01*
X374581883Y-71674132D02*
X375665883Y-71674132D01*
X374581883Y-71114132D02*
X375328883Y-71114132D01*
X371685883Y-72155132D02*
X372901883Y-72155132D01*
X374581883Y-72315132D02*
X375815883Y-72315132D01*
X371691883Y-72115132D02*
X372901883Y-72115132D01*
X374581883Y-71314132D02*
X375476883Y-71314132D01*
X372189883Y-71074132D02*
X372901883Y-71074132D01*
X372390883Y-70874132D02*
X375092883Y-70874132D01*
X371956883Y-71394132D02*
X372901883Y-71394132D01*
X374581883Y-71594132D02*
X375630883Y-71594132D01*
X374581883Y-71194132D02*
X375391883Y-71194132D01*
X372033883Y-71274132D02*
X372901883Y-71274132D01*
X373204883Y-70434132D02*
X374278883Y-70434132D01*
X374581883Y-72435132D02*
X375821883Y-72435132D01*
X372487883Y-70794132D02*
X374995883Y-70794132D01*
X371933883Y-71434132D02*
X372901883Y-71434132D01*
X374581883Y-71234132D02*
X375421883Y-71234132D01*
X371801883Y-71714132D02*
X372901883Y-71714132D01*
X374581883Y-71274132D02*
X375449883Y-71274132D01*
X372061883Y-71234132D02*
X372901883Y-71234132D01*
X372091883Y-71194132D02*
X372901883Y-71194132D01*
X371911883Y-71474132D02*
X372901883Y-71474132D01*
X371817883Y-71674132D02*
X372901883Y-71674132D01*
X371890883Y-71514132D02*
X372901883Y-71514132D01*
X374581883Y-71754132D02*
X375695883Y-71754132D01*
X374581883Y-71514132D02*
X375592883Y-71514132D01*
X372263883Y-70994132D02*
X372901883Y-70994132D01*
X371834883Y-71634132D02*
X372901883Y-71634132D01*
X374581883Y-71955132D02*
X375757883Y-71955132D01*
X371707883Y-72035132D02*
X372901883Y-72035132D01*
X374581883Y-72035132D02*
X375775883Y-72035132D01*
X371725883Y-71955132D02*
X372901883Y-71955132D01*
X372728883Y-70634132D02*
X374754883Y-70634132D01*
X374581883Y-72075132D02*
X375783883Y-72075132D01*
X374581883Y-71434132D02*
X375549883Y-71434132D01*
X373077883Y-70474132D02*
X374405883Y-70474132D01*
X372882883Y-70554132D02*
X374600883Y-70554132D01*
X374581883Y-70994132D02*
X375219883Y-70994132D01*
X373371883Y-70394132D02*
X374111883Y-70394132D01*
X374581883Y-71915132D02*
X375746883Y-71915132D01*
X374581883Y-72355132D02*
X375818883Y-72355132D01*
X374581883Y-72155132D02*
X375797883Y-72155132D01*
X374581883Y-72275132D02*
X375812883Y-72275132D01*
X375861883Y-72475132D02*
G75*
G03*
X375861883Y-72475132I-2120000J0D01*
G01*
X372176883Y-63693933D02*
X372176883Y-63849933D01*
X372176883Y-66009933D02*
X372176883Y-66165933D01*
X375409218Y-63851325D02*
G75*
G03*
X372176883Y-63694417I-1672335J-1078609D01*
G01*
X372176883Y-66165449D02*
G75*
G03*
X375409218Y-66008541I1560000J1235517D01*
G01*
X374778013Y-63850096D02*
G75*
G03*
X372695922Y-63849933I-1041130J-1079837D01*
G01*
X372695922Y-66009933D02*
G75*
G03*
X374778013Y-66009770I1040961J1080000D01*
G01*
X250183564Y-64932400D02*
X248903564Y-64932400D01*
X246933564Y-63922400D02*
X246933564Y-65912400D01*
X249923564Y-63922400D02*
X249923564Y-65922400D01*
X247843564Y-64392400D02*
X247843564Y-65472400D01*
X248893564Y-64392400D02*
X248893564Y-65472400D01*
X249913564Y-63922400D02*
X246943564Y-63922400D01*
X248793564Y-64932400D02*
X247843564Y-65472400D01*
X248783564Y-64922400D02*
X247873564Y-64392400D01*
X246723564Y-64932400D02*
X247843564Y-64932400D01*
X249923564Y-65922400D02*
X246933564Y-65912400D01*
X120111000Y-67472400D02*
X119161000Y-68012400D01*
X118041000Y-67472400D02*
X119161000Y-67472400D01*
X121241000Y-68462400D02*
X118251000Y-68452400D01*
X121241000Y-66462400D02*
X121241000Y-68462400D01*
X121231000Y-66462400D02*
X118261000Y-66462400D01*
X120101000Y-67462400D02*
X119191000Y-66932400D01*
X119161000Y-66932400D02*
X119161000Y-68012400D01*
X121501000Y-67472400D02*
X120221000Y-67472400D01*
X118251000Y-66462400D02*
X118251000Y-68452400D01*
X120211000Y-66932400D02*
X120211000Y-68012400D01*
X238175681Y-61852400D02*
X238175681Y-62932400D01*
X239225681Y-61852400D02*
X239225681Y-62932400D01*
X237055681Y-62392400D02*
X238175681Y-62392400D01*
X240515681Y-62392400D02*
X239235681Y-62392400D01*
X240255681Y-61382400D02*
X240255681Y-63382400D01*
X240255681Y-63382400D02*
X237265681Y-63372400D01*
X239115681Y-62382400D02*
X238205681Y-61852400D01*
X239125681Y-62392400D02*
X238175681Y-62932400D01*
X237265681Y-61382400D02*
X237265681Y-63372400D01*
X240245681Y-61382400D02*
X237275681Y-61382400D01*
X275234330Y-62392400D02*
X273954330Y-62392400D01*
X274974330Y-63382400D02*
X271984330Y-63372400D01*
X271984330Y-61382400D02*
X271984330Y-63372400D01*
X273844330Y-62392400D02*
X272894330Y-62932400D01*
X274964330Y-61382400D02*
X271994330Y-61382400D01*
X272894330Y-61852400D02*
X272894330Y-62932400D01*
X274974330Y-61382400D02*
X274974330Y-63382400D01*
X273944330Y-61852400D02*
X273944330Y-62932400D01*
X271774330Y-62392400D02*
X272894330Y-62392400D01*
X273834330Y-62382400D02*
X272924330Y-61852400D01*
X184489593Y-74082400D02*
X181519593Y-74082400D01*
X183359593Y-75082400D02*
X182449593Y-74552400D01*
X184499593Y-76082400D02*
X181509593Y-76072400D01*
X184759593Y-75092400D02*
X183479593Y-75092400D01*
X181509593Y-74082400D02*
X181509593Y-76072400D01*
X183369593Y-75092400D02*
X182419593Y-75632400D01*
X181299593Y-75092400D02*
X182419593Y-75092400D01*
X184499593Y-74082400D02*
X184499593Y-76082400D01*
X182419593Y-74552400D02*
X182419593Y-75632400D01*
X183469593Y-74552400D02*
X183469593Y-75632400D01*
X196071514Y-76082400D02*
X193081514Y-76072400D01*
X195041514Y-74552400D02*
X195041514Y-75632400D01*
X194941514Y-75092400D02*
X193991514Y-75632400D01*
X194931514Y-75082400D02*
X194021514Y-74552400D01*
X196331514Y-75092400D02*
X195051514Y-75092400D01*
X192871514Y-75092400D02*
X193991514Y-75092400D01*
X193081514Y-74082400D02*
X193081514Y-76072400D01*
X196061514Y-74082400D02*
X193091514Y-74082400D01*
X193991514Y-74552400D02*
X193991514Y-75632400D01*
X196071514Y-74082400D02*
X196071514Y-76082400D01*
X359729000Y-75299000D02*
X359729000Y-62379000D01*
X359729000Y-62379000D02*
X308809000Y-62379000D01*
X308809000Y-75299000D02*
X359729000Y-75299000D01*
X308809000Y-69839000D02*
X308809000Y-75299000D01*
X308809000Y-62379000D02*
X308809000Y-67839000D01*
X308809000Y-69839000D02*
G75*
G03*
X308809000Y-67839000I0J1000000D01*
G01*
X60635000Y-67875899D02*
X60635000Y-69375899D01*
X67635000Y-69375899D02*
X67635000Y-67875899D01*
X66385000Y-65375899D02*
X61885000Y-65375899D01*
X61885000Y-71875899D02*
X66385000Y-71875899D01*
X366750883Y-62499833D02*
X365492883Y-62499833D01*
X366750883Y-60659833D02*
X365492883Y-60659833D01*
X366750883Y-74960033D02*
X365492883Y-74960033D01*
X366750883Y-76800033D02*
X365492883Y-76800033D01*
X296143800Y-59540800D02*
X296143800Y-59525800D01*
X300683800Y-57415800D02*
X300683800Y-57400800D01*
X300683800Y-59540800D02*
X300683800Y-59525800D01*
X300683800Y-57400800D02*
X296143800Y-57400800D01*
X296143800Y-57415800D02*
X296143800Y-57400800D01*
X300683800Y-59540800D02*
X296143800Y-59540800D01*
X296129200Y-78025600D02*
X296129200Y-78040600D01*
X296129200Y-80150600D02*
X296129200Y-80165600D01*
X296129200Y-80165600D02*
X300669200Y-80165600D01*
X300669200Y-78025600D02*
X300669200Y-78040600D01*
X300669200Y-80150600D02*
X300669200Y-80165600D01*
X296129200Y-78025600D02*
X300669200Y-78025600D01*
X87084500Y-62392400D02*
X88204500Y-62392400D01*
X89144500Y-62382400D02*
X88234500Y-61852400D01*
X90274500Y-61382400D02*
X87304500Y-61382400D01*
X87294500Y-61382400D02*
X87294500Y-63372400D01*
X90284500Y-61382400D02*
X90284500Y-63382400D01*
X89254500Y-61852400D02*
X89254500Y-62932400D01*
X89154500Y-62392400D02*
X88204500Y-62932400D01*
X90284500Y-63382400D02*
X87294500Y-63372400D01*
X88204500Y-61852400D02*
X88204500Y-62932400D01*
X90544500Y-62392400D02*
X89264500Y-62392400D01*
X98657383Y-62392400D02*
X99777383Y-62392400D01*
X101857383Y-63382400D02*
X98867383Y-63372400D01*
X100827383Y-61852400D02*
X100827383Y-62932400D01*
X101857383Y-61382400D02*
X101857383Y-63382400D01*
X100727383Y-62392400D02*
X99777383Y-62932400D01*
X98867383Y-61382400D02*
X98867383Y-63372400D01*
X102117383Y-62392400D02*
X100837383Y-62392400D01*
X101847383Y-61382400D02*
X98877383Y-61382400D01*
X99777383Y-61852400D02*
X99777383Y-62932400D01*
X100717383Y-62382400D02*
X99807383Y-61852400D01*
X111350266Y-61852400D02*
X111350266Y-62932400D01*
X110440266Y-61382400D02*
X110440266Y-63372400D01*
X113420266Y-61382400D02*
X110450266Y-61382400D01*
X113690266Y-62392400D02*
X112410266Y-62392400D01*
X112400266Y-61852400D02*
X112400266Y-62932400D01*
X110230266Y-62392400D02*
X111350266Y-62392400D01*
X112290266Y-62382400D02*
X111380266Y-61852400D01*
X113430266Y-63382400D02*
X110440266Y-63372400D01*
X112300266Y-62392400D02*
X111350266Y-62932400D01*
X113430266Y-61382400D02*
X113430266Y-63382400D01*
X121803149Y-62392400D02*
X122923149Y-62392400D01*
X125263149Y-62392400D02*
X123983149Y-62392400D01*
X123863149Y-62382400D02*
X122953149Y-61852400D01*
X123973149Y-61852400D02*
X123973149Y-62932400D01*
X122013149Y-61382400D02*
X122013149Y-63372400D01*
X124993149Y-61382400D02*
X122023149Y-61382400D01*
X123873149Y-62392400D02*
X122923149Y-62932400D01*
X122923149Y-61852400D02*
X122923149Y-62932400D01*
X125003149Y-63382400D02*
X122013149Y-63372400D01*
X125003149Y-61382400D02*
X125003149Y-63382400D01*
X159245500Y-63382400D02*
X156255500Y-63372400D01*
X156045500Y-62392400D02*
X157165500Y-62392400D01*
X157165500Y-61852400D02*
X157165500Y-62932400D01*
X158215500Y-61852400D02*
X158215500Y-62932400D01*
X159235500Y-61382400D02*
X156265500Y-61382400D01*
X159505500Y-62392400D02*
X158225500Y-62392400D01*
X156255500Y-61382400D02*
X156255500Y-63372400D01*
X158115500Y-62392400D02*
X157165500Y-62932400D01*
X158105500Y-62382400D02*
X157195500Y-61852400D01*
X159245500Y-61382400D02*
X159245500Y-63382400D01*
X171078383Y-62392400D02*
X169798383Y-62392400D01*
X168738383Y-61852400D02*
X168738383Y-62932400D01*
X169688383Y-62392400D02*
X168738383Y-62932400D01*
X167618383Y-62392400D02*
X168738383Y-62392400D01*
X167828383Y-61382400D02*
X167828383Y-63372400D01*
X170818383Y-63382400D02*
X167828383Y-63372400D01*
X169678383Y-62382400D02*
X168768383Y-61852400D01*
X170808383Y-61382400D02*
X167838383Y-61382400D01*
X170818383Y-61382400D02*
X170818383Y-63382400D01*
X169788383Y-61852400D02*
X169788383Y-62932400D01*
X182381266Y-61382400D02*
X179411266Y-61382400D01*
X182391266Y-63382400D02*
X179401266Y-63372400D01*
X179401266Y-61382400D02*
X179401266Y-63372400D01*
X181261266Y-62392400D02*
X180311266Y-62932400D01*
X182651266Y-62392400D02*
X181371266Y-62392400D01*
X181251266Y-62382400D02*
X180341266Y-61852400D01*
X182391266Y-61382400D02*
X182391266Y-63382400D01*
X181361266Y-61852400D02*
X181361266Y-62932400D01*
X180311266Y-61852400D02*
X180311266Y-62932400D01*
X179191266Y-62392400D02*
X180311266Y-62392400D01*
X190974149Y-61382400D02*
X190974149Y-63372400D01*
X193964149Y-63382400D02*
X190974149Y-63372400D01*
X192934149Y-61852400D02*
X192934149Y-62932400D01*
X190764149Y-62392400D02*
X191884149Y-62392400D01*
X194224149Y-62392400D02*
X192944149Y-62392400D01*
X192834149Y-62392400D02*
X191884149Y-62932400D01*
X192824149Y-62382400D02*
X191914149Y-61852400D01*
X193964149Y-61382400D02*
X193964149Y-63382400D01*
X191884149Y-61852400D02*
X191884149Y-62932400D01*
X193954149Y-61382400D02*
X190984149Y-61382400D01*
X203457032Y-61852400D02*
X203457032Y-62932400D01*
X202337032Y-62392400D02*
X203457032Y-62392400D01*
X204407032Y-62392400D02*
X203457032Y-62932400D01*
X204397032Y-62382400D02*
X203487032Y-61852400D01*
X202547032Y-61382400D02*
X202547032Y-63372400D01*
X205797032Y-62392400D02*
X204517032Y-62392400D01*
X205527032Y-61382400D02*
X202557032Y-61382400D01*
X205537032Y-61382400D02*
X205537032Y-63382400D01*
X204507032Y-61852400D02*
X204507032Y-62932400D01*
X205537032Y-63382400D02*
X202547032Y-63372400D01*
X214119915Y-61382400D02*
X214119915Y-63372400D01*
X215029915Y-61852400D02*
X215029915Y-62932400D01*
X217099915Y-61382400D02*
X214129915Y-61382400D01*
X216079915Y-61852400D02*
X216079915Y-62932400D01*
X215969915Y-62382400D02*
X215059915Y-61852400D01*
X217109915Y-61382400D02*
X217109915Y-63382400D01*
X213909915Y-62392400D02*
X215029915Y-62392400D01*
X215979915Y-62392400D02*
X215029915Y-62932400D01*
X217369915Y-62392400D02*
X216089915Y-62392400D01*
X217109915Y-63382400D02*
X214119915Y-63372400D01*
X225482798Y-62392400D02*
X226602798Y-62392400D01*
X228672798Y-61382400D02*
X225702798Y-61382400D01*
X227542798Y-62382400D02*
X226632798Y-61852400D01*
X228942798Y-62392400D02*
X227662798Y-62392400D01*
X227652798Y-61852400D02*
X227652798Y-62932400D01*
X225692798Y-61382400D02*
X225692798Y-63372400D01*
X228682798Y-63382400D02*
X225692798Y-63372400D01*
X228682798Y-61382400D02*
X228682798Y-63382400D01*
X226602798Y-61852400D02*
X226602798Y-62932400D01*
X227552798Y-62392400D02*
X226602798Y-62932400D01*
X248628564Y-62392400D02*
X249748564Y-62392400D01*
X250698564Y-62392400D02*
X249748564Y-62932400D01*
X248838564Y-61382400D02*
X248838564Y-63372400D01*
X250798564Y-61852400D02*
X250798564Y-62932400D01*
X251828564Y-63382400D02*
X248838564Y-63372400D01*
X251818564Y-61382400D02*
X248848564Y-61382400D01*
X250688564Y-62382400D02*
X249778564Y-61852400D01*
X251828564Y-61382400D02*
X251828564Y-63382400D01*
X252088564Y-62392400D02*
X250808564Y-62392400D01*
X249748564Y-61852400D02*
X249748564Y-62932400D01*
X263401447Y-63382400D02*
X260411447Y-63372400D01*
X262371447Y-61852400D02*
X262371447Y-62932400D01*
X263661447Y-62392400D02*
X262381447Y-62392400D01*
X262261447Y-62382400D02*
X261351447Y-61852400D01*
X263391447Y-61382400D02*
X260421447Y-61382400D01*
X260201447Y-62392400D02*
X261321447Y-62392400D01*
X261321447Y-61852400D02*
X261321447Y-62932400D01*
X260411447Y-61382400D02*
X260411447Y-63372400D01*
X262271447Y-62392400D02*
X261321447Y-62932400D01*
X263401447Y-61382400D02*
X263401447Y-63382400D01*
X269259330Y-69002400D02*
X269259330Y-71002400D01*
X269259330Y-71002400D02*
X266269330Y-70992400D01*
X268129330Y-70012400D02*
X267179330Y-70552400D01*
X268229330Y-69472400D02*
X268229330Y-70552400D01*
X269249330Y-69002400D02*
X266279330Y-69002400D01*
X266059330Y-70012400D02*
X267179330Y-70012400D01*
X269519330Y-70012400D02*
X268239330Y-70012400D01*
X268119330Y-70002400D02*
X267209330Y-69472400D01*
X267179330Y-69472400D02*
X267179330Y-70552400D01*
X266269330Y-69002400D02*
X266269330Y-70992400D01*
X86347351Y-64392400D02*
X86347351Y-65472400D01*
X87397351Y-64392400D02*
X87397351Y-65472400D01*
X88417351Y-63922400D02*
X85447351Y-63922400D01*
X88687351Y-64932400D02*
X87407351Y-64932400D01*
X87297351Y-64932400D02*
X86347351Y-65472400D01*
X88427351Y-65922400D02*
X85437351Y-65912400D01*
X85437351Y-63922400D02*
X85437351Y-65912400D01*
X88427351Y-63922400D02*
X88427351Y-65922400D01*
X87287351Y-64922400D02*
X86377351Y-64392400D01*
X85227351Y-64932400D02*
X86347351Y-64932400D01*
X98870234Y-64932400D02*
X97920234Y-65472400D01*
X97920234Y-64392400D02*
X97920234Y-65472400D01*
X100260234Y-64932400D02*
X98980234Y-64932400D01*
X98860234Y-64922400D02*
X97950234Y-64392400D01*
X96800234Y-64932400D02*
X97920234Y-64932400D01*
X98970234Y-64392400D02*
X98970234Y-65472400D01*
X99990234Y-63922400D02*
X97020234Y-63922400D01*
X97010234Y-63922400D02*
X97010234Y-65912400D01*
X100000234Y-65922400D02*
X97010234Y-65912400D01*
X100000234Y-63922400D02*
X100000234Y-65922400D01*
X110443117Y-64932400D02*
X109493117Y-65472400D01*
X111573117Y-63922400D02*
X111573117Y-65922400D01*
X111563117Y-63922400D02*
X108593117Y-63922400D01*
X110433117Y-64922400D02*
X109523117Y-64392400D01*
X108583117Y-63922400D02*
X108583117Y-65912400D01*
X108373117Y-64932400D02*
X109493117Y-64932400D01*
X109493117Y-64392400D02*
X109493117Y-65472400D01*
X111573117Y-65922400D02*
X108583117Y-65912400D01*
X110543117Y-64392400D02*
X110543117Y-65472400D01*
X111833117Y-64932400D02*
X110553117Y-64932400D01*
X121066000Y-64392400D02*
X121066000Y-65472400D01*
X120156000Y-63922400D02*
X120156000Y-65912400D01*
X119946000Y-64932400D02*
X121066000Y-64932400D01*
X123146000Y-63922400D02*
X123146000Y-65922400D01*
X122116000Y-64392400D02*
X122116000Y-65472400D01*
X122006000Y-64922400D02*
X121096000Y-64392400D01*
X123146000Y-65922400D02*
X120156000Y-65912400D01*
X123406000Y-64932400D02*
X122126000Y-64932400D01*
X123136000Y-63922400D02*
X120166000Y-63922400D01*
X122016000Y-64932400D02*
X121066000Y-65472400D01*
X157340500Y-65922400D02*
X154350500Y-65912400D01*
X157330500Y-63922400D02*
X154360500Y-63922400D01*
X157340500Y-63922400D02*
X157340500Y-65922400D01*
X156200500Y-64922400D02*
X155290500Y-64392400D01*
X155260500Y-64392400D02*
X155260500Y-65472400D01*
X154350500Y-63922400D02*
X154350500Y-65912400D01*
X156210500Y-64932400D02*
X155260500Y-65472400D01*
X154140500Y-64932400D02*
X155260500Y-64932400D01*
X157600500Y-64932400D02*
X156320500Y-64932400D01*
X156310500Y-64392400D02*
X156310500Y-65472400D01*
X169173383Y-64932400D02*
X167893383Y-64932400D01*
X168913383Y-65922400D02*
X165923383Y-65912400D01*
X167783383Y-64932400D02*
X166833383Y-65472400D01*
X165923383Y-63922400D02*
X165923383Y-65912400D01*
X167883383Y-64392400D02*
X167883383Y-65472400D01*
X166833383Y-64392400D02*
X166833383Y-65472400D01*
X167773383Y-64922400D02*
X166863383Y-64392400D01*
X168903383Y-63922400D02*
X165933383Y-63922400D01*
X165713383Y-64932400D02*
X166833383Y-64932400D01*
X168913383Y-63922400D02*
X168913383Y-65922400D01*
X177286266Y-64932400D02*
X178406266Y-64932400D01*
X177496266Y-63922400D02*
X177496266Y-65912400D01*
X180486266Y-63922400D02*
X180486266Y-65922400D01*
X179346266Y-64922400D02*
X178436266Y-64392400D01*
X180486266Y-65922400D02*
X177496266Y-65912400D01*
X179356266Y-64932400D02*
X178406266Y-65472400D01*
X180476266Y-63922400D02*
X177506266Y-63922400D01*
X179456266Y-64392400D02*
X179456266Y-65472400D01*
X180746266Y-64932400D02*
X179466266Y-64932400D01*
X178406266Y-64392400D02*
X178406266Y-65472400D01*
X190919149Y-64922400D02*
X190009149Y-64392400D01*
X192049149Y-63922400D02*
X189079149Y-63922400D01*
X188859149Y-64932400D02*
X189979149Y-64932400D01*
X191029149Y-64392400D02*
X191029149Y-65472400D01*
X192059149Y-63922400D02*
X192059149Y-65922400D01*
X190929149Y-64932400D02*
X189979149Y-65472400D01*
X189069149Y-63922400D02*
X189069149Y-65912400D01*
X192059149Y-65922400D02*
X189069149Y-65912400D01*
X189979149Y-64392400D02*
X189979149Y-65472400D01*
X192319149Y-64932400D02*
X191039149Y-64932400D01*
X203622032Y-63922400D02*
X200652032Y-63922400D01*
X203892032Y-64932400D02*
X202612032Y-64932400D01*
X202492032Y-64922400D02*
X201582032Y-64392400D01*
X201552032Y-64392400D02*
X201552032Y-65472400D01*
X203632032Y-63922400D02*
X203632032Y-65922400D01*
X203632032Y-65922400D02*
X200642032Y-65912400D01*
X202602032Y-64392400D02*
X202602032Y-65472400D01*
X200642032Y-63922400D02*
X200642032Y-65912400D01*
X202502032Y-64932400D02*
X201552032Y-65472400D01*
X200432032Y-64932400D02*
X201552032Y-64932400D01*
X214174915Y-64392400D02*
X214174915Y-65472400D01*
X213124915Y-64392400D02*
X213124915Y-65472400D01*
X214064915Y-64922400D02*
X213154915Y-64392400D01*
X215204915Y-63922400D02*
X215204915Y-65922400D01*
X214074915Y-64932400D02*
X213124915Y-65472400D01*
X212214915Y-63922400D02*
X212214915Y-65912400D01*
X215194915Y-63922400D02*
X212224915Y-63922400D01*
X215464915Y-64932400D02*
X214184915Y-64932400D01*
X215204915Y-65922400D02*
X212214915Y-65912400D01*
X212004915Y-64932400D02*
X213124915Y-64932400D01*
X226777798Y-63922400D02*
X226777798Y-65922400D01*
X223787798Y-63922400D02*
X223787798Y-65912400D01*
X225747798Y-64392400D02*
X225747798Y-65472400D01*
X224697798Y-64392400D02*
X224697798Y-65472400D01*
X226777798Y-65922400D02*
X223787798Y-65912400D01*
X225637798Y-64922400D02*
X224727798Y-64392400D01*
X226767798Y-63922400D02*
X223797798Y-63922400D01*
X225647798Y-64932400D02*
X224697798Y-65472400D01*
X223577798Y-64932400D02*
X224697798Y-64932400D01*
X227037798Y-64932400D02*
X225757798Y-64932400D01*
X238350681Y-63922400D02*
X238350681Y-65922400D01*
X237210681Y-64922400D02*
X236300681Y-64392400D01*
X237320681Y-64392400D02*
X237320681Y-65472400D01*
X238350681Y-65922400D02*
X235360681Y-65912400D01*
X238340681Y-63922400D02*
X235370681Y-63922400D01*
X237220681Y-64932400D02*
X236270681Y-65472400D01*
X235360681Y-63922400D02*
X235360681Y-65912400D01*
X238610681Y-64932400D02*
X237330681Y-64932400D01*
X236270681Y-64392400D02*
X236270681Y-65472400D01*
X235150681Y-64932400D02*
X236270681Y-64932400D01*
X260356447Y-64922400D02*
X259446447Y-64392400D01*
X259416447Y-64392400D02*
X259416447Y-65472400D01*
X261496447Y-63922400D02*
X261496447Y-65922400D01*
X258296447Y-64932400D02*
X259416447Y-64932400D01*
X261486447Y-63922400D02*
X258516447Y-63922400D01*
X261756447Y-64932400D02*
X260476447Y-64932400D01*
X260466447Y-64392400D02*
X260466447Y-65472400D01*
X261496447Y-65922400D02*
X258506447Y-65912400D01*
X258506447Y-63922400D02*
X258506447Y-65912400D01*
X260366447Y-64932400D02*
X259416447Y-65472400D01*
X273059330Y-63922400D02*
X270089330Y-63922400D01*
X270079330Y-63922400D02*
X270079330Y-65912400D01*
X273069330Y-63922400D02*
X273069330Y-65922400D01*
X270989330Y-64392400D02*
X270989330Y-65472400D01*
X271929330Y-64922400D02*
X271019330Y-64392400D01*
X272039330Y-64392400D02*
X272039330Y-65472400D01*
X273069330Y-65922400D02*
X270079330Y-65912400D01*
X273329330Y-64932400D02*
X272049330Y-64932400D01*
X271939330Y-64932400D02*
X270989330Y-65472400D01*
X269869330Y-64932400D02*
X270989330Y-64932400D01*
X267280660Y-71542400D02*
X264310660Y-71542400D01*
X266150660Y-72542400D02*
X265240660Y-72012400D01*
X264090660Y-72552400D02*
X265210660Y-72552400D01*
X266160660Y-72552400D02*
X265210660Y-73092400D01*
X267550660Y-72552400D02*
X266270660Y-72552400D01*
X265210660Y-72012400D02*
X265210660Y-73092400D01*
X266260660Y-72012400D02*
X266260660Y-73092400D01*
X264300660Y-71542400D02*
X264300660Y-73532400D01*
X267290660Y-71542400D02*
X267290660Y-73542400D01*
X267290660Y-73542400D02*
X264300660Y-73532400D01*
X256656447Y-69472400D02*
X256656447Y-70552400D01*
X257946447Y-70012400D02*
X256666447Y-70012400D01*
X255606447Y-69472400D02*
X255606447Y-70552400D01*
X257676447Y-69002400D02*
X254706447Y-69002400D01*
X256556447Y-70012400D02*
X255606447Y-70552400D01*
X257686447Y-69002400D02*
X257686447Y-71002400D01*
X254696447Y-69002400D02*
X254696447Y-70992400D01*
X257686447Y-71002400D02*
X254696447Y-70992400D01*
X256546447Y-70002400D02*
X255636447Y-69472400D01*
X254486447Y-70012400D02*
X255606447Y-70012400D01*
X85392351Y-67472400D02*
X84442351Y-68012400D01*
X85492351Y-66932400D02*
X85492351Y-68012400D01*
X86522351Y-66462400D02*
X86522351Y-68462400D01*
X83532351Y-66462400D02*
X83532351Y-68452400D01*
X83322351Y-67472400D02*
X84442351Y-67472400D01*
X85382351Y-67462400D02*
X84472351Y-66932400D01*
X84442351Y-66932400D02*
X84442351Y-68012400D01*
X86522351Y-68462400D02*
X83532351Y-68452400D01*
X86782351Y-67472400D02*
X85502351Y-67472400D01*
X86512351Y-66462400D02*
X83542351Y-66462400D01*
X98095234Y-66462400D02*
X98095234Y-68462400D01*
X98095234Y-68462400D02*
X95105234Y-68452400D01*
X98355234Y-67472400D02*
X97075234Y-67472400D01*
X94895234Y-67472400D02*
X96015234Y-67472400D01*
X96015234Y-66932400D02*
X96015234Y-68012400D01*
X96965234Y-67472400D02*
X96015234Y-68012400D01*
X98085234Y-66462400D02*
X95115234Y-66462400D01*
X95105234Y-66462400D02*
X95105234Y-68452400D01*
X96955234Y-67462400D02*
X96045234Y-66932400D01*
X97065234Y-66932400D02*
X97065234Y-68012400D01*
X108528117Y-67462400D02*
X107618117Y-66932400D01*
X109928117Y-67472400D02*
X108648117Y-67472400D01*
X109668117Y-66462400D02*
X109668117Y-68462400D01*
X109668117Y-68462400D02*
X106678117Y-68452400D01*
X107588117Y-66932400D02*
X107588117Y-68012400D01*
X108538117Y-67472400D02*
X107588117Y-68012400D01*
X109658117Y-66462400D02*
X106688117Y-66462400D01*
X106678117Y-66462400D02*
X106678117Y-68452400D01*
X108638117Y-66932400D02*
X108638117Y-68012400D01*
X106468117Y-67472400D02*
X107588117Y-67472400D01*
X155488830Y-66462400D02*
X152518830Y-66462400D01*
X155498830Y-66462400D02*
X155498830Y-68462400D01*
X154468830Y-66932400D02*
X154468830Y-68012400D01*
X154368830Y-67472400D02*
X153418830Y-68012400D01*
X153418830Y-66932400D02*
X153418830Y-68012400D01*
X152298830Y-67472400D02*
X153418830Y-67472400D01*
X155498830Y-68462400D02*
X152508830Y-68452400D01*
X152508830Y-66462400D02*
X152508830Y-68452400D01*
X154358830Y-67462400D02*
X153448830Y-66932400D01*
X155758830Y-67472400D02*
X154478830Y-67472400D01*
X167061713Y-66462400D02*
X164091713Y-66462400D01*
X163871713Y-67472400D02*
X164991713Y-67472400D01*
X167071713Y-68462400D02*
X164081713Y-68452400D01*
X165941713Y-67472400D02*
X164991713Y-68012400D01*
X164081713Y-66462400D02*
X164081713Y-68452400D01*
X166041713Y-66932400D02*
X166041713Y-68012400D01*
X164991713Y-66932400D02*
X164991713Y-68012400D01*
X167331713Y-67472400D02*
X166051713Y-67472400D01*
X167071713Y-66462400D02*
X167071713Y-68462400D01*
X165931713Y-67462400D02*
X165021713Y-66932400D01*
X178634596Y-66462400D02*
X175664596Y-66462400D01*
X176564596Y-66932400D02*
X176564596Y-68012400D01*
X175444596Y-67472400D02*
X176564596Y-67472400D01*
X177514596Y-67472400D02*
X176564596Y-68012400D01*
X177614596Y-66932400D02*
X177614596Y-68012400D01*
X175654596Y-66462400D02*
X175654596Y-68452400D01*
X178644596Y-68462400D02*
X175654596Y-68452400D01*
X178904596Y-67472400D02*
X177624596Y-67472400D01*
X177504596Y-67462400D02*
X176594596Y-66932400D01*
X178644596Y-66462400D02*
X178644596Y-68462400D01*
X187017479Y-67472400D02*
X188137479Y-67472400D01*
X189087479Y-67472400D02*
X188137479Y-68012400D01*
X188137479Y-66932400D02*
X188137479Y-68012400D01*
X187227479Y-66462400D02*
X187227479Y-68452400D01*
X190207479Y-66462400D02*
X187237479Y-66462400D01*
X189077479Y-67462400D02*
X188167479Y-66932400D01*
X190217479Y-66462400D02*
X190217479Y-68462400D01*
X190477479Y-67472400D02*
X189197479Y-67472400D01*
X190217479Y-68462400D02*
X187227479Y-68452400D01*
X189187479Y-66932400D02*
X189187479Y-68012400D01*
X202050362Y-67472400D02*
X200770362Y-67472400D01*
X198590362Y-67472400D02*
X199710362Y-67472400D01*
X201790362Y-68462400D02*
X198800362Y-68452400D01*
X200650362Y-67462400D02*
X199740362Y-66932400D01*
X200660362Y-67472400D02*
X199710362Y-68012400D01*
X199710362Y-66932400D02*
X199710362Y-68012400D01*
X201790362Y-66462400D02*
X201790362Y-68462400D01*
X201780362Y-66462400D02*
X198810362Y-66462400D01*
X198800362Y-66462400D02*
X198800362Y-68452400D01*
X200760362Y-66932400D02*
X200760362Y-68012400D01*
X213363245Y-66462400D02*
X213363245Y-68462400D01*
X211283245Y-66932400D02*
X211283245Y-68012400D01*
X210373245Y-66462400D02*
X210373245Y-68452400D01*
X213353245Y-66462400D02*
X210383245Y-66462400D01*
X212223245Y-67462400D02*
X211313245Y-66932400D01*
X213363245Y-68462400D02*
X210373245Y-68452400D01*
X213623245Y-67472400D02*
X212343245Y-67472400D01*
X212233245Y-67472400D02*
X211283245Y-68012400D01*
X210163245Y-67472400D02*
X211283245Y-67472400D01*
X212333245Y-66932400D02*
X212333245Y-68012400D01*
X224936128Y-66462400D02*
X224936128Y-68462400D01*
X221736128Y-67472400D02*
X222856128Y-67472400D01*
X223906128Y-66932400D02*
X223906128Y-68012400D01*
X224936128Y-68462400D02*
X221946128Y-68452400D01*
X223806128Y-67472400D02*
X222856128Y-68012400D01*
X221946128Y-66462400D02*
X221946128Y-68452400D01*
X223796128Y-67462400D02*
X222886128Y-66932400D01*
X225196128Y-67472400D02*
X223916128Y-67472400D01*
X224926128Y-66462400D02*
X221956128Y-66462400D01*
X222856128Y-66932400D02*
X222856128Y-68012400D01*
X235369011Y-67462400D02*
X234459011Y-66932400D01*
X233309011Y-67472400D02*
X234429011Y-67472400D01*
X234429011Y-66932400D02*
X234429011Y-68012400D01*
X235479011Y-66932400D02*
X235479011Y-68012400D01*
X236769011Y-67472400D02*
X235489011Y-67472400D01*
X236509011Y-66462400D02*
X236509011Y-68462400D01*
X236499011Y-66462400D02*
X233529011Y-66462400D01*
X233519011Y-66462400D02*
X233519011Y-68452400D01*
X236509011Y-68462400D02*
X233519011Y-68452400D01*
X235379011Y-67472400D02*
X234429011Y-68012400D01*
X248341894Y-67472400D02*
X247061894Y-67472400D01*
X247051894Y-66932400D02*
X247051894Y-68012400D01*
X246951894Y-67472400D02*
X246001894Y-68012400D01*
X248081894Y-66462400D02*
X248081894Y-68462400D01*
X245091894Y-66462400D02*
X245091894Y-68452400D01*
X246001894Y-66932400D02*
X246001894Y-68012400D01*
X244881894Y-67472400D02*
X246001894Y-67472400D01*
X248081894Y-68462400D02*
X245091894Y-68452400D01*
X246941894Y-67462400D02*
X246031894Y-66932400D01*
X248071894Y-66462400D02*
X245101894Y-66462400D01*
X259654777Y-68462400D02*
X256664777Y-68452400D01*
X256664777Y-66462400D02*
X256664777Y-68452400D01*
X258524777Y-67472400D02*
X257574777Y-68012400D01*
X258624777Y-66932400D02*
X258624777Y-68012400D01*
X256454777Y-67472400D02*
X257574777Y-67472400D01*
X259644777Y-66462400D02*
X256674777Y-66462400D01*
X259654777Y-66462400D02*
X259654777Y-68462400D01*
X259914777Y-67472400D02*
X258634777Y-67472400D01*
X258514777Y-67462400D02*
X257604777Y-66932400D01*
X257574777Y-66932400D02*
X257574777Y-68012400D01*
X270087660Y-67462400D02*
X269177660Y-66932400D01*
X268237660Y-66462400D02*
X268237660Y-68452400D01*
X271217660Y-66462400D02*
X268247660Y-66462400D01*
X270097660Y-67472400D02*
X269147660Y-68012400D01*
X269147660Y-66932400D02*
X269147660Y-68012400D01*
X271227660Y-66462400D02*
X271227660Y-68462400D01*
X271227660Y-68462400D02*
X268237660Y-68452400D01*
X271487660Y-67472400D02*
X270207660Y-67472400D01*
X270197660Y-66932400D02*
X270197660Y-68012400D01*
X268027660Y-67472400D02*
X269147660Y-67472400D01*
X264386508Y-75067000D02*
X263436508Y-75607000D01*
X262526508Y-74057000D02*
X262526508Y-76047000D01*
X265776508Y-75067000D02*
X264496508Y-75067000D01*
X264376508Y-75057000D02*
X263466508Y-74527000D01*
X264486508Y-74527000D02*
X264486508Y-75607000D01*
X265506508Y-74057000D02*
X262536508Y-74057000D01*
X265516508Y-76057000D02*
X262526508Y-76047000D01*
X263436508Y-74527000D02*
X263436508Y-75607000D01*
X265516508Y-74057000D02*
X265516508Y-76057000D01*
X262316508Y-75067000D02*
X263436508Y-75067000D01*
X253637777Y-72012400D02*
X253637777Y-73092400D01*
X254577777Y-72542400D02*
X253667777Y-72012400D01*
X255717777Y-71542400D02*
X255717777Y-73542400D01*
X252517777Y-72552400D02*
X253637777Y-72552400D01*
X255717777Y-73542400D02*
X252727777Y-73532400D01*
X255707777Y-71542400D02*
X252737777Y-71542400D01*
X255977777Y-72552400D02*
X254697777Y-72552400D01*
X254687777Y-72012400D02*
X254687777Y-73092400D01*
X252727777Y-71542400D02*
X252727777Y-73532400D01*
X254587777Y-72552400D02*
X253637777Y-73092400D01*
X84569500Y-71002400D02*
X81579500Y-70992400D01*
X81369500Y-70012400D02*
X82489500Y-70012400D01*
X81579500Y-69002400D02*
X81579500Y-70992400D01*
X83439500Y-70012400D02*
X82489500Y-70552400D01*
X84559500Y-69002400D02*
X81589500Y-69002400D01*
X83429500Y-70002400D02*
X82519500Y-69472400D01*
X82489500Y-69472400D02*
X82489500Y-70552400D01*
X84569500Y-69002400D02*
X84569500Y-71002400D01*
X83539500Y-69472400D02*
X83539500Y-70552400D01*
X84829500Y-70012400D02*
X83549500Y-70012400D01*
X92942383Y-70012400D02*
X94062383Y-70012400D01*
X96142383Y-69002400D02*
X96142383Y-71002400D01*
X95002383Y-70002400D02*
X94092383Y-69472400D01*
X96132383Y-69002400D02*
X93162383Y-69002400D01*
X95012383Y-70012400D02*
X94062383Y-70552400D01*
X94062383Y-69472400D02*
X94062383Y-70552400D01*
X96402383Y-70012400D02*
X95122383Y-70012400D01*
X96142383Y-71002400D02*
X93152383Y-70992400D01*
X95112383Y-69472400D02*
X95112383Y-70552400D01*
X93152383Y-69002400D02*
X93152383Y-70992400D01*
X107705266Y-69002400D02*
X104735266Y-69002400D01*
X107715266Y-69002400D02*
X107715266Y-71002400D01*
X106575266Y-70002400D02*
X105665266Y-69472400D01*
X105635266Y-69472400D02*
X105635266Y-70552400D01*
X106585266Y-70012400D02*
X105635266Y-70552400D01*
X107715266Y-71002400D02*
X104725266Y-70992400D01*
X106685266Y-69472400D02*
X106685266Y-70552400D01*
X107975266Y-70012400D02*
X106695266Y-70012400D01*
X104515266Y-70012400D02*
X105635266Y-70012400D01*
X104725266Y-69002400D02*
X104725266Y-70992400D01*
X119288149Y-69002400D02*
X119288149Y-71002400D01*
X117208149Y-69472400D02*
X117208149Y-70552400D01*
X118158149Y-70012400D02*
X117208149Y-70552400D01*
X116088149Y-70012400D02*
X117208149Y-70012400D01*
X119278149Y-69002400D02*
X116308149Y-69002400D01*
X118148149Y-70002400D02*
X117238149Y-69472400D01*
X116298149Y-69002400D02*
X116298149Y-70992400D01*
X119548149Y-70012400D02*
X118268149Y-70012400D01*
X118258149Y-69472400D02*
X118258149Y-70552400D01*
X119288149Y-71002400D02*
X116298149Y-70992400D01*
X150330500Y-70012400D02*
X151450500Y-70012400D01*
X152500500Y-69472400D02*
X152500500Y-70552400D01*
X153530500Y-69002400D02*
X153530500Y-71002400D01*
X151450500Y-69472400D02*
X151450500Y-70552400D01*
X152400500Y-70012400D02*
X151450500Y-70552400D01*
X153520500Y-69002400D02*
X150550500Y-69002400D01*
X150540500Y-69002400D02*
X150540500Y-70992400D01*
X152390500Y-70002400D02*
X151480500Y-69472400D01*
X153790500Y-70012400D02*
X152510500Y-70012400D01*
X153530500Y-71002400D02*
X150540500Y-70992400D01*
X165103383Y-71002400D02*
X162113383Y-70992400D01*
X162113383Y-69002400D02*
X162113383Y-70992400D01*
X164073383Y-69472400D02*
X164073383Y-70552400D01*
X161903383Y-70012400D02*
X163023383Y-70012400D01*
X165093383Y-69002400D02*
X162123383Y-69002400D01*
X165103383Y-69002400D02*
X165103383Y-71002400D01*
X163963383Y-70002400D02*
X163053383Y-69472400D01*
X165363383Y-70012400D02*
X164083383Y-70012400D01*
X163973383Y-70012400D02*
X163023383Y-70552400D01*
X163023383Y-69472400D02*
X163023383Y-70552400D01*
X175646266Y-69472400D02*
X175646266Y-70552400D01*
X175546266Y-70012400D02*
X174596266Y-70552400D01*
X174596266Y-69472400D02*
X174596266Y-70552400D01*
X173476266Y-70012400D02*
X174596266Y-70012400D01*
X176676266Y-69002400D02*
X176676266Y-71002400D01*
X176666266Y-69002400D02*
X173696266Y-69002400D01*
X173686266Y-69002400D02*
X173686266Y-70992400D01*
X175536266Y-70002400D02*
X174626266Y-69472400D01*
X176936266Y-70012400D02*
X175656266Y-70012400D01*
X176676266Y-71002400D02*
X173686266Y-70992400D01*
X187119149Y-70012400D02*
X186169149Y-70552400D01*
X185259149Y-69002400D02*
X185259149Y-70992400D01*
X188509149Y-70012400D02*
X187229149Y-70012400D01*
X188239149Y-69002400D02*
X185269149Y-69002400D01*
X188249149Y-69002400D02*
X188249149Y-71002400D01*
X188249149Y-71002400D02*
X185259149Y-70992400D01*
X185049149Y-70012400D02*
X186169149Y-70012400D01*
X187219149Y-69472400D02*
X187219149Y-70552400D01*
X186169149Y-69472400D02*
X186169149Y-70552400D01*
X187109149Y-70002400D02*
X186199149Y-69472400D01*
X198682032Y-70002400D02*
X197772032Y-69472400D01*
X199822032Y-71002400D02*
X196832032Y-70992400D01*
X196832032Y-69002400D02*
X196832032Y-70992400D01*
X199812032Y-69002400D02*
X196842032Y-69002400D01*
X200082032Y-70012400D02*
X198802032Y-70012400D01*
X197742032Y-69472400D02*
X197742032Y-70552400D01*
X198792032Y-69472400D02*
X198792032Y-70552400D01*
X196622032Y-70012400D02*
X197742032Y-70012400D01*
X198692032Y-70012400D02*
X197742032Y-70552400D01*
X199822032Y-69002400D02*
X199822032Y-71002400D01*
X211654915Y-70012400D02*
X210374915Y-70012400D01*
X209314915Y-69472400D02*
X209314915Y-70552400D01*
X208404915Y-69002400D02*
X208404915Y-70992400D01*
X211394915Y-71002400D02*
X208404915Y-70992400D01*
X210264915Y-70012400D02*
X209314915Y-70552400D01*
X211394915Y-69002400D02*
X211394915Y-71002400D01*
X211384915Y-69002400D02*
X208414915Y-69002400D01*
X208194915Y-70012400D02*
X209314915Y-70012400D01*
X210254915Y-70002400D02*
X209344915Y-69472400D01*
X210364915Y-69472400D02*
X210364915Y-70552400D01*
X221827798Y-70002400D02*
X220917798Y-69472400D01*
X220887798Y-69472400D02*
X220887798Y-70552400D01*
X219977798Y-69002400D02*
X219977798Y-70992400D01*
X223227798Y-70012400D02*
X221947798Y-70012400D01*
X222967798Y-71002400D02*
X219977798Y-70992400D01*
X222967798Y-69002400D02*
X222967798Y-71002400D01*
X221837798Y-70012400D02*
X220887798Y-70552400D01*
X219767798Y-70012400D02*
X220887798Y-70012400D01*
X222957798Y-69002400D02*
X219987798Y-69002400D01*
X221937798Y-69472400D02*
X221937798Y-70552400D01*
X233510681Y-69472400D02*
X233510681Y-70552400D01*
X234540681Y-71002400D02*
X231550681Y-70992400D01*
X232460681Y-69472400D02*
X232460681Y-70552400D01*
X231550681Y-69002400D02*
X231550681Y-70992400D01*
X234530681Y-69002400D02*
X231560681Y-69002400D01*
X231340681Y-70012400D02*
X232460681Y-70012400D01*
X233400681Y-70002400D02*
X232490681Y-69472400D01*
X234540681Y-69002400D02*
X234540681Y-71002400D01*
X234800681Y-70012400D02*
X233520681Y-70012400D01*
X233410681Y-70012400D02*
X232460681Y-70552400D01*
X244033564Y-69472400D02*
X244033564Y-70552400D01*
X246373564Y-70012400D02*
X245093564Y-70012400D01*
X243123564Y-69002400D02*
X243123564Y-70992400D01*
X246103564Y-69002400D02*
X243133564Y-69002400D01*
X244973564Y-70002400D02*
X244063564Y-69472400D01*
X245083564Y-69472400D02*
X245083564Y-70552400D01*
X244983564Y-70012400D02*
X244033564Y-70552400D01*
X246113564Y-69002400D02*
X246113564Y-71002400D01*
X242913564Y-70012400D02*
X244033564Y-70012400D01*
X246113564Y-71002400D02*
X243123564Y-70992400D01*
X82972351Y-72552400D02*
X81692351Y-72552400D01*
X80632351Y-72012400D02*
X80632351Y-73092400D01*
X81572351Y-72542400D02*
X80662351Y-72012400D01*
X79722351Y-71542400D02*
X79722351Y-73532400D01*
X82702351Y-71542400D02*
X79732351Y-71542400D01*
X79512351Y-72552400D02*
X80632351Y-72552400D01*
X82712351Y-73542400D02*
X79722351Y-73532400D01*
X81682351Y-72012400D02*
X81682351Y-73092400D01*
X82712351Y-71542400D02*
X82712351Y-73542400D01*
X81582351Y-72552400D02*
X80632351Y-73092400D01*
X91085234Y-72552400D02*
X92205234Y-72552400D01*
X93255234Y-72012400D02*
X93255234Y-73092400D01*
X94285234Y-71542400D02*
X94285234Y-73542400D01*
X91295234Y-71542400D02*
X91295234Y-73532400D01*
X94275234Y-71542400D02*
X91305234Y-71542400D01*
X94285234Y-73542400D02*
X91295234Y-73532400D01*
X94545234Y-72552400D02*
X93265234Y-72552400D01*
X93155234Y-72552400D02*
X92205234Y-73092400D01*
X92205234Y-72012400D02*
X92205234Y-73092400D01*
X93145234Y-72542400D02*
X92235234Y-72012400D01*
X102868117Y-71542400D02*
X102868117Y-73532400D01*
X104718117Y-72542400D02*
X103808117Y-72012400D01*
X105858117Y-71542400D02*
X105858117Y-73542400D01*
X106118117Y-72552400D02*
X104838117Y-72552400D01*
X103778117Y-72012400D02*
X103778117Y-73092400D01*
X105848117Y-71542400D02*
X102878117Y-71542400D01*
X104828117Y-72012400D02*
X104828117Y-73092400D01*
X102658117Y-72552400D02*
X103778117Y-72552400D01*
X105858117Y-73542400D02*
X102868117Y-73532400D01*
X104728117Y-72552400D02*
X103778117Y-73092400D01*
X116301000Y-72552400D02*
X115351000Y-73092400D01*
X117431000Y-71542400D02*
X117431000Y-73542400D01*
X116291000Y-72542400D02*
X115381000Y-72012400D01*
X114231000Y-72552400D02*
X115351000Y-72552400D01*
X114441000Y-71542400D02*
X114441000Y-73532400D01*
X117691000Y-72552400D02*
X116411000Y-72552400D01*
X117421000Y-71542400D02*
X114451000Y-71542400D01*
X117431000Y-73542400D02*
X114441000Y-73532400D01*
X115351000Y-72012400D02*
X115351000Y-73092400D01*
X116401000Y-72012400D02*
X116401000Y-73092400D01*
X150431830Y-72552400D02*
X149481830Y-73092400D01*
X148571830Y-71542400D02*
X148571830Y-73532400D01*
X151561830Y-71542400D02*
X151561830Y-73542400D01*
X150421830Y-72542400D02*
X149511830Y-72012400D01*
X151561830Y-73542400D02*
X148571830Y-73532400D01*
X151551830Y-71542400D02*
X148581830Y-71542400D01*
X150531830Y-72012400D02*
X150531830Y-73092400D01*
X149481830Y-72012400D02*
X149481830Y-73092400D01*
X151821830Y-72552400D02*
X150541830Y-72552400D01*
X148361830Y-72552400D02*
X149481830Y-72552400D01*
X162104713Y-72012400D02*
X162104713Y-73092400D01*
X163394713Y-72552400D02*
X162114713Y-72552400D01*
X163134713Y-71542400D02*
X163134713Y-73542400D01*
X163124713Y-71542400D02*
X160154713Y-71542400D01*
X160144713Y-71542400D02*
X160144713Y-73532400D01*
X161994713Y-72542400D02*
X161084713Y-72012400D01*
X162004713Y-72552400D02*
X161054713Y-73092400D01*
X159934713Y-72552400D02*
X161054713Y-72552400D01*
X161054713Y-72012400D02*
X161054713Y-73092400D01*
X163134713Y-73542400D02*
X160144713Y-73532400D01*
X174697596Y-71542400D02*
X171727596Y-71542400D01*
X174967596Y-72552400D02*
X173687596Y-72552400D01*
X173677596Y-72012400D02*
X173677596Y-73092400D01*
X173567596Y-72542400D02*
X172657596Y-72012400D01*
X173577596Y-72552400D02*
X172627596Y-73092400D01*
X171717596Y-71542400D02*
X171717596Y-73532400D01*
X174707596Y-73542400D02*
X171717596Y-73532400D01*
X174707596Y-71542400D02*
X174707596Y-73542400D01*
X171507596Y-72552400D02*
X172627596Y-72552400D01*
X172627596Y-72012400D02*
X172627596Y-73092400D01*
X186270479Y-71542400D02*
X183300479Y-71542400D01*
X184200479Y-72012400D02*
X184200479Y-73092400D01*
X186280479Y-71542400D02*
X186280479Y-73542400D01*
X185250479Y-72012400D02*
X185250479Y-73092400D01*
X186280479Y-73542400D02*
X183290479Y-73532400D01*
X186540479Y-72552400D02*
X185260479Y-72552400D01*
X185140479Y-72542400D02*
X184230479Y-72012400D01*
X185150479Y-72552400D02*
X184200479Y-73092400D01*
X183290479Y-71542400D02*
X183290479Y-73532400D01*
X183080479Y-72552400D02*
X184200479Y-72552400D01*
X194653362Y-72552400D02*
X195773362Y-72552400D01*
X197853362Y-71542400D02*
X197853362Y-73542400D01*
X194863362Y-71542400D02*
X194863362Y-73532400D01*
X197853362Y-73542400D02*
X194863362Y-73532400D01*
X196723362Y-72552400D02*
X195773362Y-73092400D01*
X197843362Y-71542400D02*
X194873362Y-71542400D01*
X195773362Y-72012400D02*
X195773362Y-73092400D01*
X196823362Y-72012400D02*
X196823362Y-73092400D01*
X196713362Y-72542400D02*
X195803362Y-72012400D01*
X198113362Y-72552400D02*
X196833362Y-72552400D01*
X208296245Y-72552400D02*
X207346245Y-73092400D01*
X207346245Y-72012400D02*
X207346245Y-73092400D01*
X208286245Y-72542400D02*
X207376245Y-72012400D01*
X208396245Y-72012400D02*
X208396245Y-73092400D01*
X209426245Y-73542400D02*
X206436245Y-73532400D01*
X209416245Y-71542400D02*
X206446245Y-71542400D01*
X206436245Y-71542400D02*
X206436245Y-73532400D01*
X206226245Y-72552400D02*
X207346245Y-72552400D01*
X209426245Y-71542400D02*
X209426245Y-73542400D01*
X209686245Y-72552400D02*
X208406245Y-72552400D01*
X220989128Y-71542400D02*
X218019128Y-71542400D01*
X220999128Y-71542400D02*
X220999128Y-73542400D01*
X219869128Y-72552400D02*
X218919128Y-73092400D01*
X218919128Y-72012400D02*
X218919128Y-73092400D01*
X217799128Y-72552400D02*
X218919128Y-72552400D01*
X219969128Y-72012400D02*
X219969128Y-73092400D01*
X220999128Y-73542400D02*
X218009128Y-73532400D01*
X221259128Y-72552400D02*
X219979128Y-72552400D01*
X219859128Y-72542400D02*
X218949128Y-72012400D01*
X218009128Y-71542400D02*
X218009128Y-73532400D01*
X230492011Y-72012400D02*
X230492011Y-73092400D01*
X232572011Y-71542400D02*
X232572011Y-73542400D01*
X229372011Y-72552400D02*
X230492011Y-72552400D01*
X232832011Y-72552400D02*
X231552011Y-72552400D01*
X231432011Y-72542400D02*
X230522011Y-72012400D01*
X229582011Y-71542400D02*
X229582011Y-73532400D01*
X231542011Y-72012400D02*
X231542011Y-73092400D01*
X231442011Y-72552400D02*
X230492011Y-73092400D01*
X232572011Y-73542400D02*
X229582011Y-73532400D01*
X232562011Y-71542400D02*
X229592011Y-71542400D01*
X240944894Y-72552400D02*
X242064894Y-72552400D01*
X242064894Y-72012400D02*
X242064894Y-73092400D01*
X244404894Y-72552400D02*
X243124894Y-72552400D01*
X243014894Y-72552400D02*
X242064894Y-73092400D01*
X243004894Y-72542400D02*
X242094894Y-72012400D01*
X244144894Y-73542400D02*
X241154894Y-73532400D01*
X244134894Y-71542400D02*
X241164894Y-71542400D01*
X241154894Y-71542400D02*
X241154894Y-73532400D01*
X244144894Y-71542400D02*
X244144894Y-73542400D01*
X243114894Y-72012400D02*
X243114894Y-73092400D01*
X80744579Y-74082400D02*
X80744579Y-76082400D01*
X79614579Y-75092400D02*
X78664579Y-75632400D01*
X79714579Y-74552400D02*
X79714579Y-75632400D01*
X80734579Y-74082400D02*
X77764579Y-74082400D01*
X81004579Y-75092400D02*
X79724579Y-75092400D01*
X78664579Y-74552400D02*
X78664579Y-75632400D01*
X79604579Y-75082400D02*
X78694579Y-74552400D01*
X80744579Y-76082400D02*
X77754579Y-76072400D01*
X77544579Y-75092400D02*
X78664579Y-75092400D01*
X77754579Y-74082400D02*
X77754579Y-76072400D01*
X92576500Y-75092400D02*
X91296500Y-75092400D01*
X89116500Y-75092400D02*
X90236500Y-75092400D01*
X89326500Y-74082400D02*
X89326500Y-76072400D01*
X91176500Y-75082400D02*
X90266500Y-74552400D01*
X91186500Y-75092400D02*
X90236500Y-75632400D01*
X90236500Y-74552400D02*
X90236500Y-75632400D01*
X92306500Y-74082400D02*
X89336500Y-74082400D01*
X92316500Y-76082400D02*
X89326500Y-76072400D01*
X91286500Y-74552400D02*
X91286500Y-75632400D01*
X92316500Y-74082400D02*
X92316500Y-76082400D01*
X100898421Y-74082400D02*
X100898421Y-76072400D01*
X103888421Y-74082400D02*
X103888421Y-76082400D01*
X103878421Y-74082400D02*
X100908421Y-74082400D01*
X101808421Y-74552400D02*
X101808421Y-75632400D01*
X100688421Y-75092400D02*
X101808421Y-75092400D01*
X104148421Y-75092400D02*
X102868421Y-75092400D01*
X102758421Y-75092400D02*
X101808421Y-75632400D01*
X103888421Y-76082400D02*
X100898421Y-76072400D01*
X102858421Y-74552400D02*
X102858421Y-75632400D01*
X102748421Y-75082400D02*
X101838421Y-74552400D01*
X115720342Y-75092400D02*
X114440342Y-75092400D01*
X115460342Y-76082400D02*
X112470342Y-76072400D01*
X113380342Y-74552400D02*
X113380342Y-75632400D01*
X112470342Y-74082400D02*
X112470342Y-76072400D01*
X115460342Y-74082400D02*
X115460342Y-76082400D01*
X114320342Y-75082400D02*
X113410342Y-74552400D01*
X115450342Y-74082400D02*
X112480342Y-74082400D01*
X112260342Y-75092400D02*
X113380342Y-75092400D01*
X114430342Y-74552400D02*
X114430342Y-75632400D01*
X114330342Y-75092400D02*
X113380342Y-75632400D01*
X148753830Y-74552400D02*
X148753830Y-75632400D01*
X148653830Y-75092400D02*
X147703830Y-75632400D01*
X150043830Y-75092400D02*
X148763830Y-75092400D01*
X149773830Y-74082400D02*
X146803830Y-74082400D01*
X146583830Y-75092400D02*
X147703830Y-75092400D01*
X147703830Y-74552400D02*
X147703830Y-75632400D01*
X146793830Y-74082400D02*
X146793830Y-76072400D01*
X149783830Y-74082400D02*
X149783830Y-76082400D01*
X149783830Y-76082400D02*
X146793830Y-76072400D01*
X148643830Y-75082400D02*
X147733830Y-74552400D01*
X161345751Y-74082400D02*
X158375751Y-74082400D01*
X160225751Y-75092400D02*
X159275751Y-75632400D01*
X161355751Y-76082400D02*
X158365751Y-76072400D01*
X161615751Y-75092400D02*
X160335751Y-75092400D01*
X161355751Y-74082400D02*
X161355751Y-76082400D01*
X160325751Y-74552400D02*
X160325751Y-75632400D01*
X158365751Y-74082400D02*
X158365751Y-76072400D01*
X160215751Y-75082400D02*
X159305751Y-74552400D01*
X159275751Y-74552400D02*
X159275751Y-75632400D01*
X158155751Y-75092400D02*
X159275751Y-75092400D01*
X170847672Y-74552400D02*
X170847672Y-75632400D01*
X172927672Y-76082400D02*
X169937672Y-76072400D01*
X172917672Y-74082400D02*
X169947672Y-74082400D01*
X169727672Y-75092400D02*
X170847672Y-75092400D01*
X169937672Y-74082400D02*
X169937672Y-76072400D01*
X171787672Y-75082400D02*
X170877672Y-74552400D01*
X171897672Y-74552400D02*
X171897672Y-75632400D01*
X173187672Y-75092400D02*
X171907672Y-75092400D01*
X172927672Y-74082400D02*
X172927672Y-76082400D01*
X171797672Y-75092400D02*
X170847672Y-75632400D01*
X207903435Y-75092400D02*
X206623435Y-75092400D01*
X206513435Y-75092400D02*
X205563435Y-75632400D01*
X207643435Y-76082400D02*
X204653435Y-76072400D01*
X207643435Y-74082400D02*
X207643435Y-76082400D01*
X204443435Y-75092400D02*
X205563435Y-75092400D01*
X205563435Y-74552400D02*
X205563435Y-75632400D01*
X206503435Y-75082400D02*
X205593435Y-74552400D01*
X206613435Y-74552400D02*
X206613435Y-75632400D01*
X204653435Y-74082400D02*
X204653435Y-76072400D01*
X207633435Y-74082400D02*
X204663435Y-74082400D01*
X216225356Y-74082400D02*
X216225356Y-76072400D01*
X217135356Y-74552400D02*
X217135356Y-75632400D01*
X216015356Y-75092400D02*
X217135356Y-75092400D01*
X219215356Y-76082400D02*
X216225356Y-76072400D01*
X218075356Y-75082400D02*
X217165356Y-74552400D01*
X219205356Y-74082400D02*
X216235356Y-74082400D01*
X218085356Y-75092400D02*
X217135356Y-75632400D01*
X218185356Y-74552400D02*
X218185356Y-75632400D01*
X219475356Y-75092400D02*
X218195356Y-75092400D01*
X219215356Y-74082400D02*
X219215356Y-76082400D01*
X230787277Y-74082400D02*
X230787277Y-76082400D01*
X228707277Y-74552400D02*
X228707277Y-75632400D01*
X231047277Y-75092400D02*
X229767277Y-75092400D01*
X230777277Y-74082400D02*
X227807277Y-74082400D01*
X229647277Y-75082400D02*
X228737277Y-74552400D01*
X229757277Y-74552400D02*
X229757277Y-75632400D01*
X229657277Y-75092400D02*
X228707277Y-75632400D01*
X227587277Y-75092400D02*
X228707277Y-75092400D01*
X230787277Y-76082400D02*
X227797277Y-76072400D01*
X227797277Y-74082400D02*
X227797277Y-76072400D01*
X239159198Y-75092400D02*
X240279198Y-75092400D01*
X242359198Y-74082400D02*
X242359198Y-76082400D01*
X241229198Y-75092400D02*
X240279198Y-75632400D01*
X240279198Y-74552400D02*
X240279198Y-75632400D01*
X241329198Y-74552400D02*
X241329198Y-75632400D01*
X242619198Y-75092400D02*
X241339198Y-75092400D01*
X242359198Y-76082400D02*
X239369198Y-76072400D01*
X239369198Y-74082400D02*
X239369198Y-76072400D01*
X242349198Y-74082400D02*
X239379198Y-74082400D01*
X241219198Y-75082400D02*
X240309198Y-74552400D01*
D14*
X62835000Y-55959000D02*
X62835000Y-56759000D01*
D15*
X67945000Y-61849000D02*
X60325000Y-61849000D01*
D14*
X65385000Y-56759000D02*
X65385000Y-55959000D01*
D15*
X60325000Y-61849000D02*
X60325000Y-56769000D01*
X60325000Y-56769000D02*
X67945000Y-56769000D01*
X67945000Y-56769000D02*
X67945000Y-61849000D01*
D14*
X65385000Y-55959000D02*
X62835000Y-55959000D01*
D13*
X296521491Y-60238976D02*
X296521491Y-62078976D01*
X300361491Y-62078976D02*
X300361491Y-60238976D01*
X295571491Y-61158976D02*
X296521491Y-61158976D01*
X300361491Y-60238976D02*
X296521491Y-60238976D01*
X296521491Y-62078976D02*
X300361491Y-62078976D01*
X301311491Y-61158976D02*
X300361491Y-61158976D01*
X300361491Y-64617152D02*
X300361491Y-62777152D01*
X296521491Y-64617152D02*
X300361491Y-64617152D01*
X301311491Y-63697152D02*
X300361491Y-63697152D01*
X296521491Y-62777152D02*
X296521491Y-64617152D01*
X300361491Y-62777152D02*
X296521491Y-62777152D01*
X295571491Y-63697152D02*
X296521491Y-63697152D01*
X296521491Y-69693504D02*
X300361491Y-69693504D01*
X301311491Y-68773504D02*
X300361491Y-68773504D01*
X295571491Y-68773504D02*
X296521491Y-68773504D01*
X296521491Y-67853504D02*
X296521491Y-69693504D01*
X300361491Y-69693504D02*
X300361491Y-67853504D01*
X300361491Y-67853504D02*
X296521491Y-67853504D01*
X300361491Y-72231680D02*
X300361491Y-70391680D01*
X296521491Y-72231680D02*
X300361491Y-72231680D01*
X301311491Y-71311680D02*
X300361491Y-71311680D01*
X296521491Y-70391680D02*
X296521491Y-72231680D01*
X295571491Y-71311680D02*
X296521491Y-71311680D01*
X300361491Y-70391680D02*
X296521491Y-70391680D01*
X300361491Y-77308033D02*
X300361491Y-75468033D01*
X301311491Y-76388033D02*
X300361491Y-76388033D01*
X295571491Y-76388033D02*
X296521491Y-76388033D01*
X300361491Y-75468033D02*
X296521491Y-75468033D01*
X296521491Y-77308033D02*
X300361491Y-77308033D01*
X296521491Y-75468033D02*
X296521491Y-77308033D01*
X300361491Y-65315328D02*
X296521491Y-65315328D01*
X300361491Y-67155328D02*
X300361491Y-65315328D01*
X296521491Y-65315328D02*
X296521491Y-67155328D01*
X301311491Y-66235328D02*
X300361491Y-66235328D01*
X296521491Y-67155328D02*
X300361491Y-67155328D01*
X295571491Y-66235328D02*
X296521491Y-66235328D01*
X296521491Y-74769856D02*
X300361491Y-74769856D01*
X300361491Y-72929856D02*
X296521491Y-72929856D01*
X301311491Y-73849856D02*
X300361491Y-73849856D01*
X295571491Y-73849856D02*
X296521491Y-73849856D01*
X296521491Y-72929856D02*
X296521491Y-74769856D01*
X300361491Y-74769856D02*
X300361491Y-72929856D01*
X53659600Y-65375899D02*
X49159600Y-65375899D01*
X54909600Y-69375899D02*
X54909600Y-67875899D01*
X49159600Y-71875899D02*
X53659600Y-71875899D01*
X47909600Y-67875899D02*
X47909600Y-69375899D01*
D11*
X51409600Y-55215600D02*
X51409600Y-56485600D01*
X55884600Y-61875600D02*
X46934600Y-61875600D01*
X55884600Y-52705600D02*
X46934600Y-52705600D01*
X46929600Y-53465600D02*
X46934600Y-52705600D01*
X55884600Y-52705600D02*
X55889600Y-53465600D01*
X56034600Y-55215600D02*
X46784600Y-55215600D01*
D13*
X363596883Y-65519933D02*
X363596883Y-71919933D01*
X368646883Y-65519933D02*
X368646883Y-71919933D01*
X363596883Y-71919933D02*
G75*
G03*
X368646883Y-71919933I2525000J0D01*
G01*
X368646883Y-65519933D02*
G75*
G03*
X363596883Y-65519933I-2525000J0D01*
G01*
G36*
X66117138Y-148323556D02*
G01*
X66454966Y-148340247D01*
X66701924Y-148366558D01*
X66900473Y-148411290D01*
X67093072Y-148483248D01*
X67259000Y-148560302D01*
X67532527Y-148704462D01*
X67806900Y-148867262D01*
X67990993Y-148990982D01*
X68289654Y-149211333D01*
X67324327Y-149251158D01*
X66739611Y-149289427D01*
X66268187Y-149355798D01*
X65891620Y-149457755D01*
X65591473Y-149602786D01*
X65349307Y-149798377D01*
X65146687Y-150052012D01*
X65077153Y-150163592D01*
X64998387Y-150305615D01*
X64945979Y-150434217D01*
X64914708Y-150581321D01*
X64899350Y-150778852D01*
X64894683Y-151058732D01*
X64894837Y-151278000D01*
X64909788Y-151756494D01*
X64956864Y-152127805D01*
X65044477Y-152415953D01*
X65181034Y-152644961D01*
X65374947Y-152838853D01*
X65465624Y-152908468D01*
X65705488Y-153063099D01*
X65954842Y-153177912D01*
X66238104Y-153257934D01*
X66579693Y-153308192D01*
X67004027Y-153333713D01*
X67535524Y-153339524D01*
X67559000Y-153339419D01*
X67993022Y-153334514D01*
X68322433Y-153322834D01*
X68575893Y-153301618D01*
X68782064Y-153268102D01*
X68969605Y-153219522D01*
X69042333Y-153196410D01*
X69459000Y-153058648D01*
X69457679Y-154134990D01*
X69453165Y-154541219D01*
X69441624Y-154938350D01*
X69424589Y-155290412D01*
X69403594Y-155561434D01*
X69393182Y-155647925D01*
X69354958Y-155927853D01*
X69310884Y-156274204D01*
X69269328Y-156620826D01*
X69261830Y-156686350D01*
X69215365Y-157023406D01*
X69147638Y-157425277D01*
X69069920Y-157827475D01*
X69030296Y-158010941D01*
X68932170Y-158410362D01*
X68835125Y-158696334D01*
X68721668Y-158887442D01*
X68574302Y-159002271D01*
X68375535Y-159059404D01*
X68107871Y-159077427D01*
X68025817Y-159078000D01*
X67698785Y-159062401D01*
X67476466Y-159000636D01*
X67332363Y-158870252D01*
X67239980Y-158648794D01*
X67180588Y-158361726D01*
X67148438Y-158122119D01*
X67135898Y-157927314D01*
X67144643Y-157824706D01*
X67229160Y-157751453D01*
X67391898Y-157691482D01*
X67437010Y-157681935D01*
X67628603Y-157624662D01*
X67837235Y-157529140D01*
X68025345Y-157417161D01*
X68155372Y-157310515D01*
X68192333Y-157243720D01*
X68127351Y-157219851D01*
X67938998Y-157200875D01*
X67637165Y-157187293D01*
X67231742Y-157179605D01*
X66893603Y-157178000D01*
X66435226Y-157174541D01*
X66092592Y-157173998D01*
X65848637Y-157191121D01*
X65686296Y-157240656D01*
X65588506Y-157337355D01*
X65538203Y-157495964D01*
X65518322Y-157731234D01*
X65511799Y-158057913D01*
X65505230Y-158378000D01*
X65492263Y-158718793D01*
X65475052Y-159017220D01*
X65455652Y-159244969D01*
X65436115Y-159373727D01*
X65432144Y-159385636D01*
X65327475Y-159507542D01*
X65127473Y-159596991D01*
X64820074Y-159657547D01*
X64393216Y-159692775D01*
X64392333Y-159692817D01*
X64054432Y-159702529D01*
X63826552Y-159691841D01*
X63686695Y-159659028D01*
X63643228Y-159634040D01*
X63584808Y-159557567D01*
X63533808Y-159417595D01*
X63488932Y-159203405D01*
X63448883Y-158904280D01*
X63412367Y-158509500D01*
X63378087Y-158008347D01*
X63344747Y-157390102D01*
X63327522Y-157022554D01*
X63280512Y-155808559D01*
X63254819Y-154716273D01*
X63250831Y-153735728D01*
X63268931Y-152856952D01*
X63309505Y-152069977D01*
X63372939Y-151364832D01*
X63459618Y-150731548D01*
X63569927Y-150160154D01*
X63597322Y-150042104D01*
X63721581Y-149598637D01*
X63862747Y-149261087D01*
X64036561Y-149002041D01*
X64258761Y-148794088D01*
X64352191Y-148727419D01*
X64694728Y-148531148D01*
X65051306Y-148402819D01*
X65455855Y-148334667D01*
X65942307Y-148318928D01*
X66117138Y-148323556D01*
G37*
G36*
X62592333Y-154244666D02*
G01*
X62599476Y-154837771D01*
X62606096Y-155387702D01*
X62612024Y-155880552D01*
X62617094Y-156302417D01*
X62621138Y-156639390D01*
X62623990Y-156877565D01*
X62625482Y-157003038D01*
X62625666Y-157019156D01*
X62567171Y-157043016D01*
X62424234Y-157060140D01*
X62245682Y-157068024D01*
X62080340Y-157064161D01*
X61992834Y-157051629D01*
X61823921Y-156940091D01*
X61669406Y-156713487D01*
X61538856Y-156389995D01*
X61446394Y-156013050D01*
X61416625Y-155773000D01*
X61393629Y-155430307D01*
X61377371Y-155010970D01*
X61367816Y-154540988D01*
X61364930Y-154046360D01*
X61368677Y-153553085D01*
X61379023Y-153087164D01*
X61395932Y-152674593D01*
X61419370Y-152341374D01*
X61449301Y-152113504D01*
X61451649Y-152102122D01*
X61539521Y-151802435D01*
X61665329Y-151613523D01*
X61854847Y-151513385D01*
X62133849Y-151480018D01*
X62181091Y-151479424D01*
X62559000Y-151478000D01*
X62592333Y-154244666D01*
G37*
G36*
X68347180Y-149967582D02*
G01*
X68798361Y-150006667D01*
X69136531Y-150053960D01*
X69382011Y-150118463D01*
X69555122Y-150209179D01*
X69676185Y-150335109D01*
X69765519Y-150505258D01*
X69806081Y-150613911D01*
X69884879Y-150936524D01*
X69918109Y-151284046D01*
X69905087Y-151610123D01*
X69845125Y-151868404D01*
X69825295Y-151912051D01*
X69641892Y-152127976D01*
X69328790Y-152318487D01*
X68887309Y-152482899D01*
X68550747Y-152571187D01*
X67827442Y-152686636D01*
X67157450Y-152685831D01*
X66725666Y-152618854D01*
X66267296Y-152472433D01*
X65922631Y-152259070D01*
X65687389Y-151973927D01*
X65557290Y-151612168D01*
X65526038Y-151263474D01*
X65556604Y-150867275D01*
X65654278Y-150564597D01*
X65829601Y-150328222D01*
X65918459Y-150250375D01*
X66202765Y-150097041D01*
X66605977Y-149993801D01*
X67129395Y-149940502D01*
X67774319Y-149936993D01*
X68347180Y-149967582D01*
G37*
M02*
